<?xml version="1.0" standalone="no"?>
<!DOCTYPE svg PUBLIC "-//W3C//DTD SVG 1.1//EN" "http://www.w3.org/Graphics/SVG/1.1/DTD/svg11.dtd" >
<svg xmlns="http://www.w3.org/2000/svg" xmlns:xlink="http://www.w3.org/1999/xlink" version="1.1">
<metadata>
Created by FontForge 20150824 at Mon Jul 11 03:57:32 2016
 By Everything Fonts
Copyright (c) 1991, 1992, 2002 Adobe Systems Incorporated.  All Rights Reserved. (c) 1981, 2002 Heidelberger Druckmaschinen AG. All rights reserved.
</metadata>
<defs>
<font id="CaeciliaLTStdHeavy" horiz-adv-x="332" >
  <font-face 
    font-family="CaeciliaLTStdHeavy"
    font-weight="850"
    font-stretch="normal"
    units-per-em="1000"
    panose-1="0 0 9 0 0 0 0 0 0 0"
    ascent="769"
    descent="-231"
    x-height="523"
    cap-height="700"
    bbox="-170 -277 1146 970"
    underline-thickness="50"
    underline-position="-150"
    unicode-range="U+0020-FB02"
  />
<missing-glyph horiz-adv-x="500" 
d="M0 0v700h500v-700h-500zM250 395l170 255h-340zM280 350l170 -255v510zM80 50h340l-170 255zM50 605v-510l170 255z" />
    <glyph glyph-name="f_i" unicode="fi" horiz-adv-x="648" 
d="M408 102v319h-172v-319h63v-102h-257v102h54v319h-66v102h66q0 64 9 107t33.5 80.5t74.5 55.5t127 18q57 0 120 -15v-99q-58 12 -102 12q-71 0 -96.5 -31t-25.5 -89v-39h312v-421h60v-102h-257v102h57z" />
    <glyph glyph-name="f_l" unicode="fl" horiz-adv-x="667" 
d="M426 102v571q-32 9 -68 9q-71 0 -96.5 -31t-25.5 -89v-39h110v-102h-110v-319h63v-102h-257v102h54v319h-66v102h66q0 64 8.5 107t32 80.5t69.5 55.5t117 18q59 0 106 -15h137v-667h54v-102h-251v102h57z" />
    <glyph glyph-name=".notdef" horiz-adv-x="500" 
d="M0 0v700h500v-700h-500zM250 395l170 255h-340zM280 350l170 -255v510zM80 50h340l-170 255zM50 605v-510l170 255z" />
    <glyph glyph-name=".null" horiz-adv-x="0" 
 />
    <glyph glyph-name="nonmarkingreturn" horiz-adv-x="333" 
 />
    <glyph glyph-name="space" unicode=" " horiz-adv-x="296" 
 />
    <glyph glyph-name="exclam" unicode="!" horiz-adv-x="296" 
d="M81 224l-12 545h158l-12 -545h-134zM54 73q0 43 26.5 66.5t67.5 23.5t67.5 -23.5t26.5 -66.5q0 -39 -25 -64.5t-69 -25.5t-69 25.5t-25 64.5z" />
    <glyph glyph-name="quotedbl" unicode="&#x22;" horiz-adv-x="333" 
d="M138 722q0 -65 -18 -272q-4 -52 -45 -52t-45 52q-18 207 -18 272q0 26 17.5 44t45.5 18t45.5 -18t17.5 -44zM321 722q0 -65 -18 -272q-4 -52 -45 -52t-45 52q-18 207 -18 272q0 26 17.5 44t45.5 18t45.5 -18t17.5 -44z" />
    <glyph glyph-name="numbersign" unicode="#" horiz-adv-x="592" 
d="M338 289l17 122h-102l-17 -122h102zM367 497l27 203h90l-27 -203h86v-86h-98l-16 -122h85v-86h-97l-27 -203h-90l27 203h-102l-28 -203h-90l28 203h-86v86h98l16 122h-85v86h97l27 203h90l-27 -203h102z" />
    <glyph glyph-name="dollar" unicode="$" horiz-adv-x="592" 
d="M245 102v196q-113 15 -170.5 61t-57.5 139t61 151t167 68v134h96v-134q93 0 194 -31v-171h-120v79q-39 15 -74 15v-183q55 -8 94.5 -21t73 -36.5t50 -61.5t16.5 -91q0 -57 -23 -102.5t-59.5 -71.5t-75.5 -39.5t-76 -14.5v-134h-96v134q-139 2 -225 32v188h140v-91
q47 -13 85 -15zM245 441v168q-42 -7 -65 -31.5t-23 -59.5q0 -61 88 -77zM341 282v-180q42 3 72 30.5t30 67.5q0 71 -102 82z" />
    <glyph glyph-name="percent" unicode="%" horiz-adv-x="815" 
d="M263 558q0 35 -16 57t-49 22q-35 0 -51.5 -24t-16.5 -61q0 -34 15.5 -56t49.5 -22q36 0 52 25t16 59zM365 559q0 -77 -49.5 -121t-121.5 -44q-82 0 -124 42.5t-42 118.5q0 75 49.5 118.5t121.5 43.5q84 0 125 -47t41 -111zM685 147q0 35 -16 57t-49 22q-35 0 -51.5 -24
t-16.5 -61q0 -34 15.5 -56t49.5 -22q36 0 52 25t16 59zM787 148q0 -77 -49.5 -121t-121.5 -44q-82 0 -124 42.5t-42 118.5q0 75 49.5 118.5t121.5 43.5q84 0 125 -47t41 -111zM157 -14l421 772l80 -44l-421 -772z" />
    <glyph glyph-name="ampersand" unicode="&#x26;" horiz-adv-x="741" 
d="M485 343v96h224v-96h-54q-6 -115 -73 -199q34 -42 89 -42q5 0 35 3v-103q-8 0 -26 -1t-27 -1q-59 0 -87.5 10.5t-58.5 46.5q-48 -41 -95.5 -57.5t-115.5 -16.5q-110 0 -179.5 57t-69.5 150q0 67 35.5 113.5t103.5 86.5q-48 52 -66 86t-18 72q0 70 56.5 117t145.5 47
q87 0 133 -43t46 -110q0 -99 -131 -177l157 -164q38 52 38 125h-62zM369 553q0 32 -20.5 47.5t-51.5 15.5t-53 -17t-22 -51q0 -43 61 -93q33 14 59.5 39.5t26.5 58.5zM433 133l-176 183q-78 -43 -78 -113q0 -43 37 -77.5t108 -34.5q59 0 109 42z" />
    <glyph glyph-name="quotesingle" unicode="'" horiz-adv-x="222" 
d="M174 722q0 -65 -18 -272q-4 -52 -45 -52t-45 52q-18 207 -18 272q0 26 17.5 44t45.5 18t45.5 -18t17.5 -44z" />
    <glyph glyph-name="parenleft" unicode="(" horiz-adv-x="296" 
d="M230 795l95 -59q-146 -226 -146 -497q0 -116 30 -224.5t105 -233.5l-102 -58q-98 141 -138.5 266.5t-40.5 255.5q0 149 46.5 280.5t150.5 269.5z" />
    <glyph glyph-name="parenright" unicode=")" horiz-adv-x="296" 
d="M66 -277l-95 59q146 226 146 497q0 116 -30 224.5t-105 233.5l102 58q98 -141 138.5 -266.5t40.5 -255.5q0 -149 -46.5 -280.5t-150.5 -269.5z" />
    <glyph glyph-name="asterisk" unicode="*" horiz-adv-x="370" 
d="M162 655l-23 114h92l-23 -114l2 -2l86 80l45 -80l-110 -36v-2l109 -37l-46 -79l-84 79l-2 -2l22 -115h-90l22 115l-2 2l-84 -79l-46 79l109 37v2l-110 36l45 80l86 -80z" />
    <glyph glyph-name="plus" unicode="+" horiz-adv-x="600" 
d="M246 307v199h108v-199h199v-108h-199v-199h-108v199h-199v108h199z" />
    <glyph glyph-name="comma" unicode="," horiz-adv-x="296" 
d="M87 -223l-65 62q80 63 80 124q0 26 -27.5 59.5t-27.5 58.5q0 37 24 59.5t61 22.5q52 0 81 -41.5t29 -96.5q0 -147 -155 -248z" />
    <glyph glyph-name="hyphen" unicode="-" horiz-adv-x="426" 
d="M67 238v120h292v-120h-292z" />
    <glyph glyph-name="period" unicode="." horiz-adv-x="296" 
d="M54 73q0 43 26.5 66.5t67.5 23.5t67.5 -23.5t26.5 -66.5q0 -39 -25 -64.5t-69 -25.5t-69 25.5t-25 64.5z" />
    <glyph glyph-name="slash" unicode="/" horiz-adv-x="352" 
d="M-22 -48l295 832l101 -36l-295 -832z" />
    <glyph glyph-name="zero" unicode="0" horiz-adv-x="592" 
d="M29 331q0 105 23 182.5t63.5 120.5t88.5 63t105 20q117 0 185.5 -94t68.5 -273q0 -177 -79.5 -272t-196.5 -95q-54 0 -98 17t-81.5 55t-58 108t-20.5 168zM181 343q0 -135 28 -190.5t88 -55.5q114 0 114 253t-112 253q-118 0 -118 -260z" />
    <glyph glyph-name="one" unicode="1" horiz-adv-x="592" 
d="M119 0v102h135v466q-27 -22 -35 -28l-121 -81l-57 92l252 149h107v-598h137v-102h-418z" />
    <glyph glyph-name="two" unicode="2" horiz-adv-x="592" 
d="M24 0v96q30 21 67.5 50t92 77.5t97.5 94.5t74 98t31 91q0 49 -30.5 72.5t-67.5 23.5q-52 0 -83 -33t-37 -85h-140q0 34 12.5 70.5t40.5 74.5t83.5 62.5t129.5 24.5q43 0 83 -11t76 -34t57.5 -63.5t21.5 -94.5q0 -51 -23 -102.5t-69.5 -103.5t-95.5 -96.5t-121 -101.5v-2
q46 6 72 6h258v-114h-529z" />
    <glyph glyph-name="three" unicode="3" horiz-adv-x="592" 
d="M185 311v96q90 0 134 36t44 86q0 36 -25 58t-65 22q-45 0 -78 -29t-33 -73h-140q0 79 68.5 144.5t191.5 65.5q101 0 164 -48.5t63 -128.5q0 -63 -40.5 -111t-103.5 -57v-2q73 -2 122.5 -45.5t49.5 -123.5q0 -26 -6 -51.5t-25.5 -57t-50 -54.5t-86.5 -39t-129 -16
q-129 0 -216 42v135q102 -57 205 -57q78 0 120 27.5t42 77.5q0 103 -206 103z" />
    <glyph glyph-name="four" unicode="4" horiz-adv-x="592" 
d="M335 296v276h-2l-185 -279q20 3 39 3h148zM335 102v86h-320v108l279 404h181v-404h122v-108h-122v-86h69v-102h-277v102h68z" />
    <glyph glyph-name="five" unicode="5" horiz-adv-x="592" 
d="M75 348v352h431v-102h-291v-142q43 0 83 -5t85 -19.5t77.5 -38t54 -64t21.5 -93.5q0 -117 -78 -185t-218 -68q-94 0 -183 31v114q25 -12 79.5 -21.5t99.5 -9.5q79 0 116.5 34.5t37.5 85.5q0 72 -71 101t-244 30z" />
    <glyph glyph-name="six" unicode="6" horiz-adv-x="592" 
d="M430 224q0 56 -34.5 88.5t-84.5 32.5q-69 0 -121 -55q0 -101 35.5 -147t92.5 -46q33 0 57 14t35 36t15.5 41t4.5 36zM543 697l-9 -109q-74 27 -127 27q-56 0 -98 -20t-66 -55t-37.5 -72.5t-18.5 -80.5l2 -2q62 68 163 68q86 0 148 -57.5t62 -160.5q0 -45 -14 -88
t-41.5 -80.5t-77 -60.5t-112.5 -23q-122 0 -197.5 84t-75.5 248q0 183 90.5 292.5t264.5 109.5q84 0 144 -20z" />
    <glyph glyph-name="seven" unicode="7" horiz-adv-x="592" 
d="M50 586v114h493v-88l-246 -493q-30 -61 -71 -119h-158q47 68 78 126l213 402q17 32 40 58h-349z" />
    <glyph glyph-name="eight" unicode="8" horiz-adv-x="592" 
d="M51 530q0 82 68.5 134.5t188.5 52.5q124 0 182 -53.5t58 -123.5q0 -67 -34.5 -106.5t-106.5 -68.5v-2q73 -19 117 -66.5t44 -114.5q0 -55 -22.5 -95t-63 -62t-88.5 -32t-106 -10q-50 0 -94 9t-83.5 29t-63 57.5t-23.5 88.5q0 66 43.5 114.5t123.5 72.5v2
q-71 21 -105.5 67t-34.5 107zM408 529q0 39 -29.5 59.5t-79.5 20.5q-48 0 -78 -23.5t-30 -61.5q0 -34 26.5 -58t83.5 -49q61 31 84 54.5t23 57.5zM428 185q0 37 -29.5 63t-107.5 53q-121 -44 -121 -117q0 -38 33 -65.5t93 -27.5q61 0 96.5 27.5t35.5 66.5z" />
    <glyph glyph-name="nine" unicode="9" horiz-adv-x="592" 
d="M162 476q0 -56 34.5 -88.5t84.5 -32.5q69 0 121 55q0 101 -35.5 147t-92.5 46q-33 0 -57 -14t-35 -36t-15.5 -41t-4.5 -36zM49 3l9 109q74 -27 127 -27q56 0 98 20t66 55t37.5 72.5t18.5 80.5l-2 2q-62 -68 -163 -68q-86 0 -148 57.5t-62 160.5q0 45 14 88t41.5 80.5
t77 60.5t112.5 23q122 0 197.5 -84t75.5 -248q0 -183 -90.5 -292.5t-264.5 -109.5q-84 0 -144 20z" />
    <glyph glyph-name="colon" unicode=":" horiz-adv-x="296" 
d="M54 445q0 43 26.5 66.5t67.5 23.5t67.5 -23.5t26.5 -66.5q0 -39 -25 -64.5t-69 -25.5t-69 25.5t-25 64.5zM54 73q0 43 26.5 66.5t67.5 23.5t67.5 -23.5t26.5 -66.5q0 -39 -25 -64.5t-69 -25.5t-69 25.5t-25 64.5z" />
    <glyph glyph-name="semicolon" unicode=";" horiz-adv-x="296" 
d="M87 -223l-65 62q80 63 80 124q0 26 -27.5 59.5t-27.5 58.5q0 37 24 59.5t61 22.5q52 0 81 -41.5t29 -96.5q0 -147 -155 -248zM54 445q0 43 26.5 66.5t67.5 23.5t67.5 -23.5t26.5 -66.5q0 -39 -25 -64.5t-69 -25.5t-69 25.5t-25 64.5z" />
    <glyph glyph-name="less" unicode="&#x3c;" horiz-adv-x="600" 
d="M47 207v92l506 215v-108l-386 -153l386 -153v-108z" />
    <glyph glyph-name="equal" unicode="=" horiz-adv-x="600" 
d="M47 295v108h506v-108h-506zM47 103v108h506v-108h-506z" />
    <glyph glyph-name="greater" unicode="&#x3e;" horiz-adv-x="600" 
d="M433 253l-386 153v108l506 -215v-92l-506 -215v108z" />
    <glyph glyph-name="question" unicode="?" horiz-adv-x="481" 
d="M64 651l-5 111q95 22 160 22q71 0 122.5 -19t77 -49t36.5 -59.5t11 -58.5q0 -57 -26 -101t-62.5 -68.5t-73 -44.5t-62.5 -41.5t-26 -46.5q0 -19 22 -52l-126 -37q-36 50 -36 99q0 40 24.5 70t59.5 49l70 38t59.5 48.5t24.5 67.5q0 45 -35.5 68t-89.5 23q-60 0 -125 -19z
M68 73q0 43 26.5 66.5t67.5 23.5t67.5 -23.5t26.5 -66.5q0 -39 -25 -64.5t-69 -25.5t-69 25.5t-25 64.5z" />
    <glyph glyph-name="at" unicode="@" horiz-adv-x="800" 
d="M488 389q0 93 -79 93q-57 0 -97 -56.5t-40 -119.5q0 -44 20 -70.5t54 -26.5q59 0 100.5 60t41.5 120zM518 480l18 57h71l-68 -244q-16 -57 -16 -67q0 -22 33 -22q41 0 78.5 60t37.5 138q0 100 -75.5 165t-180.5 65q-125 0 -206.5 -84.5t-81.5 -200.5q0 -124 82 -201.5
t198 -77.5q154 0 240 84h82q-40 -74 -123.5 -119t-198.5 -45q-160 0 -265 98t-105 265q0 155 105.5 258t272.5 103q149 0 247.5 -83.5t98.5 -214.5q0 -69 -25 -125t-63.5 -88t-80 -49t-78.5 -17q-68 0 -70 58h-2q-50 -58 -120 -58q-58 0 -96.5 43.5t-38.5 114.5
q0 104 66 183.5t151 79.5q74 0 113 -76z" />
    <glyph glyph-name="A" unicode="A" horiz-adv-x="778" 
d="M461 344l-50 146q-20 56 -26 102h-2q-10 -46 -31 -102l-54 -146h163zM543 102l-45 134h-241l-50 -134h67v-102h-260v102h56l246 598h161l231 -598h56v-102h-278v102h57z" />
    <glyph glyph-name="B" unicode="B" horiz-adv-x="648" 
d="M103 102v496h-75v102h269q81 0 122.5 -6t73.5 -27q73 -47 73 -141q0 -76 -47.5 -117t-95.5 -41v-2q77 0 131 -45.5t54 -127.5q0 -79 -64.5 -136t-198.5 -57h-311v102h69zM249 598v-184h68q47 0 78 25.5t31 70.5q0 88 -107 88h-70zM249 300v-198h79q61 0 91.5 28.5
t30.5 73.5q0 42 -31 69t-85 27h-85z" />
    <glyph glyph-name="C" unicode="C" horiz-adv-x="685" 
d="M510 112l6 127h126l-6 -216q-102 -35 -228 -35q-174 0 -274 96.5t-100 260.5q0 73 23.5 138t69 116.5t119.5 82t168 30.5q115 0 231 -41v-195h-126v112q-47 16 -99 16q-117 0 -172.5 -71.5t-55.5 -178.5q0 -44 11 -84.5t35.5 -80.5t73 -63.5t116.5 -23.5q51 0 82 10z" />
    <glyph glyph-name="D" unicode="D" horiz-adv-x="759" 
d="M103 102v496h-75v102h327q178 0 276.5 -86t98.5 -249q0 -165 -99 -265t-268 -100h-335v102h75zM249 102h85q100 0 169 63t69 196q0 65 -19 112t-53 74t-75.5 39t-92.5 12h-83v-496z" />
    <glyph glyph-name="E" unicode="E" horiz-adv-x="593" 
d="M423 102l8 118h120l-8 -220h-503v102h63v496h-75v102h512l6 -206h-120l-6 104h-171v-184h176v-108h-176v-204h174z" />
    <glyph glyph-name="F" unicode="F" horiz-adv-x="574" 
d="M426 494l-6 104h-165v-194h193v-108h-193v-194h79v-102h-288v102h63v496h-75v102h506l6 -206h-120z" />
    <glyph glyph-name="G" unicode="G" horiz-adv-x="722" 
d="M432 238v108h276v-108h-64v-217q-123 -33 -236 -33q-174 0 -274 96.5t-100 260.5q0 74 23.5 139.5t69.5 116.5t121.5 81t170.5 30q113 0 235 -42v-195h-126v115q-43 14 -99 14q-123 0 -180 -71t-57 -179q0 -44 11 -84.5t35.5 -80.5t73 -63.5t116.5 -23.5q37 0 76 6v130
h-72z" />
    <glyph glyph-name="H" unicode="H" horiz-adv-x="778" 
d="M533 404v194h-63v102h272v-102h-63v-496h63v-102h-272v102h63v194h-288v-194h63v-102h-272v102h63v496h-63v102h272v-102h-63v-194h288z" />
    <glyph glyph-name="I" unicode="I" horiz-adv-x="352" 
d="M103 102v496h-63v102h272v-102h-63v-496h63v-102h-272v102h63z" />
    <glyph glyph-name="J" unicode="J" horiz-adv-x="333" 
d="M40 598v102h272v-102h-63v-392q0 -160 -57 -248.5t-191 -154.5l-52 101q83 37 118.5 108t35.5 212v374h-63z" />
    <glyph glyph-name="K" unicode="K" horiz-adv-x="722" 
d="M40 0v102h63v496h-63v102h272v-102h-63v-223l188 177q39 36 61 44v2h-74v102h284v-102h-55l-258 -231l270 -265h56v-102h-308v102h82v2q-32 22 -48 36l-198 193v-231h63v-102h-272z" />
    <glyph glyph-name="L" unicode="L" horiz-adv-x="574" 
d="M427 102l8 125h121l-10 -227h-500v102h63v496h-63v102h272v-102h-63v-496h172z" />
    <glyph glyph-name="M" unicode="M" horiz-adv-x="963" 
d="M728 102v403h-2q-1 -26 -27 -92l-158 -413h-140l-162 420q-27 69 -28 92h-2v-410h73v-102h-248v102h61v496h-73v102h257l180 -465q25 -60 28 -95h2q3 38 35 125l163 435h254v-102h-73v-496h70v-102h-269v102h59z" />
    <glyph glyph-name="N" unicode="N" horiz-adv-x="796" 
d="M38 0v102h65v496h-89v102h203l295 -371q48 -60 59 -94h2v363h-64v102h253v-102h-69v-598h-108l-333 418q-29 36 -33 54h-2v-370h68v-102h-247z" />
    <glyph glyph-name="O" unicode="O" horiz-adv-x="760" 
d="M34 350q0 151 93.5 256.5t252.5 105.5q171 0 258.5 -99.5t87.5 -262.5q0 -76 -20 -140t-60.5 -114.5t-108.5 -79t-157 -28.5t-157 28.5t-108.5 79t-60.5 114.5t-20 140zM192 350q0 -111 45.5 -179.5t142.5 -68.5t142.5 68.5t45.5 179.5q0 109 -47 178.5t-141 69.5
t-141 -69.5t-47 -178.5z" />
    <glyph glyph-name="P" unicode="P" horiz-adv-x="611" 
d="M109 102v496h-69v102h289q256 0 256 -207q0 -99 -64 -161t-168 -62h-98v-168h69v-102h-284v102h69zM255 372h79q54 0 82.5 30.5t28.5 84.5q0 53 -30 82t-83 29h-77v-226z" />
    <glyph glyph-name="Q" unicode="Q" horiz-adv-x="760" 
d="M823 -65v-96q-31 -10 -71 -10q-51 0 -118.5 25t-119.5 54.5t-101 54.5t-68 25q-131 0 -221 98t-90 264q0 151 93.5 256.5t252.5 105.5q171 0 258.5 -99.5t87.5 -262.5q0 -114 -45 -201.5t-137 -127.5v-2q31 -7 113 -47.5t131 -40.5q15 0 35 4zM192 350
q0 -111 45.5 -179.5t142.5 -68.5t142.5 68.5t45.5 179.5q0 109 -47 178.5t-141 69.5t-141 -69.5t-47 -178.5z" />
    <glyph glyph-name="R" unicode="R" horiz-adv-x="648" 
d="M103 102v496h-69v102h309q60 0 88 -5t59 -21q46 -23 70 -67t24 -99q0 -74 -51.5 -126.5t-113.5 -54.5v-2q27 -2 46 -17t44 -57l63 -105q26 -44 57 -44h26v-102h-112q-30 0 -54.5 20t-62.5 85l-85 146q-21 35 -58 35h-34v-184h63v-102h-272v102h63zM249 598v-204h75
q114 0 114 102q0 52 -29 77t-94 25h-66z" />
    <glyph glyph-name="S" unicode="S" horiz-adv-x="630" 
d="M423 508v85q-49 17 -94 17q-66 0 -97 -27t-31 -62t21 -51t62 -26l84 -21q39 -10 63 -17.5t57 -24t51.5 -36.5t32 -52.5t13.5 -74.5q0 -105 -72.5 -167.5t-216.5 -62.5q-133 0 -251 39v185h146v-92q44 -18 118 -18q62 0 93 26t31 68q0 29 -23.5 49t-90.5 37l-77 20
q-107 27 -150 73t-43 128q0 91 68 150t208 59q133 0 230 -37v-167h-132z" />
    <glyph glyph-name="T" unicode="T" horiz-adv-x="684" 
d="M547 502l-6 96h-126v-496h63v-102h-272v102h63v496h-126l-6 -96h-120l6 198h638l6 -198h-120z" />
    <glyph glyph-name="U" unicode="U" horiz-adv-x="759" 
d="M459 598v102h272v-102h-63v-320q0 -160 -70 -225t-227 -65q-84 0 -140.5 17.5t-86 53.5t-41.5 79.5t-12 105.5v354h-63v102h272v-102h-63v-329q0 -83 31.5 -125t110.5 -42q77 0 117 36.5t40 130.5v329h-77z" />
    <glyph glyph-name="V" unicode="V" horiz-adv-x="759" 
d="M479 598v102h272v-102h-54l-235 -598h-163l-235 598h-56v102h284v-102h-59l137 -400q16 -45 21 -84h2q5 39 21 84l137 400h-72z" />
    <glyph glyph-name="W" unicode="W" horiz-adv-x="1130" 
d="M856 598v102h272v-102h-56l-234 -598h-155l-111 328h-2l-120 -328h-158l-234 598h-56v102h284v-102h-59l137 -400q16 -45 21 -84h2q5 39 21 84l105 302l-36 98h-66v102h278v-102h-63l123 -400q15 -50 20 -84h2q5 39 21 84l137 400h-73z" />
    <glyph glyph-name="X" unicode="X" horiz-adv-x="722" 
d="M445 598v102h242v-102h-51l-193 -230l206 -266h60v-102h-296v102h58v2q-16 10 -35 35l-88 116l-99 -117q-21 -25 -38 -34v-2h62v-102h-260v102h58l209 241l-195 255h-58v102h296v-102h-67v-2q19 -9 37 -33l84 -109l102 116q14 17 32 26v2h-66z" />
    <glyph glyph-name="Y" unicode="Y" horiz-adv-x="741" 
d="M477 598v102h254v-102h-55l-232 -319v-177h63v-102h-271v102h62v176l-233 320h-55v102h278v-102h-56q23 -25 37 -45l116 -170l125 171q15 20 37 44h-70z" />
    <glyph glyph-name="Z" unicode="Z" horiz-adv-x="648" 
d="M37 0v97l351 451q26 33 48 48v2h-240l-6 -93h-126l6 195h535v-102l-344 -446q-27 -35 -48 -48v-2h265l6 93h127l-8 -195h-566z" />
    <glyph glyph-name="bracketleft" unicode="[" horiz-adv-x="296" 
d="M72 -251v1020h219v-102h-79v-816h84v-102h-224z" />
    <glyph glyph-name="backslash" unicode="\" horiz-adv-x="352" 
d="M273 -84l-295 832l101 36l295 -832z" />
    <glyph glyph-name="bracketright" unicode="]" horiz-adv-x="296" 
d="M84 -149v816h-84v102h224v-1020h-219v102h79z" />
    <glyph glyph-name="asciicircum" unicode="^" horiz-adv-x="600" 
d="M430 335l-130 257l-130 -257h-108l178 365h120l178 -365h-108z" />
    <glyph glyph-name="underscore" unicode="_" horiz-adv-x="500" 
d="M0 -125v50h500v-50h-500z" />
    <glyph glyph-name="grave" unicode="`" 
d="M-31 753l71 70l217 -175l-75 -60z" />
    <glyph glyph-name="a" unicode="a" horiz-adv-x="593" 
d="M373 308v25q0 57 -23.5 78.5t-75.5 21.5q-47 0 -87 -15v-70h-120v133q97 54 209 54t170.5 -46t58.5 -155q0 -47 -5 -232h59v-102h-176v32q0 44 7 72h-2q-27 -61 -66.5 -88.5t-104.5 -27.5q-84 0 -129.5 43.5t-45.5 108.5q0 53 30 90.5t75 53.5q67 24 226 24zM371 222h-39
q-82 0 -116 -17t-34 -52q0 -26 19.5 -44.5t57.5 -18.5q47 0 79.5 32.5t32.5 99.5z" />
    <glyph glyph-name="b" unicode="b" horiz-adv-x="611" 
d="M59 32v635h-80v102h220v-205q0 -38 -10 -140h2q48 111 177 111q89 0 145.5 -62.5t56.5 -176.5q0 -57 -15 -109t-47 -98t-91 -73.5t-139 -27.5q-65 0 -128 13.5t-91 30.5zM196 289v-168q36 -19 89 -19q71 0 108 51t37 127q0 61 -26.5 101t-86.5 40q-64 0 -92.5 -38
t-28.5 -94z" />
    <glyph glyph-name="c" unicode="c" horiz-adv-x="500" 
d="M351 357v70q-29 6 -48 6q-64 0 -98 -48t-34 -109q0 -74 41 -124t125 -50q68 0 131 29l-8 -118q-67 -25 -157 -25q-129 0 -200.5 77.5t-71.5 195.5q0 126 74.5 200t200.5 74q85 0 165 -25v-153h-120z" />
    <glyph glyph-name="d" unicode="d" horiz-adv-x="648" 
d="M409 523v144h-80v102h220v-667h60v-102h-197q0 52 12 101h-2q-50 -113 -178 -113q-91 0 -152 63.5t-61 175.5q0 57 15 109t47 98t91 73.5t139 27.5q44 0 86 -12zM405 254v148q-36 19 -89 19q-71 0 -105 -46.5t-34 -114.5q0 -64 29 -108t78 -44q54 0 87.5 42t33.5 104z
" />
    <glyph glyph-name="e" unicode="e" horiz-adv-x="574" 
d="M547 230h-364q3 -62 47.5 -98t118.5 -36q84 0 169 36l-7 -111q-89 -33 -193 -33q-143 0 -215 76.5t-72 194.5q0 124 71 200t192 76q128 0 190.5 -84.5t62.5 -220.5zM182 326h213q0 54 -28.5 83.5t-77.5 29.5q-47 0 -74.5 -29.5t-32.5 -83.5z" />
    <glyph glyph-name="f" unicode="f" horiz-adv-x="352" 
d="M88 102v319h-72v102h72v56q0 103 56.5 154t174.5 51q46 0 100 -11v-102q-30 11 -66 11q-66 0 -95.5 -26t-29.5 -79v-54h110v-102h-110v-319h75v-102h-275v102h60z" />
    <glyph glyph-name="g" unicode="g" horiz-adv-x="593" 
d="M573 523v-96h-90q34 -43 34 -101q0 -87 -63 -133.5t-157 -46.5h-50q-13 0 -23.5 -8t-10.5 -20q0 -24 37 -28l173 -19q70 -8 105 -40.5t35 -97.5q0 -32 -13.5 -63.5t-43 -62.5t-86.5 -50.5t-133 -19.5q-144 0 -204 41t-60 99q0 91 115 118v2q-36 8 -53.5 26t-17.5 52
q0 36 29 57.5t72 29.5v2q-131 42 -131 173q0 91 64 144.5t171 53.5q38 0 110 -12h191zM169 337q0 -41 29.5 -65t81.5 -24q60 0 88.5 27.5t28.5 66.5q0 41 -32 66t-80 25q-50 0 -83 -23.5t-33 -72.5zM362 -47l-149 16q-23 -8 -40.5 -24t-17.5 -37q0 -69 141 -69q52 0 93.5 19
t41.5 53q0 22 -15 30t-54 12z" />
    <glyph glyph-name="h" unicode="h" horiz-adv-x="685" 
d="M96 102v565h-80v102h217v-246q0 -70 -8 -108h2q20 54 67.5 87t113.5 33q91 0 136 -53.5t45 -150.5v-229h60v-102h-257v102h57v215q0 98 -91 98q-61 0 -91.5 -38t-30.5 -101v-174h60v-102h-257v102h57z" />
    <glyph glyph-name="i" unicode="i" 
d="M96 102v319h-68v102h208v-421h60v-102h-257v102h57zM67 697q0 39 25.5 63t68.5 24t68.5 -24t25.5 -63t-25.5 -63t-68.5 -24t-68.5 24t-25.5 63z" />
    <glyph glyph-name="j" unicode="j" horiz-adv-x="333" 
d="M28 421v102h208v-409q0 -186 -73.5 -275t-222.5 -102l-16 111q95 19 133.5 85.5t38.5 192.5v295h-68zM67 697q0 39 25.5 63t68.5 24t68.5 -24t25.5 -63t-25.5 -63t-68.5 -24t-68.5 24t-25.5 63z" />
    <glyph glyph-name="k" unicode="k" horiz-adv-x="630" 
d="M48 0v102h57v565h-80v102h220v-469l140 107q12 9 21 12v2h-72v102h266v-102h-46l-163 -130l175 -189h58v-102h-278v102h55v2q-21 13 -44 37l-112 125v-164h48v-102h-245z" />
    <glyph glyph-name="l" unicode="l" horiz-adv-x="314" 
d="M87 102v565h-80v102h220v-667h60v-102h-257v102h57z" />
    <glyph glyph-name="m" unicode="m" horiz-adv-x="1018" 
d="M730 0v102h51v215q0 98 -91 98q-51 0 -81 -38t-30 -101v-174h60v-102h-251v102h51v215q0 98 -91 98q-54 0 -82.5 -38.5t-28.5 -100.5v-174h60v-102h-257v102h57v319h-68v102h205q0 -70 -8 -106h2q22 57 69 87.5t112 30.5q133 0 154 -118h2q40 118 175 118q91 0 136 -53.5
t45 -150.5v-229h60v-102h-251z" />
    <glyph glyph-name="n" unicode="n" horiz-adv-x="685" 
d="M96 102v319h-68v102h205q0 -70 -8 -108h2q20 54 67.5 87t113.5 33q91 0 136 -53.5t45 -150.5v-229h60v-102h-257v102h57v215q0 98 -91 98q-61 0 -91.5 -38t-30.5 -101v-174h60v-102h-251v102h51z" />
    <glyph glyph-name="o" unicode="o" horiz-adv-x="612" 
d="M31 256q0 117 75.5 198t199.5 81q133 0 204 -71.5t71 -207.5q0 -118 -75.5 -193t-199.5 -75q-128 0 -201.5 68.5t-73.5 199.5zM183 253q0 -151 123 -151t123 151q0 85 -29.5 126.5t-93.5 41.5q-62 0 -92.5 -46t-30.5 -122z" />
    <glyph glyph-name="p" unicode="p" horiz-adv-x="648" 
d="M88 -149v570h-80v102h218q1 -33 -9 -99h2q50 111 178 111q89 0 145.5 -62.5t56.5 -176.5q0 -57 -15 -109t-47 -98t-91 -73.5t-139 -27.5q-39 0 -79 9v-146h60v-102h-257v102h57zM225 289v-173q38 -14 89 -14q71 0 108 51t37 127q0 61 -26.5 101t-86.5 40q-64 0 -92.5 -38
t-28.5 -94z" />
    <glyph glyph-name="q" unicode="q" horiz-adv-x="648" 
d="M414 -149v95q0 97 11 153h-2q-23 -57 -62 -84t-106 -27q-93 0 -152.5 64t-59.5 175q0 57 17 109t51 98t95.5 73.5t141.5 27.5q108 0 206 -44v-640h62v-102h-258v102h56zM417 254v148q-36 19 -89 19q-71 0 -105 -46.5t-34 -114.5q0 -64 29 -108t78 -44q54 0 87.5 42
t33.5 104z" />
    <glyph glyph-name="r" unicode="r" horiz-adv-x="426" 
d="M105 102v319h-68v102h203q0 -57 -9 -120h2q31 132 150 132q16 0 46 -6l-9 -125q-25 5 -45 5q-58 0 -94 -37t-36 -101v-169h66v-102h-263v102h57z" />
    <glyph glyph-name="s" unicode="s" horiz-adv-x="537" 
d="M346 371v53q-42 15 -81 15q-46 0 -70 -16t-24 -39q0 -20 9 -28.5t38 -12.5l110 -16q90 -13 130 -50t40 -108q0 -78 -60 -129.5t-187 -51.5q-114 0 -206 33v147h126v-61q49 -17 93 -17q14 0 29 2.5t32.5 8.5t29 20t11.5 33q0 22 -17 34t-62 19l-118 18q-130 20 -130 139
q0 46 20.5 80.5t54.5 53.5t73 28t82 9q99 0 203 -35v-129h-126z" />
    <glyph glyph-name="t" unicode="t" horiz-adv-x="370" 
d="M96 523v108l140 8v-116h140v-102h-140v-233q0 -55 16.5 -73.5t60.5 -18.5q26 0 68 16l-5 -99q-72 -25 -122 -25q-77 0 -117.5 35.5t-40.5 104.5v293h-71v102h71z" />
    <glyph glyph-name="u" unicode="u" horiz-adv-x="667" 
d="M368 421v102h206v-421h61v-102h-196q0 83 13 108h-2q-48 -120 -181 -120q-87 0 -131.5 48.5t-44.5 134.5v250h-70v102h210v-293q0 -65 17 -96.5t75 -31.5q47 0 78 35.5t31 95.5v188h-66z" />
    <glyph glyph-name="v" unicode="v" horiz-adv-x="593" 
d="M351 421v102h250v-102h-48l-179 -421h-152l-182 421h-48v102h258v-102h-49l95 -258q7 -19 10 -43h2q3 24 10 43l92 258h-59z" />
    <glyph glyph-name="w" unicode="w" horiz-adv-x="926" 
d="M674 421v102h250v-102h-48l-181 -421h-146l-70 181q-10 26 -12 45h-2q-4 -26 -13 -45l-79 -181h-146l-176 421h-49v102h250v-102h-49q11 -19 25 -58l64 -177q11 -30 16 -60h2q4 16 23 61l78 174l-24 60h-56v102h254v-102h-54q11 -19 25 -58l65 -177q10 -26 16 -60h2
q6 34 16 60l63 177q14 39 25 58h-69z" />
    <glyph glyph-name="x" unicode="x" horiz-adv-x="648" 
d="M372 421v102h232v-102h-53l-151 -143l165 -176h55v-102h-275v102h57v2q-11 4 -22 15l-70 74l-80 -74q-11 -11 -22 -15v-2h61v-102h-241v102h53l167 156l-154 163h-57v102h276v-102h-55v-2q13 -7 31 -25l50 -53l57 53q18 18 31 25v2h-55z" />
    <glyph glyph-name="y" unicode="y" horiz-adv-x="611" 
d="M367 421v102h234v-102h-48l-161 -432q-55 -148 -110.5 -200t-154.5 -52q-24 0 -76 12v108q45 -12 76 -12q44 0 69 23t62 97l-200 456h-48v102h260v-102h-54q10 -12 19 -36l66 -178q18 -49 24 -99h2q6 50 24 99l62 178q9 24 19 36h-65z" />
    <glyph glyph-name="z" unicode="z" horiz-adv-x="556" 
d="M40 0v102l274 296q13 15 26 21v2h-163l-4 -69h-120l4 171h454v-101l-271 -296q-15 -17 -29 -22v-2h180l2 73h123l-8 -175h-468z" />
    <glyph glyph-name="braceleft" unicode="{" horiz-adv-x="296" 
d="M0 221v76q36 1 57 34.5t21 81.5v207q0 70 39.5 109.5t101.5 39.5h81v-74h-27q-31 0 -43 -20t-12 -58v-204q0 -61 -28.5 -100.5t-75.5 -52.5v-2q47 -13 75.5 -52.5t28.5 -100.5v-204q0 -38 12 -58t43 -20h27v-74h-81q-62 0 -101.5 39.5t-39.5 109.5v207q0 48 -21 81.5
t-57 34.5z" />
    <glyph glyph-name="bar" unicode="|" horiz-adv-x="222" 
d="M57 -250v1000h108v-1000h-108z" />
    <glyph glyph-name="braceright" unicode="}" horiz-adv-x="296" 
d="M296 297v-76q-36 -1 -57 -34.5t-21 -81.5v-207q0 -70 -39.5 -109.5t-101.5 -39.5h-81v74h27q31 0 43 20t12 58v204q0 61 28.5 100.5t75.5 52.5v2q-47 13 -75.5 52.5t-28.5 100.5v204q0 38 -12 58t-43 20h-27v74h81q62 0 101.5 -39.5t39.5 -109.5v-207q0 -48 21 -81.5
t57 -34.5z" />
    <glyph glyph-name="asciitilde" unicode="~" horiz-adv-x="600" 
d="M105 160l-36 96q41 85 125 85q42 0 116 -34q76 -34 97 -34q40 0 88 73l36 -96q-41 -85 -125 -85q-41 0 -116.5 34t-96.5 34q-40 0 -88 -73z" />
    <glyph glyph-name="uni00A0" unicode="&#xa0;" horiz-adv-x="296" 
 />
    <glyph glyph-name="exclamdown" unicode="&#xa1;" horiz-adv-x="296" 
d="M69 -236l12 545h134l12 -545h-158zM54 460q0 39 25 64.5t69 25.5t69 -25.5t25 -64.5q0 -43 -26.5 -66.5t-67.5 -23.5t-67.5 23.5t-26.5 66.5z" />
    <glyph glyph-name="cent" unicode="&#xa2;" horiz-adv-x="592" 
d="M285 -135v128q-114 14 -174 83t-60 185q0 48 12.5 91t38.5 81.5t73 65.5t110 36v95h96v-95q92 -4 160 -33v-147h-108v61q-21 11 -52 11v-325q85 0 147 31l-7 -120q-52 -20 -140 -25v-123h-96zM285 113v310q-45 -11 -69.5 -53t-24.5 -100q0 -60 24.5 -101.5t69.5 -55.5z
" />
    <glyph glyph-name="sterling" unicode="&#xa3;" horiz-adv-x="592" 
d="M452 102v123h120v-225h-541v102h78q21 55 21 127q0 44 -5 79h-92v102h86q-3 29 -3 71q0 236 280 236q78 0 176 -25v-211h-121v118q-30 10 -68 10q-59 0 -93 -33.5t-34 -94.5q0 -5 3 -71h127v-102h-121q5 -55 5 -66q0 -84 -31 -140h213z" />
    <glyph glyph-name="currency" unicode="&#xa4;" horiz-adv-x="592" 
d="M440 552l59 59l62 -62l-60 -60q43 -61 43 -139t-43 -139l60 -60l-62 -62l-59 59q-65 -46 -144 -46t-144 46l-59 -59l-62 62l60 60q-43 61 -43 139t43 139l-60 60l62 62l59 -59q65 46 144 46t144 -46zM436 350q0 65 -40.5 105.5t-99.5 40.5t-99.5 -40.5t-40.5 -105.5
t40.5 -105.5t99.5 -40.5t99.5 40.5t40.5 105.5z" />
    <glyph glyph-name="yen" unicode="&#xa5;" horiz-adv-x="592" 
d="M189 0v102h49v67h-160v86h160v24l-17 29h-143v86h93l-119 204h-44v102h222v-102h-45q16 -20 30 -45l94 -170l98 171q13 21 31 44h-56v102h202v-102h-44l-119 -204h94v-86h-143l-17 -29v-24h160v-86h-160v-67h50v-102h-216z" />
    <glyph glyph-name="brokenbar" unicode="&#xa6;" horiz-adv-x="222" 
d="M57 -175v350h108v-350h-108zM57 325v350h108v-350h-108z" />
    <glyph glyph-name="section" unicode="&#xa7;" horiz-adv-x="592" 
d="M381 529v68q-31 13 -71 13q-42 0 -73 -17.5t-31 -48.5q0 -24 14 -36t61 -31l87 -35q38 -15 61.5 -27.5t51 -32.5t41 -46.5t13.5 -59.5q0 -100 -95 -150q88 -45 88 -138q0 -83 -66 -139t-188 -56q-117 0 -217 40v155h132v-69q43 -18 94 -18q43 0 74 17.5t31 52.5
q0 24 -19 38.5t-94 44.5l-87 35q-74 30 -102.5 61.5t-28.5 86.5q0 104 98 155q-47 25 -68 53.5t-21 84.5q0 92 70 137t179 45q54 0 111 -13t81 -26v-144h-126zM291 188l70 -25q48 27 48 75q0 22 -16 39t-59 34l-93 38q-53 -30 -53 -78q0 -30 21.5 -46t81.5 -37z" />
    <glyph glyph-name="dieresis" unicode="&#xa8;" 
d="M-38 700q0 37 24 60.5t64 23.5t64 -23.5t24 -60.5t-24 -60.5t-64 -23.5t-64 23.5t-24 60.5zM194 700q0 37 24 60.5t64 23.5t64 -23.5t24 -60.5t-24 -60.5t-64 -23.5t-64 23.5t-24 60.5z" />
    <glyph glyph-name="copyright" unicode="&#xa9;" horiz-adv-x="800" 
d="M507 287h84q-14 -72 -64.5 -113.5t-122.5 -41.5q-89 0 -143 59.5t-54 159.5t55.5 159t148.5 59q69 0 116.5 -39.5t57.5 -110.5h-78q-15 76 -98 76q-55 0 -86.5 -40.5t-31.5 -103.5q0 -65 32.5 -105t89.5 -40q37 0 63.5 21.5t30.5 59.5zM38 350q0 150 106 256t256 106
t256 -106t106 -256t-106 -256t-256 -106t-256 106t-106 256zM128 350q0 -123 78.5 -202.5t193.5 -79.5t193.5 79.5t78.5 202.5t-78.5 202.5t-193.5 79.5t-193.5 -79.5t-78.5 -202.5z" />
    <glyph glyph-name="ordfeminine" unicode="&#xaa;" horiz-adv-x="385" 
d="M243 585v4q0 34 -14.5 47t-46.5 13q-20 0 -54 -9v-35h-84v80q73 32 137 32q76 0 114 -27.5t38 -93.5q0 -27 -2 -72.5t-2 -57.5h37v-68h-114q0 8 1 29.5t2 31.5h-2q-28 -69 -107 -69q-57 0 -87.5 26.5t-30.5 66.5q0 62 70 87q44 15 145 15zM124 488q0 -30 48 -30
q30 0 50.5 17.5t20.5 53.5q-69 0 -94 -8.5t-25 -32.5z" />
    <glyph glyph-name="guillemotleft" unicode="&#xab;" horiz-adv-x="556" 
d="M31 259v78l135 158l99 -83l-103 -114l103 -114l-99 -83zM291 259v78l135 158l99 -83l-103 -114l103 -114l-99 -83z" />
    <glyph glyph-name="logicalnot" unicode="&#xac;" horiz-adv-x="600" 
d="M445 103v192h-398v108h506v-300h-108z" />
    <glyph glyph-name="uni00AD" unicode="&#xad;" horiz-adv-x="426" 
d="M67 238v120h292v-120h-292z" />
    <glyph glyph-name="registered" unicode="&#xae;" horiz-adv-x="800" 
d="M483 143l-105 174h-61v-174h-72v414h160q78 0 116.5 -28.5t38.5 -90.5q0 -98 -106 -118l113 -177h-84zM317 379h75q55 0 75.5 14.5t20.5 47.5q0 54 -94 54h-77v-116zM38 350q0 150 106 256t256 106t256 -106t106 -256t-106 -256t-256 -106t-256 106t-106 256zM672 350
q0 123 -78.5 202.5t-193.5 79.5t-193.5 -79.5t-78.5 -202.5t78.5 -202.5t193.5 -79.5t193.5 79.5t78.5 202.5z" />
    <glyph glyph-name="macron" unicode="&#xaf;" 
d="M7 654v102h318v-102h-318z" />
    <glyph glyph-name="degree" unicode="&#xb0;" horiz-adv-x="400" 
d="M57 574q0 59 42 101t101 42t101 -42t42 -101t-42 -101t-101 -42t-101 42t-42 101zM259 574q0 29 -16 46t-43 17t-43 -17t-16 -46t16 -46t43 -17t43 17t16 46z" />
    <glyph glyph-name="plusminus" unicode="&#xb1;" horiz-adv-x="600" 
d="M246 375v131h108v-131h199v-108h-199v-131h-108v131h-199v108h199zM47 0v108h506v-108h-506z" />
    <glyph glyph-name="two.superior" unicode="&#xb2;" horiz-adv-x="385" 
d="M12 284v70q25 16 57.5 39.5t74 58t69.5 70.5t28 62t-18 39.5t-42 13.5q-30 0 -47.5 -20.5t-17.5 -51.5h-102q0 23 8.5 47t26.5 49t54 40.5t84 15.5q66 0 114 -30t48 -93q0 -108 -187 -233l2 -2q27 5 46 5h149v-80h-347z" />
    <glyph glyph-name="three.superior" unicode="&#xb3;" horiz-adv-x="385" 
d="M113 468v68q111 0 111 62q0 18 -13.5 28.5t-37.5 10.5q-25 0 -42.5 -16.5t-17.5 -39.5h-102q0 54 44.5 95t126.5 41q66 0 108 -29t42 -77q0 -39 -26 -68t-67 -34v-2q47 -1 79 -27t32 -74q0 -21 -7.5 -40.5t-26.5 -42t-60.5 -36t-100.5 -13.5q-85 0 -144 25v95
q69 -34 133 -34q98 0 98 53q0 55 -129 55z" />
    <glyph glyph-name="acute" unicode="&#xb4;" 
d="M292 823l71 -70l-213 -165l-75 60z" />
    <glyph glyph-name="mu" unicode="&#xb5;" horiz-adv-x="667" 
d="M368 421v102h206v-421h61v-102h-196q0 83 13 108h-2q-24 -60 -64 -90t-87 -30q-36 0 -64 23h-2v-262h-140v672h-70v102h210v-293q0 -65 17 -96.5t75 -31.5q47 0 78 35.5t31 95.5v188h-66z" />
    <glyph glyph-name="paragraph" unicode="&#xb6;" horiz-adv-x="600" 
d="M393 -195v827h-88v-827h-102v522q-78 0 -133 52t-55 131q0 190 233 190h247v-895h-102z" />
    <glyph glyph-name="periodcentered" unicode="&#xb7;" horiz-adv-x="296" 
d="M64 266q0 34 25 59t59 25t59 -25t25 -59t-25 -59t-59 -25t-59 25t-25 59z" />
    <glyph glyph-name="cedilla" unicode="&#xb8;" 
d="M116 -104v108h90v-64q60 0 83.5 -25t23.5 -60q0 -48 -42.5 -77t-110.5 -29q-49 0 -111 15l4 73q40 -14 73 -14q31 0 49 10.5t18 27.5q0 18 -16 26.5t-61 8.5z" />
    <glyph glyph-name="one.superior" unicode="&#xb9;" horiz-adv-x="385" 
d="M162 352v261q-3 -2 -11.5 -8.5t-14.5 -9.5l-72 -42l-37 62l163 89h74v-352h85v-68h-272v68h85z" />
    <glyph glyph-name="ordmasculine" unicode="&#xba;" horiz-adv-x="385" 
d="M14 553q0 75 48 119.5t131 44.5q82 0 130 -44.5t48 -119.5q0 -80 -47.5 -121.5t-130.5 -41.5q-84 0 -131.5 41.5t-47.5 121.5zM122 553q0 -40 18.5 -64.5t52.5 -24.5t52 24.5t18 64.5t-18 65t-52 25t-52.5 -25t-18.5 -65z" />
    <glyph glyph-name="guillemotright" unicode="&#xbb;" horiz-adv-x="556" 
d="M134 298l-103 114l99 83l135 -158v-78l-135 -158l-99 83zM394 298l-103 114l99 83l135 -158v-78l-135 -158l-99 83z" />
    <glyph glyph-name="onequarter" unicode="&#xbc;" horiz-adv-x="889" 
d="M694 184v144h-2l-107 -147q13 3 27 3h82zM694 68v42h-206v68l181 242h127v-236h70v-74h-70v-42h44v-68h-190v68h44zM190 -14l421 772l86 -44l-421 -772zM138 352v261q-3 -2 -11.5 -8.5t-14.5 -9.5l-72 -42l-37 62l163 89h74v-352h85v-68h-272v68h85z" />
    <glyph glyph-name="onehalf" unicode="&#xbd;" horiz-adv-x="889" 
d="M173 -14l421 772l86 -44l-421 -772zM138 352v261q-3 -2 -11.5 -8.5t-14.5 -9.5l-72 -42l-37 62l163 89h74v-352h85v-68h-272v68h85zM506 0v70q25 16 57.5 39.5t74 58t69.5 70.5t28 62t-18 39.5t-42 13.5q-30 0 -47.5 -20.5t-17.5 -51.5h-102q0 54 35 96q45 56 138 56
q66 0 114 -30t48 -93q0 -108 -187 -233l2 -2q27 5 46 5h149v-80h-347z" />
    <glyph glyph-name="threequarters" unicode="&#xbe;" horiz-adv-x="889" 
d="M694 184v144h-2l-107 -147q13 3 27 3h82zM694 68v42h-206v68l181 242h127v-236h70v-74h-70v-42h44v-68h-190v68h44zM121 468v68q111 0 111 62q0 18 -13.5 28.5t-37.5 10.5q-25 0 -42.5 -16.5t-17.5 -39.5h-102q0 54 44.5 95t126.5 41q66 0 108 -29t42 -77q0 -39 -26 -68
t-67 -34v-2q47 -1 79 -27t32 -74q0 -21 -7.5 -40.5t-26.5 -42t-60.5 -36t-100.5 -13.5q-85 0 -144 25v95q69 -34 133 -34q98 0 98 53q0 55 -129 55zM190 -14l421 772l86 -44l-421 -772z" />
    <glyph glyph-name="questiondown" unicode="&#xbf;" horiz-adv-x="481" 
d="M213 289l126 37q36 -50 36 -99q0 -40 -24.5 -70t-59.5 -49l-70 -38t-59.5 -48.5t-24.5 -67.5q0 -45 35.5 -68t89.5 -23q60 0 125 19l5 -111q-95 -22 -160 -22q-71 0 -122.5 19t-77 49t-36.5 59.5t-11 58.5q0 49 18.5 88t46.5 61.5t60 43.5t60 35t46.5 33t18.5 41
q0 19 -22 52zM195 460q0 39 25 64.5t69 25.5t69 -25.5t25 -64.5q0 -43 -26.5 -66.5t-67.5 -23.5t-67.5 23.5t-26.5 66.5z" />
    <glyph glyph-name="Agrave" unicode="&#xc0;" horiz-adv-x="778" 
d="M461 344l-50 146q-20 56 -26 102h-2q-10 -46 -31 -102l-54 -146h163zM543 102l-45 134h-241l-50 -134h67v-102h-260v102h56l246 598h161l231 -598h56v-102h-278v102h57zM192 900l71 70l217 -175l-75 -60z" />
    <glyph glyph-name="Aacute" unicode="&#xc1;" horiz-adv-x="778" 
d="M461 344l-50 146q-20 56 -26 102h-2q-10 -46 -31 -102l-54 -146h163zM543 102l-45 134h-241l-50 -134h67v-102h-260v102h56l246 598h161l231 -598h56v-102h-278v102h57zM515 970l71 -70l-213 -165l-75 60z" />
    <glyph glyph-name="Acircumflex" unicode="&#xc2;" horiz-adv-x="778" 
d="M461 344l-50 146q-20 56 -26 102h-2q-10 -46 -31 -102l-54 -146h163zM543 102l-45 134h-241l-50 -134h67v-102h-260v102h56l246 598h161l231 -598h56v-102h-278v102h57zM532 751l-143 112l-143 -112l-81 66l181 139h86l181 -139z" />
    <glyph glyph-name="Atilde" unicode="&#xc3;" horiz-adv-x="778" 
d="M461 344l-50 146q-20 56 -26 102h-2q-10 -46 -31 -102l-54 -146h163zM543 102l-45 134h-241l-50 -134h67v-102h-260v102h56l246 598h161l231 -598h56v-102h-278v102h57zM269 778l-85 41q20 49 56 78.5t82 29.5q35 0 78.5 -26t61.5 -26t29.5 8.5t30.5 35.5l72 -51
q-50 -95 -129 -95q-29 0 -76.5 27.5t-64.5 27.5q-29 0 -55 -50z" />
    <glyph glyph-name="Adieresis" unicode="&#xc4;" horiz-adv-x="778" 
d="M461 344l-50 146q-20 56 -26 102h-2q-10 -46 -31 -102l-54 -146h163zM543 102l-45 134h-241l-50 -134h67v-102h-260v102h56l246 598h161l231 -598h56v-102h-278v102h57zM185 847q0 37 24 60.5t64 23.5t64 -23.5t24 -60.5t-24 -60.5t-64 -23.5t-64 23.5t-24 60.5zM417 847
q0 37 24 60.5t64 23.5t64 -23.5t24 -60.5t-24 -60.5t-64 -23.5t-64 23.5t-24 60.5z" />
    <glyph glyph-name="Aring" unicode="&#xc5;" horiz-adv-x="778" 
d="M461 344l-50 146q-20 56 -26 102h-2q-10 -46 -31 -102l-54 -146h163zM543 102l-45 134h-241l-50 -134h67v-102h-260v102h56l246 598h161l231 -598h56v-102h-278v102h57zM270 830q0 47 33 77.5t86 30.5t86 -30.5t33 -77.5t-33 -77.5t-86 -30.5t-86 30.5t-33 77.5zM430 830
q0 24 -11 38t-30 14t-30 -14t-11 -38t11 -38t30 -14t30 14t11 38z" />
    <glyph glyph-name="AE" unicode="&#xc6;" horiz-adv-x="1019" 
d="M849 102l8 118h120l-8 -220h-509v102h68v190h-219l-98 -190h68v-102h-265v102h51l339 598h544l6 -206h-120l-6 104h-154v-204h158v-102h-158v-190h175zM528 394v204h-62l-105 -204h167z" />
    <glyph glyph-name="Ccedilla" unicode="&#xc7;" horiz-adv-x="685" 
d="M510 112l6 127h126l-6 -216q-90 -30 -193 -35v-48q60 0 83.5 -25t23.5 -60q0 -48 -42.5 -77t-110.5 -29q-49 0 -111 15l4 73q40 -14 73 -14q31 0 49 10.5t18 27.5q0 18 -16 26.5t-61 8.5v94q-150 16 -234.5 110.5t-84.5 244.5q0 73 23.5 138t69 116.5t119.5 82t168 30.5
q115 0 231 -41v-195h-126v112q-47 16 -99 16q-117 0 -172.5 -71.5t-55.5 -178.5q0 -44 11 -84.5t35.5 -80.5t73 -63.5t116.5 -23.5q51 0 82 10z" />
    <glyph glyph-name="Egrave" unicode="&#xc8;" horiz-adv-x="593" 
d="M423 102l8 118h120l-8 -220h-503v102h63v496h-75v102h512l6 -206h-120l-6 104h-171v-184h176v-108h-176v-204h174zM100 900l71 70l217 -175l-75 -60z" />
    <glyph glyph-name="Eacute" unicode="&#xc9;" horiz-adv-x="593" 
d="M423 102l8 118h120l-8 -220h-503v102h63v496h-75v102h512l6 -206h-120l-6 104h-171v-184h176v-108h-176v-204h174zM423 970l71 -70l-213 -165l-75 60z" />
    <glyph glyph-name="Ecircumflex" unicode="&#xca;" horiz-adv-x="593" 
d="M423 102l8 118h120l-8 -220h-503v102h63v496h-75v102h512l6 -206h-120l-6 104h-171v-184h176v-108h-176v-204h174zM440 751l-143 112l-143 -112l-81 66l181 139h86l181 -139z" />
    <glyph glyph-name="Edieresis" unicode="&#xcb;" horiz-adv-x="593" 
d="M423 102l8 118h120l-8 -220h-503v102h63v496h-75v102h512l6 -206h-120l-6 104h-171v-184h176v-108h-176v-204h174zM93 847q0 37 24 60.5t64 23.5t64 -23.5t24 -60.5t-24 -60.5t-64 -23.5t-64 23.5t-24 60.5zM325 847q0 37 24 60.5t64 23.5t64 -23.5t24 -60.5t-24 -60.5
t-64 -23.5t-64 23.5t-24 60.5z" />
    <glyph glyph-name="Igrave" unicode="&#xcc;" horiz-adv-x="352" 
d="M103 102v496h-63v102h272v-102h-63v-496h63v-102h-272v102h63zM-21 900l71 70l217 -175l-75 -60z" />
    <glyph glyph-name="Iacute" unicode="&#xcd;" horiz-adv-x="352" 
d="M103 102v496h-63v102h272v-102h-63v-496h63v-102h-272v102h63zM302 970l71 -70l-213 -165l-75 60z" />
    <glyph glyph-name="Icircumflex" unicode="&#xce;" horiz-adv-x="352" 
d="M103 102v496h-63v102h272v-102h-63v-496h63v-102h-272v102h63zM319 751l-143 112l-143 -112l-81 66l181 139h86l181 -139z" />
    <glyph glyph-name="Idieresis" unicode="&#xcf;" horiz-adv-x="352" 
d="M103 102v496h-63v102h272v-102h-63v-496h63v-102h-272v102h63zM-28 847q0 37 24 60.5t64 23.5t64 -23.5t24 -60.5t-24 -60.5t-64 -23.5t-64 23.5t-24 60.5zM204 847q0 37 24 60.5t64 23.5t64 -23.5t24 -60.5t-24 -60.5t-64 -23.5t-64 23.5t-24 60.5z" />
    <glyph glyph-name="Eth" unicode="&#xd0;" horiz-adv-x="759" 
d="M103 102v210h-75v102h75v184h-75v102h327q178 0 276.5 -86t98.5 -249q0 -165 -99 -265t-268 -100h-335v102h75zM249 102h85q100 0 169 63t69 196q0 65 -19 112t-53 74t-75.5 39t-92.5 12h-83v-184h149v-102h-149v-210z" />
    <glyph glyph-name="Ntilde" unicode="&#xd1;" horiz-adv-x="796" 
d="M38 0v102h65v496h-89v102h203l295 -371q48 -60 59 -94h2v363h-64v102h253v-102h-69v-598h-108l-333 418q-29 36 -33 54h-2v-370h68v-102h-247zM278 778l-85 41q20 49 56 78.5t82 29.5q35 0 78.5 -26t61.5 -26t29.5 8.5t30.5 35.5l72 -51q-50 -95 -129 -95
q-29 0 -76.5 27.5t-64.5 27.5q-29 0 -55 -50z" />
    <glyph glyph-name="Ograve" unicode="&#xd2;" horiz-adv-x="760" 
d="M34 350q0 151 93.5 256.5t252.5 105.5q171 0 258.5 -99.5t87.5 -262.5q0 -76 -20 -140t-60.5 -114.5t-108.5 -79t-157 -28.5t-157 28.5t-108.5 79t-60.5 114.5t-20 140zM192 350q0 -111 45.5 -179.5t142.5 -68.5t142.5 68.5t45.5 179.5q0 109 -47 178.5t-141 69.5
t-141 -69.5t-47 -178.5zM183 900l71 70l217 -175l-75 -60z" />
    <glyph glyph-name="Oacute" unicode="&#xd3;" horiz-adv-x="760" 
d="M34 350q0 151 93.5 256.5t252.5 105.5q171 0 258.5 -99.5t87.5 -262.5q0 -76 -20 -140t-60.5 -114.5t-108.5 -79t-157 -28.5t-157 28.5t-108.5 79t-60.5 114.5t-20 140zM192 350q0 -111 45.5 -179.5t142.5 -68.5t142.5 68.5t45.5 179.5q0 109 -47 178.5t-141 69.5
t-141 -69.5t-47 -178.5zM506 970l71 -70l-213 -165l-75 60z" />
    <glyph glyph-name="Ocircumflex" unicode="&#xd4;" horiz-adv-x="760" 
d="M34 350q0 151 93.5 256.5t252.5 105.5q171 0 258.5 -99.5t87.5 -262.5q0 -76 -20 -140t-60.5 -114.5t-108.5 -79t-157 -28.5t-157 28.5t-108.5 79t-60.5 114.5t-20 140zM192 350q0 -111 45.5 -179.5t142.5 -68.5t142.5 68.5t45.5 179.5q0 109 -47 178.5t-141 69.5
t-141 -69.5t-47 -178.5zM523 751l-143 112l-143 -112l-81 66l181 139h86l181 -139z" />
    <glyph glyph-name="Otilde" unicode="&#xd5;" horiz-adv-x="760" 
d="M34 350q0 151 93.5 256.5t252.5 105.5q171 0 258.5 -99.5t87.5 -262.5q0 -76 -20 -140t-60.5 -114.5t-108.5 -79t-157 -28.5t-157 28.5t-108.5 79t-60.5 114.5t-20 140zM192 350q0 -111 45.5 -179.5t142.5 -68.5t142.5 68.5t45.5 179.5q0 109 -47 178.5t-141 69.5
t-141 -69.5t-47 -178.5zM260 778l-85 41q20 49 56 78.5t82 29.5q35 0 78.5 -26t61.5 -26t29.5 8.5t30.5 35.5l72 -51q-50 -95 -129 -95q-29 0 -76.5 27.5t-64.5 27.5q-29 0 -55 -50z" />
    <glyph glyph-name="Odieresis" unicode="&#xd6;" horiz-adv-x="760" 
d="M34 350q0 151 93.5 256.5t252.5 105.5q171 0 258.5 -99.5t87.5 -262.5q0 -76 -20 -140t-60.5 -114.5t-108.5 -79t-157 -28.5t-157 28.5t-108.5 79t-60.5 114.5t-20 140zM192 350q0 -111 45.5 -179.5t142.5 -68.5t142.5 68.5t45.5 179.5q0 109 -47 178.5t-141 69.5
t-141 -69.5t-47 -178.5zM176 847q0 37 24 60.5t64 23.5t64 -23.5t24 -60.5t-24 -60.5t-64 -23.5t-64 23.5t-24 60.5zM408 847q0 37 24 60.5t64 23.5t64 -23.5t24 -60.5t-24 -60.5t-64 -23.5t-64 23.5t-24 60.5z" />
    <glyph glyph-name="multiply" unicode="&#xd7;" horiz-adv-x="600" 
d="M300 329l162 162l76 -76l-162 -162l162 -162l-76 -76l-162 162l-162 -162l-76 76l162 162l-162 162l76 76z" />
    <glyph glyph-name="Oslash" unicode="&#xd8;" horiz-adv-x="760" 
d="M228 187l238 391q-35 20 -86 20q-94 0 -141 -69.5t-47 -178.5q0 -100 36 -163zM531 511l-237 -390q38 -19 86 -19q97 0 142.5 68.5t45.5 179.5q0 99 -37 161zM77 -62l75 123q-118 94 -118 289q0 151 93.5 256.5t252.5 105.5q88 0 151 -28l75 124l77 -46l-74 -122
q117 -95 117 -290q0 -76 -20 -140t-60.5 -114.5t-108.5 -79t-157 -28.5q-88 0 -151 27l-75 -123z" />
    <glyph glyph-name="Ugrave" unicode="&#xd9;" horiz-adv-x="759" 
d="M459 598v102h272v-102h-63v-320q0 -160 -70 -225t-227 -65q-84 0 -140.5 17.5t-86 53.5t-41.5 79.5t-12 105.5v354h-63v102h272v-102h-63v-329q0 -83 31.5 -125t110.5 -42q77 0 117 36.5t40 130.5v329h-77zM183 900l71 70l217 -175l-75 -60z" />
    <glyph glyph-name="Uacute" unicode="&#xda;" horiz-adv-x="759" 
d="M459 598v102h272v-102h-63v-320q0 -160 -70 -225t-227 -65q-84 0 -140.5 17.5t-86 53.5t-41.5 79.5t-12 105.5v354h-63v102h272v-102h-63v-329q0 -83 31.5 -125t110.5 -42q77 0 117 36.5t40 130.5v329h-77zM506 970l71 -70l-213 -165l-75 60z" />
    <glyph glyph-name="Ucircumflex" unicode="&#xdb;" horiz-adv-x="759" 
d="M459 598v102h272v-102h-63v-320q0 -160 -70 -225t-227 -65q-84 0 -140.5 17.5t-86 53.5t-41.5 79.5t-12 105.5v354h-63v102h272v-102h-63v-329q0 -83 31.5 -125t110.5 -42q77 0 117 36.5t40 130.5v329h-77zM523 751l-143 112l-143 -112l-81 66l181 139h86l181 -139z" />
    <glyph glyph-name="Udieresis" unicode="&#xdc;" horiz-adv-x="759" 
d="M459 598v102h272v-102h-63v-320q0 -160 -70 -225t-227 -65q-84 0 -140.5 17.5t-86 53.5t-41.5 79.5t-12 105.5v354h-63v102h272v-102h-63v-329q0 -83 31.5 -125t110.5 -42q77 0 117 36.5t40 130.5v329h-77zM176 847q0 37 24 60.5t64 23.5t64 -23.5t24 -60.5t-24 -60.5
t-64 -23.5t-64 23.5t-24 60.5zM408 847q0 37 24 60.5t64 23.5t64 -23.5t24 -60.5t-24 -60.5t-64 -23.5t-64 23.5t-24 60.5z" />
    <glyph glyph-name="Yacute" unicode="&#xdd;" horiz-adv-x="741" 
d="M477 598v102h254v-102h-55l-232 -319v-177h63v-102h-271v102h62v176l-233 320h-55v102h278v-102h-56q23 -25 37 -45l116 -170l125 171q15 20 37 44h-70zM497 970l71 -70l-213 -165l-75 60z" />
    <glyph glyph-name="Thorn" unicode="&#xde;" horiz-adv-x="611" 
d="M109 102v496h-69v102h284v-102h-69v-40h74q128 0 192 -46t64 -143q0 -93 -63.5 -149t-168.5 -56h-98v-62h69v-102h-284v102h69zM255 266h79q111 0 111 95t-111 95h-79v-190z" />
    <glyph glyph-name="germandbls" unicode="&#xdf;" horiz-adv-x="759" 
d="M345 8v142h114v-51q38 -9 60 -9q77 0 77 56q0 21 -10.5 34t-43.5 24l-75 26q-70 24 -97.5 52t-27.5 82q0 35 17.5 65.5t43 51t50.5 39.5t42.5 40t17.5 43q0 37 -35 55t-83 18q-150 0 -150 -160v-414h66v-102h-263v102h57v319h-68v102h68q0 57 13.5 101t45 81.5t92 58
t147.5 20.5q113 0 177.5 -44t64.5 -116q0 -41 -17.5 -74t-42.5 -52.5t-50.5 -36t-43 -33.5t-17.5 -35q0 -21 25.5 -35.5t62 -26t73 -28t62 -52t25.5 -87.5q0 -74 -52.5 -125t-158.5 -51q-108 0 -166 20z" />
    <glyph glyph-name="agrave" unicode="&#xe0;" horiz-adv-x="593" 
d="M373 308v25q0 57 -23.5 78.5t-75.5 21.5q-47 0 -87 -15v-70h-120v133q97 54 209 54t170.5 -46t58.5 -155q0 -47 -5 -232h59v-102h-176v32q0 44 7 72h-2q-27 -61 -66.5 -88.5t-104.5 -27.5q-84 0 -129.5 43.5t-45.5 108.5q0 53 30 90.5t75 53.5q67 24 226 24zM371 222h-39
q-82 0 -116 -17t-34 -52q0 -26 19.5 -44.5t57.5 -18.5q47 0 79.5 32.5t32.5 99.5zM100 753l71 70l217 -175l-75 -60z" />
    <glyph glyph-name="aacute" unicode="&#xe1;" horiz-adv-x="593" 
d="M373 308v25q0 57 -23.5 78.5t-75.5 21.5q-47 0 -87 -15v-70h-120v133q97 54 209 54t170.5 -46t58.5 -155q0 -47 -5 -232h59v-102h-176v32q0 44 7 72h-2q-27 -61 -66.5 -88.5t-104.5 -27.5q-84 0 -129.5 43.5t-45.5 108.5q0 53 30 90.5t75 53.5q67 24 226 24zM371 222h-39
q-82 0 -116 -17t-34 -52q0 -26 19.5 -44.5t57.5 -18.5q47 0 79.5 32.5t32.5 99.5zM423 823l71 -70l-213 -165l-75 60z" />
    <glyph glyph-name="acircumflex" unicode="&#xe2;" horiz-adv-x="593" 
d="M373 308v25q0 57 -23.5 78.5t-75.5 21.5q-47 0 -87 -15v-70h-120v133q97 54 209 54t170.5 -46t58.5 -155q0 -47 -5 -232h59v-102h-176v32q0 44 7 72h-2q-27 -61 -66.5 -88.5t-104.5 -27.5q-84 0 -129.5 43.5t-45.5 108.5q0 53 30 90.5t75 53.5q67 24 226 24zM371 222h-39
q-82 0 -116 -17t-34 -52q0 -26 19.5 -44.5t57.5 -18.5q47 0 79.5 32.5t32.5 99.5zM440 604l-143 112l-143 -112l-81 66l181 139h86l181 -139z" />
    <glyph glyph-name="atilde" unicode="&#xe3;" horiz-adv-x="593" 
d="M373 308v25q0 57 -23.5 78.5t-75.5 21.5q-47 0 -87 -15v-70h-120v133q97 54 209 54t170.5 -46t58.5 -155q0 -47 -5 -232h59v-102h-176v32q0 44 7 72h-2q-27 -61 -66.5 -88.5t-104.5 -27.5q-84 0 -129.5 43.5t-45.5 108.5q0 53 30 90.5t75 53.5q67 24 226 24zM371 222h-39
q-82 0 -116 -17t-34 -52q0 -26 19.5 -44.5t57.5 -18.5q47 0 79.5 32.5t32.5 99.5zM177 631l-85 41q20 49 56 78.5t82 29.5q35 0 78.5 -26t61.5 -26t29.5 8.5t30.5 35.5l72 -51q-50 -95 -129 -95q-29 0 -76.5 27.5t-64.5 27.5q-29 0 -55 -50z" />
    <glyph glyph-name="adieresis" unicode="&#xe4;" horiz-adv-x="593" 
d="M373 308v25q0 57 -23.5 78.5t-75.5 21.5q-47 0 -87 -15v-70h-120v133q97 54 209 54t170.5 -46t58.5 -155q0 -47 -5 -232h59v-102h-176v32q0 44 7 72h-2q-27 -61 -66.5 -88.5t-104.5 -27.5q-84 0 -129.5 43.5t-45.5 108.5q0 53 30 90.5t75 53.5q67 24 226 24zM371 222h-39
q-82 0 -116 -17t-34 -52q0 -26 19.5 -44.5t57.5 -18.5q47 0 79.5 32.5t32.5 99.5zM93 700q0 37 24 60.5t64 23.5t64 -23.5t24 -60.5t-24 -60.5t-64 -23.5t-64 23.5t-24 60.5zM325 700q0 37 24 60.5t64 23.5t64 -23.5t24 -60.5t-24 -60.5t-64 -23.5t-64 23.5t-24 60.5z" />
    <glyph glyph-name="aring" unicode="&#xe5;" horiz-adv-x="593" 
d="M373 308v25q0 57 -23.5 78.5t-75.5 21.5q-47 0 -87 -15v-70h-120v133q97 54 209 54t170.5 -46t58.5 -155q0 -47 -5 -232h59v-102h-176v32q0 44 7 72h-2q-27 -61 -66.5 -88.5t-104.5 -27.5q-84 0 -129.5 43.5t-45.5 108.5q0 53 30 90.5t75 53.5q67 24 226 24zM371 222h-39
q-82 0 -116 -17t-34 -52q0 -26 19.5 -44.5t57.5 -18.5q47 0 79.5 32.5t32.5 99.5zM178 713q0 47 33 77.5t86 30.5t86 -30.5t33 -77.5t-33 -77.5t-86 -30.5t-86 30.5t-33 77.5zM338 713q0 24 -11 38t-30 14t-30 -14t-11 -38t11 -38t30 -14t30 14t11 38z" />
    <glyph glyph-name="ae" unicode="&#xe6;" horiz-adv-x="889" 
d="M64 354v143q86 38 191 38q159 0 194 -97q57 97 170 97q228 0 228 -305h-347q0 -134 171 -134q82 0 159 37l-7 -107q-75 -38 -184 -38q-174 0 -217 119h-2q-20 -64 -65.5 -91.5t-129.5 -27.5q-87 0 -135 44.5t-48 112.5q0 95 78.5 131t247.5 40q0 21 -0.5 32.5t-6 31.5
t-16 30.5t-31.5 19.5t-51 9q-31 0 -73 -12v-73h-126zM366 204v26h-30q-82 0 -118 -18.5t-36 -60.5q0 -24 17.5 -42.5t59.5 -18.5t74.5 28.5t32.5 85.5zM500 316h207q0 64 -32.5 93.5t-73.5 29.5q-52 0 -76.5 -34.5t-24.5 -88.5z" />
    <glyph glyph-name="ccedilla" unicode="&#xe7;" horiz-adv-x="500" 
d="M351 357v70q-29 6 -48 6q-64 0 -98 -48t-34 -109q0 -74 41 -124t125 -50q68 0 131 29l-8 -118q-59 -21 -123 -25v-48q60 0 83.5 -25t23.5 -60q0 -48 -42.5 -77t-110.5 -29q-49 0 -111 15l4 73q40 -14 73 -14q31 0 49 10.5t18 27.5q0 18 -16 26.5t-61 8.5v96
q-103 17 -159.5 91t-56.5 178q0 126 74.5 200t200.5 74q85 0 165 -25v-153h-120z" />
    <glyph glyph-name="egrave" unicode="&#xe8;" horiz-adv-x="574" 
d="M547 230h-364q3 -62 47.5 -98t118.5 -36q84 0 169 36l-7 -111q-89 -33 -193 -33q-143 0 -215 76.5t-72 194.5q0 124 71 200t192 76q128 0 190.5 -84.5t62.5 -220.5zM182 326h213q0 54 -28.5 83.5t-77.5 29.5q-47 0 -74.5 -29.5t-32.5 -83.5zM90 753l71 70l217 -175
l-75 -60z" />
    <glyph glyph-name="eacute" unicode="&#xe9;" horiz-adv-x="574" 
d="M547 230h-364q3 -62 47.5 -98t118.5 -36q84 0 169 36l-7 -111q-89 -33 -193 -33q-143 0 -215 76.5t-72 194.5q0 124 71 200t192 76q128 0 190.5 -84.5t62.5 -220.5zM182 326h213q0 54 -28.5 83.5t-77.5 29.5q-47 0 -74.5 -29.5t-32.5 -83.5zM413 823l71 -70l-213 -165
l-75 60z" />
    <glyph glyph-name="ecircumflex" unicode="&#xea;" horiz-adv-x="574" 
d="M547 230h-364q3 -62 47.5 -98t118.5 -36q84 0 169 36l-7 -111q-89 -33 -193 -33q-143 0 -215 76.5t-72 194.5q0 124 71 200t192 76q128 0 190.5 -84.5t62.5 -220.5zM182 326h213q0 54 -28.5 83.5t-77.5 29.5q-47 0 -74.5 -29.5t-32.5 -83.5zM430 604l-143 112l-143 -112
l-81 66l181 139h86l181 -139z" />
    <glyph glyph-name="edieresis" unicode="&#xeb;" horiz-adv-x="574" 
d="M547 230h-364q3 -62 47.5 -98t118.5 -36q84 0 169 36l-7 -111q-89 -33 -193 -33q-143 0 -215 76.5t-72 194.5q0 124 71 200t192 76q128 0 190.5 -84.5t62.5 -220.5zM182 326h213q0 54 -28.5 83.5t-77.5 29.5q-47 0 -74.5 -29.5t-32.5 -83.5zM83 700q0 37 24 60.5t64 23.5
t64 -23.5t24 -60.5t-24 -60.5t-64 -23.5t-64 23.5t-24 60.5zM315 700q0 37 24 60.5t64 23.5t64 -23.5t24 -60.5t-24 -60.5t-64 -23.5t-64 23.5t-24 60.5z" />
    <glyph glyph-name="igrave" unicode="&#xec;" 
d="M96 102v319h-68v102h208v-421h60v-102h-257v102h57zM-31 753l71 70l217 -175l-75 -60z" />
    <glyph glyph-name="iacute" unicode="&#xed;" 
d="M96 102v319h-68v102h208v-421h60v-102h-257v102h57zM292 823l71 -70l-213 -165l-75 60z" />
    <glyph glyph-name="icircumflex" unicode="&#xee;" 
d="M96 102v319h-68v102h208v-421h60v-102h-257v102h57zM309 604l-143 112l-143 -112l-81 66l181 139h86l181 -139z" />
    <glyph glyph-name="idieresis" unicode="&#xef;" 
d="M96 102v319h-68v102h208v-421h60v-102h-257v102h57zM-38 700q0 37 24 60.5t64 23.5t64 -23.5t24 -60.5t-24 -60.5t-64 -23.5t-64 23.5t-24 60.5zM194 700q0 37 24 60.5t64 23.5t64 -23.5t24 -60.5t-24 -60.5t-64 -23.5t-64 23.5t-24 60.5z" />
    <glyph glyph-name="eth" unicode="&#xf0;" horiz-adv-x="612" 
d="M183 253q0 -151 123 -151t123 151q0 85 -29.5 126.5t-93.5 41.5q-62 0 -92.5 -46t-30.5 -122zM155 647l90 48q-51 37 -81 49l102 60q38 -21 84 -53l80 43l63 -58l-71 -38q159 -141 159 -388q0 -322 -275 -322q-128 0 -201.5 68.5t-73.5 199.5q0 117 75.5 198t199.5 81
q53 0 98 -32l2 2q-15 36 -43 75.5t-51 58.5l-94 -50z" />
    <glyph glyph-name="ntilde" unicode="&#xf1;" horiz-adv-x="685" 
d="M96 102v319h-68v102h205q0 -70 -8 -108h2q20 54 67.5 87t113.5 33q91 0 136 -53.5t45 -150.5v-229h60v-102h-257v102h57v215q0 98 -91 98q-61 0 -91.5 -38t-30.5 -101v-174h60v-102h-251v102h51zM223 631l-85 41q20 49 56 78.5t82 29.5q35 0 78.5 -26t61.5 -26t29.5 8.5
t30.5 35.5l72 -51q-50 -95 -129 -95q-29 0 -76.5 27.5t-64.5 27.5q-29 0 -55 -50z" />
    <glyph glyph-name="ograve" unicode="&#xf2;" horiz-adv-x="612" 
d="M31 256q0 117 75.5 198t199.5 81q133 0 204 -71.5t71 -207.5q0 -118 -75.5 -193t-199.5 -75q-128 0 -201.5 68.5t-73.5 199.5zM183 253q0 -151 123 -151t123 151q0 85 -29.5 126.5t-93.5 41.5q-62 0 -92.5 -46t-30.5 -122zM109 753l71 70l217 -175l-75 -60z" />
    <glyph glyph-name="oacute" unicode="&#xf3;" horiz-adv-x="612" 
d="M31 256q0 117 75.5 198t199.5 81q133 0 204 -71.5t71 -207.5q0 -118 -75.5 -193t-199.5 -75q-128 0 -201.5 68.5t-73.5 199.5zM183 253q0 -151 123 -151t123 151q0 85 -29.5 126.5t-93.5 41.5q-62 0 -92.5 -46t-30.5 -122zM432 823l71 -70l-213 -165l-75 60z" />
    <glyph glyph-name="ocircumflex" unicode="&#xf4;" horiz-adv-x="612" 
d="M31 256q0 117 75.5 198t199.5 81q133 0 204 -71.5t71 -207.5q0 -118 -75.5 -193t-199.5 -75q-128 0 -201.5 68.5t-73.5 199.5zM183 253q0 -151 123 -151t123 151q0 85 -29.5 126.5t-93.5 41.5q-62 0 -92.5 -46t-30.5 -122zM449 604l-143 112l-143 -112l-81 66l181 139h86
l181 -139z" />
    <glyph glyph-name="otilde" unicode="&#xf5;" horiz-adv-x="612" 
d="M31 256q0 117 75.5 198t199.5 81q133 0 204 -71.5t71 -207.5q0 -118 -75.5 -193t-199.5 -75q-128 0 -201.5 68.5t-73.5 199.5zM183 253q0 -151 123 -151t123 151q0 85 -29.5 126.5t-93.5 41.5q-62 0 -92.5 -46t-30.5 -122zM186 631l-85 41q20 49 56 78.5t82 29.5
q35 0 78.5 -26t61.5 -26t29.5 8.5t30.5 35.5l72 -51q-50 -95 -129 -95q-29 0 -76.5 27.5t-64.5 27.5q-29 0 -55 -50z" />
    <glyph glyph-name="odieresis" unicode="&#xf6;" horiz-adv-x="612" 
d="M31 256q0 117 75.5 198t199.5 81q133 0 204 -71.5t71 -207.5q0 -118 -75.5 -193t-199.5 -75q-128 0 -201.5 68.5t-73.5 199.5zM183 253q0 -151 123 -151t123 151q0 85 -29.5 126.5t-93.5 41.5q-62 0 -92.5 -46t-30.5 -122zM102 700q0 37 24 60.5t64 23.5t64 -23.5
t24 -60.5t-24 -60.5t-64 -23.5t-64 23.5t-24 60.5zM334 700q0 37 24 60.5t64 23.5t64 -23.5t24 -60.5t-24 -60.5t-64 -23.5t-64 23.5t-24 60.5z" />
    <glyph glyph-name="divide" unicode="&#xf7;" horiz-adv-x="600" 
d="M47 199v108h506v-108h-506zM216 46q0 34 25 59t59 25t59 -25t25 -59t-25 -59t-59 -25t-59 25t-25 59zM216 460q0 34 25 59t59 25t59 -25t25 -59t-25 -59t-59 -25t-59 25t-25 59z" />
    <glyph glyph-name="oslash" unicode="&#xf8;" horiz-adv-x="612" 
d="M197 171l154 243q-20 7 -45 7q-62 0 -92.5 -46t-30.5 -122q0 -50 14 -82zM414 351l-153 -242q18 -7 45 -7q123 0 123 151q0 61 -15 98zM57 -51l61 97q-87 70 -87 210q0 117 75.5 198t199.5 81q63 0 111 -16l65 102l73 -47l-61 -96q87 -73 87 -222q0 -118 -75.5 -193
t-199.5 -75q-63 0 -111 16l-65 -102z" />
    <glyph glyph-name="ugrave" unicode="&#xf9;" horiz-adv-x="667" 
d="M368 421v102h206v-421h61v-102h-196q0 83 13 108h-2q-48 -120 -181 -120q-87 0 -131.5 48.5t-44.5 134.5v250h-70v102h210v-293q0 -65 17 -96.5t75 -31.5q47 0 78 35.5t31 95.5v188h-66zM137 753l71 70l217 -175l-75 -60z" />
    <glyph glyph-name="uacute" unicode="&#xfa;" horiz-adv-x="667" 
d="M368 421v102h206v-421h61v-102h-196q0 83 13 108h-2q-48 -120 -181 -120q-87 0 -131.5 48.5t-44.5 134.5v250h-70v102h210v-293q0 -65 17 -96.5t75 -31.5q47 0 78 35.5t31 95.5v188h-66zM460 823l71 -70l-213 -165l-75 60z" />
    <glyph glyph-name="ucircumflex" unicode="&#xfb;" horiz-adv-x="667" 
d="M368 421v102h206v-421h61v-102h-196q0 83 13 108h-2q-48 -120 -181 -120q-87 0 -131.5 48.5t-44.5 134.5v250h-70v102h210v-293q0 -65 17 -96.5t75 -31.5q47 0 78 35.5t31 95.5v188h-66zM467 604l-143 112l-143 -112l-81 66l181 139h86l181 -139z" />
    <glyph glyph-name="udieresis" unicode="&#xfc;" horiz-adv-x="667" 
d="M368 421v102h206v-421h61v-102h-196q0 83 13 108h-2q-48 -120 -181 -120q-87 0 -131.5 48.5t-44.5 134.5v250h-70v102h210v-293q0 -65 17 -96.5t75 -31.5q47 0 78 35.5t31 95.5v188h-66zM120 700q0 37 24 60.5t64 23.5t64 -23.5t24 -60.5t-24 -60.5t-64 -23.5t-64 23.5
t-24 60.5zM352 700q0 37 24 60.5t64 23.5t64 -23.5t24 -60.5t-24 -60.5t-64 -23.5t-64 23.5t-24 60.5z" />
    <glyph glyph-name="yacute" unicode="&#xfd;" horiz-adv-x="611" 
d="M367 421v102h234v-102h-48l-161 -432q-55 -148 -110.5 -200t-154.5 -52q-24 0 -76 12v108q45 -12 76 -12q44 0 69 23t62 97l-200 456h-48v102h260v-102h-54q10 -12 19 -36l66 -178q18 -49 24 -99h2q6 50 24 99l62 178q9 24 19 36h-65zM432 823l71 -70l-213 -165l-75 60z
" />
    <glyph glyph-name="thorn" unicode="&#xfe;" horiz-adv-x="648" 
d="M88 -149v816h-80v102h220v-205q0 -28 -11 -140h2q50 111 178 111q89 0 145.5 -62.5t56.5 -176.5q0 -57 -15 -109t-47 -98t-91 -73.5t-139 -27.5q-41 0 -79 5v-142h60v-102h-257v102h57zM225 289v-168q36 -19 89 -19q71 0 108 51t37 127q0 61 -26.5 101t-86.5 40
q-64 0 -92.5 -38t-28.5 -94z" />
    <glyph glyph-name="ydieresis" unicode="&#xff;" horiz-adv-x="611" 
d="M367 421v102h234v-102h-48l-161 -432q-55 -148 -110.5 -200t-154.5 -52q-24 0 -76 12v108q45 -12 76 -12q44 0 69 23t62 97l-200 456h-48v102h260v-102h-54q10 -12 19 -36l66 -178q18 -49 24 -99h2q6 50 24 99l62 178q9 24 19 36h-65zM102 700q0 37 24 60.5t64 23.5
t64 -23.5t24 -60.5t-24 -60.5t-64 -23.5t-64 23.5t-24 60.5zM334 700q0 37 24 60.5t64 23.5t64 -23.5t24 -60.5t-24 -60.5t-64 -23.5t-64 23.5t-24 60.5z" />
    <glyph glyph-name="dotlessi" unicode="&#x131;" 
d="M96 102v319h-68v102h208v-421h60v-102h-257v102h57z" />
    <glyph glyph-name="Lslash" unicode="&#x141;" horiz-adv-x="574" 
d="M46 0v102h63v138l-63 -49v108l63 49v250h-63v102h272v-102h-63v-137l139 108v-108l-139 -108v-251h172l8 125h121l-10 -227h-500z" />
    <glyph glyph-name="lslash" unicode="&#x142;" horiz-adv-x="315" 
d="M30 0v102h57v197l-57 -47v114l57 47v254h-80v102h220v-241l60 49v-114l-60 -49v-312h60v-102h-257z" />
    <glyph glyph-name="OE" unicode="&#x152;" horiz-adv-x="1019" 
d="M849 102l8 118h120l-8 -220h-432q-40 0 -70 -3t-64 -3q-184 0 -276.5 92.5t-92.5 258.5q0 163 99.5 262t269.5 99q44 0 64 -2q40 -4 70 -4h429l6 -206h-120l-6 104h-171v-184h176v-108h-176v-204h174zM529 105v491q-40 8 -83 8q-121 0 -187.5 -67.5t-66.5 -190.5
q0 -121 64.5 -182.5t187.5 -61.5q25 0 85 3z" />
    <glyph glyph-name="oe" unicode="&#x153;" horiz-adv-x="926" 
d="M407 217v95q0 115 -105 115q-66 0 -96 -47.5t-30 -116.5t30 -118t98 -49q103 0 103 121zM541 326h209q-2 47 -28 77t-79 30q-49 0 -75.5 -30t-26.5 -77zM890 230h-351q0 -70 46.5 -102t125.5 -32q83 0 159 39l-5 -108q-26 -18 -79.5 -28.5t-103.5 -10.5q-153 0 -210 96
q-48 -96 -186 -96q-121 0 -185.5 72.5t-64.5 193.5q0 126 68 203.5t194 77.5q70 0 116 -22t73 -76q55 98 168 98q110 0 172.5 -73t62.5 -232z" />
    <glyph glyph-name="Scaron" unicode="&#x160;" horiz-adv-x="630" 
d="M423 508v85q-49 17 -94 17q-66 0 -97 -27t-31 -62t21 -51t62 -26l84 -21q39 -10 63 -17.5t57 -24t51.5 -36.5t32 -52.5t13.5 -74.5q0 -105 -72.5 -167.5t-216.5 -62.5q-133 0 -251 39v185h146v-92q44 -18 118 -18q62 0 93 26t31 68q0 29 -23.5 49t-90.5 37l-77 20
q-107 27 -150 73t-43 128q0 91 68 150t208 59q133 0 230 -37v-167h-132zM315 857l143 112l81 -66l-181 -139h-86l-181 139l81 66z" />
    <glyph glyph-name="scaron" unicode="&#x161;" horiz-adv-x="537" 
d="M346 371v53q-42 15 -81 15q-46 0 -70 -16t-24 -39q0 -20 9 -28.5t38 -12.5l110 -16q90 -13 130 -50t40 -108q0 -78 -60 -129.5t-187 -51.5q-114 0 -206 33v147h126v-61q49 -17 93 -17q14 0 29 2.5t32.5 8.5t29 20t11.5 33q0 22 -17 34t-62 19l-118 18q-130 20 -130 139
q0 46 20.5 80.5t54.5 53.5t73 28t82 9q99 0 203 -35v-129h-126zM269 710l143 112l81 -66l-181 -139h-86l-181 139l81 66z" />
    <glyph glyph-name="Ydieresis" unicode="&#x178;" horiz-adv-x="741" 
d="M477 598v102h254v-102h-55l-232 -319v-177h63v-102h-271v102h62v176l-233 320h-55v102h278v-102h-56q23 -25 37 -45l116 -170l125 171q15 20 37 44h-70zM167 847q0 37 24 60.5t64 23.5t64 -23.5t24 -60.5t-24 -60.5t-64 -23.5t-64 23.5t-24 60.5zM399 847q0 37 24 60.5
t64 23.5t64 -23.5t24 -60.5t-24 -60.5t-64 -23.5t-64 23.5t-24 60.5z" />
    <glyph glyph-name="Zcaron" unicode="&#x17d;" horiz-adv-x="648" 
d="M37 0v97l351 451q26 33 48 48v2h-240l-6 -93h-126l6 195h535v-102l-344 -446q-27 -35 -48 -48v-2h265l6 93h127l-8 -195h-566zM324 857l143 112l81 -66l-181 -139h-86l-181 139l81 66z" />
    <glyph glyph-name="zcaron" unicode="&#x17e;" horiz-adv-x="556" 
d="M40 0v102l274 296q13 15 26 21v2h-163l-4 -69h-120l4 171h454v-101l-271 -296q-15 -17 -29 -22v-2h180l2 73h123l-8 -175h-468zM278 710l143 112l81 -66l-181 -139h-86l-181 139l81 66z" />
    <glyph glyph-name="florin" unicode="&#x192;" horiz-adv-x="592" 
d="M109 296v102h93q4 80 15.5 132.5t38 98t77 67t126.5 21.5q52 0 100 -11l-9 -100q-42 9 -68 9q-77 0 -106.5 -46.5t-36.5 -170.5h115v-102h-123l-18 -241q-11 -134 -70.5 -192t-160.5 -58q-51 0 -84 14l7 101q49 -7 62 -7q57 0 82 47.5t33 155.5l13 180h-86z" />
    <glyph glyph-name="circumflex" unicode="&#x2c6;" 
d="M309 604l-143 112l-143 -112l-81 66l181 139h86l181 -139z" />
    <glyph glyph-name="caron" unicode="&#x2c7;" 
d="M166 710l143 112l81 -66l-181 -139h-86l-181 139l81 66z" />
    <glyph glyph-name="uni02C9" unicode="&#x2c9;" 
d="M7 654v102h318v-102h-318z" />
    <glyph glyph-name="breve" unicode="&#x2d8;" 
d="M-36 795l97 20q13 -50 37 -72.5t68 -22.5t68 22.5t37 72.5l97 -20q-16 -78 -65 -124.5t-137 -46.5t-137 46.5t-65 124.5z" />
    <glyph glyph-name="dotaccent" unicode="&#x2d9;" 
d="M78 700q0 37 24 60.5t64 23.5t64 -23.5t24 -60.5t-24 -60.5t-64 -23.5t-64 23.5t-24 60.5z" />
    <glyph glyph-name="ring" unicode="&#x2da;" 
d="M47 713q0 47 33 77.5t86 30.5t86 -30.5t33 -77.5t-33 -77.5t-86 -30.5t-86 30.5t-33 77.5zM207 713q0 24 -11 38t-30 14t-30 -14t-11 -38t11 -38t30 -14t30 14t11 38z" />
    <glyph glyph-name="ogonek" unicode="&#x2db;" 
d="M192 0h64q-87 -69 -87 -135q0 -18 10 -30t30 -12q26 0 52 11l12 -57q-44 -16 -89 -16q-49 0 -80 22.5t-31 65.5q0 77 119 151z" />
    <glyph glyph-name="tilde" unicode="&#x2dc;" 
d="M46 631l-85 41q20 49 56 78.5t82 29.5q35 0 78.5 -26t61.5 -26t29.5 8.5t30.5 35.5l72 -51q-50 -95 -129 -95q-29 0 -76.5 27.5t-64.5 27.5q-29 0 -55 -50z" />
    <glyph glyph-name="hungarumlaut" unicode="&#x2dd;" 
d="M-41 648l217 175l71 -70l-213 -165zM191 648l217 175l71 -70l-213 -165z" />
    <glyph glyph-name="uni03A9" unicode="&#x3a9;" horiz-adv-x="754" 
d="M186 103v3q-56 49 -93.5 121.5t-37.5 163.5q0 137 91 232t233 95q144 0 230.5 -98t86.5 -223q0 -93 -38 -168t-95 -123v-3h148v-103h-280v77q58 35 96 108.5t38 184.5q0 100 -50 171.5t-136 71.5t-139 -70t-53 -178q0 -103 38.5 -179.5t95.5 -108.5v-77h-280v103h145z
" />
    <glyph glyph-name="uni03BC" unicode="&#x3bc;" horiz-adv-x="667" 
d="M368 421v102h206v-421h61v-102h-196q0 83 13 108h-2q-24 -60 -64 -90t-87 -30q-36 0 -64 23h-2v-262h-140v672h-70v102h210v-293q0 -65 17 -96.5t75 -31.5q47 0 78 35.5t31 95.5v188h-66z" />
    <glyph glyph-name="pi" unicode="&#x3c0;" horiz-adv-x="632" 
d="M607 423h-75v-269q0 -98 14 -154h-127q-18 32 -18 147v276h-148q-4 -97 -23 -225t-45 -198h-127q26 84 45 209.5t21 213.5q-72 0 -105 -11l-15 85q46 34 172 34h441z" />
    <glyph glyph-name="endash" unicode="&#x2013;" horiz-adv-x="500" 
d="M0 244v108h500v-108h-500z" />
    <glyph glyph-name="emdash" unicode="&#x2014;" horiz-adv-x="1000" 
d="M0 244v108h1000v-108h-1000z" />
    <glyph glyph-name="quoteleft" unicode="&#x2018;" horiz-adv-x="296" 
d="M193 784l65 -62q-80 -63 -80 -124q0 -26 27.5 -59.5t27.5 -58.5q0 -37 -24 -59.5t-61 -22.5q-52 0 -81 41.5t-29 96.5q0 147 155 248z" />
    <glyph glyph-name="quoteright" unicode="&#x2019;" horiz-adv-x="296" 
d="M103 398l-65 62q80 63 80 124q0 26 -27.5 59.5t-27.5 58.5q0 37 24 59.5t61 22.5q52 0 81 -41.5t29 -96.5q0 -147 -155 -248z" />
    <glyph glyph-name="quotesinglbase" unicode="&#x201a;" horiz-adv-x="296" 
d="M103 -223l-65 62q80 63 80 124q0 26 -27.5 59.5t-27.5 58.5q0 37 24 59.5t61 22.5q52 0 81 -41.5t29 -96.5q0 -147 -155 -248z" />
    <glyph glyph-name="quotedblleft" unicode="&#x201c;" horiz-adv-x="537" 
d="M188 784l65 -62q-80 -63 -80 -124q0 -26 27.5 -59.5t27.5 -58.5q0 -37 -24 -59.5t-61 -22.5q-52 0 -81 41.5t-29 96.5q0 147 155 248zM439 784l65 -62q-80 -63 -80 -124q0 -26 27.5 -59.5t27.5 -58.5q0 -37 -24 -59.5t-61 -22.5q-52 0 -81 41.5t-29 96.5q0 147 155 248z
" />
    <glyph glyph-name="quotedblright" unicode="&#x201d;" horiz-adv-x="537" 
d="M349 398l-65 62q80 63 80 124q0 26 -27.5 59.5t-27.5 58.5q0 37 24 59.5t61 22.5q52 0 81 -41.5t29 -96.5q0 -147 -155 -248zM98 398l-65 62q80 63 80 124q0 26 -27.5 59.5t-27.5 58.5q0 37 24 59.5t61 22.5q52 0 81 -41.5t29 -96.5q0 -147 -155 -248z" />
    <glyph glyph-name="quotedblbase" unicode="&#x201e;" horiz-adv-x="537" 
d="M98 -223l-65 62q80 63 80 124q0 26 -27.5 59.5t-27.5 58.5q0 37 24 59.5t61 22.5q52 0 81 -41.5t29 -96.5q0 -147 -155 -248zM349 -223l-65 62q80 63 80 124q0 26 -27.5 59.5t-27.5 58.5q0 37 24 59.5t61 22.5q52 0 81 -41.5t29 -96.5q0 -147 -155 -248z" />
    <glyph glyph-name="dagger" unicode="&#x2020;" horiz-adv-x="592" 
d="M226 492v208h140v-208h210v-102h-210v-585h-140v585h-210v102h210z" />
    <glyph glyph-name="daggerdbl" unicode="&#x2021;" horiz-adv-x="592" 
d="M226 150v219h-200v102h200v229h140v-229h200v-102h-200v-219h200v-102h-200v-243h-140v243h-200v102h200z" />
    <glyph glyph-name="bullet" unicode="&#x2022;" horiz-adv-x="500" 
d="M75 350q0 73 51 124t124 51t124 -51t51 -124t-51 -124t-124 -51t-124 51t-51 124z" />
    <glyph glyph-name="ellipsis" unicode="&#x2026;" horiz-adv-x="1000" 
d="M73 73q0 43 26.5 66.5t67.5 23.5t67.5 -23.5t26.5 -66.5q0 -39 -25 -64.5t-69 -25.5t-69 25.5t-25 64.5zM406 73q0 43 26.5 66.5t67.5 23.5t67.5 -23.5t26.5 -66.5q0 -39 -25 -64.5t-69 -25.5t-69 25.5t-25 64.5zM739 73q0 43 26.5 66.5t67.5 23.5t67.5 -23.5t26.5 -66.5
q0 -39 -25 -64.5t-69 -25.5t-69 25.5t-25 64.5z" />
    <glyph glyph-name="perthousand" unicode="&#x2030;" horiz-adv-x="1167" 
d="M256 558q0 35 -16 57t-49 22q-35 0 -51.5 -24t-16.5 -61q0 -34 15.5 -56t49.5 -22q36 0 52 25t16 59zM358 559q0 -77 -49.5 -121t-121.5 -44q-82 0 -124 42.5t-42 118.5q0 75 49.5 118.5t121.5 43.5q84 0 125 -47t41 -111zM664 147q0 35 -16 57t-49 22q-34 0 -51 -26
t-17 -59q0 -78 65 -78q36 0 52 25t16 59zM766 148q0 -77 -49.5 -121t-121.5 -44q-82 0 -124 42.5t-42 118.5q0 75 49.5 118.5t121.5 43.5q84 0 125 -47t41 -111zM1146 148q0 -77 -49.5 -121t-121.5 -44q-82 0 -124 42.5t-42 118.5q0 75 49.5 118.5t121.5 43.5q84 0 125 -47
t41 -111zM1044 147q0 35 -16 57t-49 22q-34 0 -51 -26t-17 -59q0 -78 65 -78q36 0 52 25t16 59zM143 -14l421 772l80 -44l-421 -772z" />
    <glyph glyph-name="guilsinglleft" unicode="&#x2039;" horiz-adv-x="296" 
d="M31 259v78l135 158l99 -83l-103 -114l103 -114l-99 -83z" />
    <glyph glyph-name="guilsinglright" unicode="&#x203a;" horiz-adv-x="296" 
d="M134 298l-103 114l99 83l135 -158v-78l-135 -158l-99 83z" />
    <glyph glyph-name="fraction" unicode="&#x2044;" horiz-adv-x="167" 
d="M-170 -14l421 772l86 -44l-421 -772z" />
    <glyph glyph-name="Euro" unicode="&#x20ac;" horiz-adv-x="592" 
d="M594 674v-153h-109v71q-41 15 -81 15q-121 0 -163 -134h310l-42 -88h-284v-57h262l-42 -88h-204q42 -140 173 -140q68 0 173 41v-118q-90 -35 -187 -35q-251 0 -308 252h-83l42 88h30l2 57h-74l42 88h46q33 116 111.5 179.5t195.5 63.5q96 0 190 -42z" />
    <glyph glyph-name="afii61289" unicode="&#x2113;" horiz-adv-x="542" 
d="M467 184l54 -54q-75 -143 -219 -143q-87 0 -133 46t-56 120v11q-8 -6 -17 -13t-20 -15.5t-17 -13.5l-34 69q70 54 86 69v253q0 131 52.5 196t134.5 65q73 0 110.5 -51t37.5 -129q0 -87 -53.5 -173t-156.5 -181l1 -39q1 -53 27.5 -82.5t67.5 -29.5q76 0 135 95zM236 521
v-165q126 138 126 241q0 86 -59 86q-28 0 -47.5 -38t-19.5 -124z" />
    <glyph glyph-name="trademark" unicode="&#x2122;" horiz-adv-x="990" 
d="M123 284v348h-121v68h332v-68h-121v-348h-90zM798 284v320h-2l-115 -320h-68l-115 320h-2v-320h-90v416h135l105 -296h2l105 296h135v-416h-90z" />
    <glyph glyph-name="Omega" unicode="&#x2126;" horiz-adv-x="754" 
d="M186 103v3q-56 49 -93.5 121.5t-37.5 163.5q0 137 91 232t233 95q144 0 230.5 -98t86.5 -223q0 -93 -38 -168t-95 -123v-3h148v-103h-280v77q58 35 96 108.5t38 184.5q0 100 -50 171.5t-136 71.5t-139 -70t-53 -178q0 -103 38.5 -179.5t95.5 -108.5v-77h-280v103h145z
" />
    <glyph glyph-name="estimated" unicode="&#x212e;" horiz-adv-x="885" 
d="M850 340h-660q-6 0 -6 -5v-199q0 -14 9 -23q106 -109 250 -109q156 0 262 122h59q-56 -66 -141 -104t-182 -38q-168 0 -287.5 107.5t-119.5 258.5q0 152 119.5 259.5t287.5 107.5q170 0 289.5 -107.5t119.5 -259.5v-10zM700 366v201q0 14 -10 24q-106 104 -247 104
q-143 0 -249 -108q-10 -9 -10 -25v-196q0 -7 6 -7h505q5 0 5 7z" />
    <glyph glyph-name="partialdiff" unicode="&#x2202;" horiz-adv-x="603" 
d="M107 640l-37 94q79 59 193 59q123 0 206.5 -102.5t83.5 -284.5q0 -188 -79 -303.5t-217 -115.5q-103 0 -160.5 74.5t-57.5 166.5q0 118 65 191t162 73q58 0 100 -28.5t58 -57.5h2v35q0 102 -50.5 174.5t-128.5 72.5q-76 0 -140 -48zM270 93h1q56 0 94.5 63.5t47.5 144.5
q-9 31 -42.5 60t-78.5 29q-54 0 -89.5 -49t-35.5 -117q0 -56 28.5 -93.5t74.5 -37.5z" />
    <glyph glyph-name="Delta" unicode="&#x2206;" horiz-adv-x="693" 
d="M27 0v74l245 649h154l238 -647v-76h-637zM162 103h361l-118 306q-5 16 -29 86t-31 95h-4q-4 -19 -25.5 -80t-28.5 -85z" />
    <glyph glyph-name="product" unicode="&#x220f;" horiz-adv-x="757" 
d="M731 592h-109v-690h-127v690h-234v-690h-128v690h-108v115h706v-115z" />
    <glyph glyph-name="summation" unicode="&#x2211;" horiz-adv-x="589" 
d="M568 -98h-545v81l256 321l-245 315v88h517v-109h-342v-3l216 -271l-239 -301v-4h382v-117z" />
    <glyph glyph-name="minus" unicode="&#x2212;" horiz-adv-x="600" 
d="M47 199v108h506v-108h-506z" />
    <glyph glyph-name="uni2215" unicode="&#x2215;" horiz-adv-x="167" 
d="M-170 -14l421 772l86 -44l-421 -772z" />
    <glyph glyph-name="uni2219" unicode="&#x2219;" horiz-adv-x="296" 
d="M64 266q0 34 25 59t59 25t59 -25t25 -59t-25 -59t-59 -25t-59 25t-25 59z" />
    <glyph glyph-name="radical" unicode="&#x221a;" horiz-adv-x="621" 
d="M631 847l-237 -991h-104l-158 445l-78 -30l-21 70l175 71l113 -330q9 -41 21 -84l1 -1q1 7 4 24t6.5 34t6.5 32l180 760h91z" />
    <glyph glyph-name="infinity" unicode="&#x221e;" horiz-adv-x="805" 
d="M755 293v-1q0 -80 -49.5 -129t-116.5 -49q-47 0 -91.5 26.5t-94.5 91.5q-46 -57 -90 -87.5t-101 -30.5q-66 0 -114.5 49t-48.5 124q0 77 49 126.5t123 49.5q96 0 186 -116q1 1 13.5 15t15 16.5t14.5 15t16.5 16t17 14t19.5 13.5t19.5 10t22.5 9t23.5 4.5t26.5 2.5
q69 -1 114.5 -48t45.5 -122zM221 184h1q21 0 40 7.5t40 27t30.5 29t32.5 36.5q-32 41 -44.5 56.5t-42 34.5t-61.5 19q-43 0 -69 -30.5t-26 -77.5q0 -42 28.5 -72t70.5 -30zM588 394h-1q-13 0 -25.5 -3.5t-25 -11t-21.5 -14t-21.5 -19t-18 -18.5t-17.5 -20.5t-15 -17.5
q49 -60 80 -83t69 -23q41 0 66 32t25 70q0 48 -26.5 78t-68.5 30z" />
    <glyph glyph-name="integral" unicode="&#x222b;" horiz-adv-x="406" 
d="M386 861l-14 -86q-18 9 -38 9q-35 0 -52 -26q-29 -35 -29 -170q0 -81 7.5 -238t7.5 -249q0 -134 -38 -203q-39 -72 -132 -72q-52 0 -80 17l16 89q28 -11 46 -11q30 0 47 21q29 37 29 158q0 93 -7.5 254t-7.5 246q0 88 14 141t48 87q42 46 119 46q38 0 64 -13z" />
    <glyph glyph-name="approxequal" unicode="&#x2248;" horiz-adv-x="579" 
d="M490 459l46 -42q-58 -105 -142 -105q-48 0 -118 41q-54 34 -91 34q-31 0 -52.5 -19t-46.5 -55l-46 43q24 46 64.5 75t87.5 29q9 0 18 -1t16 -2.5t16 -4.5l13.5 -4.5t13.5 -6.5t11.5 -6.5t12 -6.5t10.5 -6q4 -2 15 -8.5t14.5 -8.5t12 -6.5t13 -6t11.5 -4t13 -3t13 -0.5
q28 0 49.5 18t45.5 56zM490 268l46 -43q-57 -105 -142 -105q-30 0 -54.5 9.5t-63.5 32.5q-55 34 -90 34q-22 0 -42 -12t-30.5 -25t-27.5 -37l-46 43q24 46 65 75t87 29q12 0 24 -2t20 -4t20 -7.5t16.5 -8t16 -9t13.5 -7.5q5 -3 22 -13t24 -13t20.5 -7t25.5 -4q29 0 50 17.5
t46 56.5z" />
    <glyph glyph-name="notequal" unicode="&#x2260;" horiz-adv-x="579" 
d="M424 523l-42 -92h145v-74h-173l-63 -140h236v-74h-265l-53 -119l-58 25l42 94h-143v74h172l62 140h-234v74h263l52 117z" />
    <glyph glyph-name="lessequal" unicode="&#x2264;" horiz-adv-x="579" 
d="M525 101l-469 229v80l468 229v-86l-393 -181v-2l394 -183v-86zM528 -13h-477v76h477v-76z" />
    <glyph glyph-name="greaterequal" unicode="&#x2265;" horiz-adv-x="579" 
d="M57 639l469 -229v-80l-469 -229v86l394 182v3l-394 181v86zM526 -13h-474v76h474v-76z" />
    <glyph glyph-name="lozenge" unicode="&#x25ca;" horiz-adv-x="620" 
d="M568 353l-209 -403h-103l-204 403l209 404h102zM455 350l-124 247q-14 35 -19 58h-3q-9 -31 -20 -58l-124 -242l125 -250q14 -39 18 -55h4q12 42 18 54z" />
    <glyph glyph-name="A.sc" unicode="&#xe000;" horiz-adv-x="648" 
d="M56 96l196 452h152l186 -452h49v-96h-254v96h47l-29 82h-180l-27 -82h47v-96h-234v96h47zM255 274h118l-56 166h-2z" />
    <glyph glyph-name="AE.sc" unicode="&#xe001;" horiz-adv-x="852" 
d="M429 324v128h-49l-70 -128h119zM9 96h46l269 452h455l4 -166h-102l-4 70h-114v-128h121v-96h-121v-132h130l12 82h108l-14 -178h-424v96h54v132h-167l-67 -132h54v-96h-240v96z" />
    <glyph glyph-name="Aacute.sc" unicode="&#xe002;" horiz-adv-x="648" 
d="M56 96l196 452h152l186 -452h49v-96h-254v96h47l-29 82h-180l-27 -82h47v-96h-234v96h47zM255 274h118l-56 166h-2zM450 823l71 -70l-213 -165l-75 60z" />
    <glyph glyph-name="Acircumflex.sc" unicode="&#xe003;" horiz-adv-x="648" 
d="M56 96l196 452h152l186 -452h49v-96h-254v96h47l-29 82h-180l-27 -82h47v-96h-234v96h47zM255 274h118l-56 166h-2zM467 604l-143 112l-143 -112l-81 66l181 139h86l181 -139z" />
    <glyph glyph-name="Adieresis.sc" unicode="&#xe004;" horiz-adv-x="648" 
d="M56 96l196 452h152l186 -452h49v-96h-254v96h47l-29 82h-180l-27 -82h47v-96h-234v96h47zM255 274h118l-56 166h-2zM120 700q0 37 24 60.5t64 23.5t64 -23.5t24 -60.5t-24 -60.5t-64 -23.5t-64 23.5t-24 60.5zM352 700q0 37 24 60.5t64 23.5t64 -23.5t24 -60.5t-24 -60.5
t-64 -23.5t-64 23.5t-24 60.5z" />
    <glyph glyph-name="Agrave.sc" unicode="&#xe005;" horiz-adv-x="648" 
d="M56 96l196 452h152l186 -452h49v-96h-254v96h47l-29 82h-180l-27 -82h47v-96h-234v96h47zM255 274h118l-56 166h-2zM127 753l71 70l217 -175l-75 -60z" />
    <glyph glyph-name="Aring.sc" unicode="&#xe006;" horiz-adv-x="648" 
d="M56 96l196 452h152l186 -452h49v-96h-254v96h47l-29 82h-180l-27 -82h47v-96h-234v96h47zM255 274h118l-56 166h-2zM205 713q0 47 33 77.5t86 30.5t86 -30.5t33 -77.5t-33 -77.5t-86 -30.5t-86 30.5t-33 77.5zM365 713q0 24 -11 38t-30 14t-30 -14t-11 -38t11 -38t30 -14
t30 14t11 38z" />
    <glyph glyph-name="Atilde.sc" unicode="&#xe007;" horiz-adv-x="648" 
d="M56 96l196 452h152l186 -452h49v-96h-254v96h47l-29 82h-180l-27 -82h47v-96h-234v96h47zM255 274h118l-56 166h-2zM204 631l-85 41q20 49 56 78.5t82 29.5q35 0 78.5 -26t61.5 -26t29.5 8.5t30.5 35.5l72 -51q-50 -95 -129 -95q-29 0 -76.5 27.5t-64.5 27.5
q-29 0 -55 -50z" />
    <glyph glyph-name="B.sc" unicode="&#xe008;" horiz-adv-x="519" 
d="M233 452v-128h35q74 0 74 66q0 62 -74 62h-35zM99 96v356h-60v96h271q76 0 121 -33.5t45 -100.5q0 -103 -120 -122v-2q66 -3 104 -37t38 -94q0 -79 -49.5 -119t-137.5 -40h-266v96h54zM233 228v-132h40q48 0 69.5 15.5t21.5 50.5q0 36 -22 51t-69 15h-40z" />
    <glyph glyph-name="C.sc" unicode="&#xe009;" horiz-adv-x="556" 
d="M415 102l6 75h102v-158q-108 -32 -190 -32q-142 0 -221 67.5t-79 201.5q0 156 87.5 230.5t228.5 74.5q89 0 174 -32v-152h-108v65q-51 11 -74 11q-162 0 -162 -176q0 -103 45.5 -142.5t126.5 -39.5q31 0 64 7z" />
    <glyph glyph-name="Ccedilla.sc" unicode="&#xe00a;" horiz-adv-x="556" 
d="M268 -104v95q-112 14 -173.5 80.5t-61.5 184.5q0 156 87.5 230.5t228.5 74.5q89 0 174 -32v-152h-108v65q-51 11 -74 11q-162 0 -162 -176q0 -103 45.5 -142.5t126.5 -39.5q31 0 64 7l6 75h102v-158q-89 -27 -165 -32v-47q60 0 83.5 -25t23.5 -60q0 -48 -42.5 -77
t-110.5 -29q-49 0 -111 15l4 73q40 -14 73 -14q31 0 49 10.5t18 27.5q0 18 -16 26.5t-61 8.5z" />
    <glyph glyph-name="D.sc" unicode="&#xe00b;" horiz-adv-x="630" 
d="M233 452v-356h64q71 0 112.5 48.5t41.5 129.5q0 178 -154 178h-64zM99 96v356h-60v96h277q131 0 206 -66.5t75 -207.5q0 -116 -74 -195t-202 -79h-282v96h60z" />
    <glyph glyph-name="E.sc" unicode="&#xe00c;" horiz-adv-x="519" 
d="M99 96v356h-60v96h431l10 -166h-102l-10 70h-135v-128h144v-96h-144v-132h135l10 82h108l-15 -178h-426v96h54z" />
    <glyph glyph-name="Eacute.sc" unicode="&#xe00d;" horiz-adv-x="519" 
d="M99 96v356h-60v96h431l10 -166h-102l-10 70h-135v-128h144v-96h-144v-132h135l10 82h108l-15 -178h-426v96h54zM386 823l71 -70l-213 -165l-75 60z" />
    <glyph glyph-name="Ecircumflex.sc" unicode="&#xe00e;" horiz-adv-x="519" 
d="M99 96v356h-60v96h431l10 -166h-102l-10 70h-135v-128h144v-96h-144v-132h135l10 82h108l-15 -178h-426v96h54zM403 604l-143 112l-143 -112l-81 66l181 139h86l181 -139z" />
    <glyph glyph-name="Edieresis.sc" unicode="&#xe00f;" horiz-adv-x="519" 
d="M99 96v356h-60v96h431l10 -166h-102l-10 70h-135v-128h144v-96h-144v-132h135l10 82h108l-15 -178h-426v96h54zM56 700q0 37 24 60.5t64 23.5t64 -23.5t24 -60.5t-24 -60.5t-64 -23.5t-64 23.5t-24 60.5zM288 700q0 37 24 60.5t64 23.5t64 -23.5t24 -60.5t-24 -60.5
t-64 -23.5t-64 23.5t-24 60.5z" />
    <glyph glyph-name="Egrave.sc" unicode="&#xe010;" horiz-adv-x="519" 
d="M99 96v356h-60v96h431l10 -166h-102l-10 70h-135v-128h144v-96h-144v-132h135l10 82h108l-15 -178h-426v96h54zM63 753l71 70l217 -175l-75 -60z" />
    <glyph glyph-name="Eth.sc" unicode="&#xe011;" horiz-adv-x="630" 
d="M99 96v132h-60v96h60v128h-60v96h277q131 0 206 -66.5t75 -207.5q0 -116 -74 -195t-202 -79h-282v96h60zM233 324h85v-96h-85v-132h64q71 0 112.5 48.5t41.5 129.5q0 178 -154 178h-64v-128z" />
    <glyph glyph-name="F.sc" unicode="&#xe012;" horiz-adv-x="481" 
d="M45 0v96h54v356h-60v96h430l10 -166h-108l-10 70h-128v-128h144v-96h-144v-132h66v-96h-254z" />
    <glyph glyph-name="G.sc" unicode="&#xe013;" horiz-adv-x="611" 
d="M408 104v84h-58v96h228v-96h-52v-169q-110 -32 -204 -32q-133 0 -211 72t-78 200q0 150 89 226t228 76q93 0 182 -32v-152h-108v64q-42 12 -74 12q-82 0 -126.5 -47t-44.5 -131q0 -87 42.5 -133.5t110.5 -46.5q26 0 76 9z" />
    <glyph glyph-name="H.sc" unicode="&#xe014;" horiz-adv-x="666" 
d="M99 96v356h-60v96h254v-96h-60v-128h200v128h-60v96h254v-96h-60v-356h60v-96h-254v96h60v132h-200v-132h60v-96h-254v96h60z" />
    <glyph glyph-name="I.sc" unicode="&#xe015;" 
d="M99 96v356h-60v96h254v-96h-60v-356h60v-96h-254v96h60z" />
    <glyph glyph-name="Iacute.sc" unicode="&#xe016;" 
d="M99 96v356h-60v96h254v-96h-60v-356h60v-96h-254v96h60zM292 823l71 -70l-213 -165l-75 60z" />
    <glyph glyph-name="Icircumflex.sc" unicode="&#xe017;" 
d="M99 96v356h-60v96h254v-96h-60v-356h60v-96h-254v96h60zM309 604l-143 112l-143 -112l-81 66l181 139h86l181 -139z" />
    <glyph glyph-name="Idieresis.sc" unicode="&#xe018;" 
d="M99 96v356h-60v96h254v-96h-60v-356h60v-96h-254v96h60zM-38 700q0 37 24 60.5t64 23.5t64 -23.5t24 -60.5t-24 -60.5t-64 -23.5t-64 23.5t-24 60.5zM194 700q0 37 24 60.5t64 23.5t64 -23.5t24 -60.5t-24 -60.5t-64 -23.5t-64 23.5t-24 60.5z" />
    <glyph glyph-name="Igrave.sc" unicode="&#xe019;" 
d="M99 96v356h-60v96h254v-96h-60v-356h60v-96h-254v96h60zM-31 753l71 70l217 -175l-75 -60z" />
    <glyph glyph-name="J.sc" unicode="&#xe01a;" horiz-adv-x="315" 
d="M85 138v314h-57v96h248v-96h-57v-352q0 -74 -42.5 -138.5t-130.5 -108.5l-57 91q53 35 74.5 77t21.5 117z" />
    <glyph glyph-name="K.sc" unicode="&#xe01b;" horiz-adv-x="630" 
d="M99 96v356h-60v96h248v-96h-54v-161l176 161h-52v96h240v-96h-41l-188 -168l197 -188h44v-96h-254v96h44l-166 159v-159h54v-96h-248v96h60z" />
    <glyph glyph-name="L.sc" unicode="&#xe01c;" horiz-adv-x="500" 
d="M99 96v356h-60v96h254v-96h-60v-356h126l12 82h108l-13 -178h-427v96h60z" />
    <glyph glyph-name="Lslash.sc" unicode="&#xe01d;" horiz-adv-x="500" 
d="M99 96v80l-60 -33v80l60 33v196h-60v96h254v-96h-60v-115l109 61v-80l-109 -61v-161h126l12 82h108l-13 -178h-427v96h60z" />
    <glyph glyph-name="M.sc" unicode="&#xe01e;" horiz-adv-x="852" 
d="M28 452v96h263l136 -390h2l143 390h241v-96h-51v-356h62v-96h-240v96h50v316h-2l-153 -412h-128l-146 405h-2v-309h47v-96h-222v96h61v356h-61z" />
    <glyph glyph-name="N.sc" unicode="&#xe01f;" horiz-adv-x="666" 
d="M88 96v356h-60v96h190l244 -328h2v232h-60v96h234v-96h-54v-452h-116l-258 348h-2v-252h60v-96h-234v96h54z" />
    <glyph glyph-name="Ntilde.sc" unicode="&#xe020;" horiz-adv-x="666" 
d="M88 96v356h-60v96h190l244 -328h2v232h-60v96h234v-96h-54v-452h-116l-258 348h-2v-252h60v-96h-234v96h54zM213 631l-85 41q20 49 56 78.5t82 29.5q35 0 78.5 -26t61.5 -26t29.5 8.5t30.5 35.5l72 -51q-50 -95 -129 -95q-29 0 -76.5 27.5t-64.5 27.5q-29 0 -55 -50z" />
    <glyph glyph-name="O.sc" unicode="&#xe021;" horiz-adv-x="630" 
d="M33 274q0 135 77.5 211t204.5 76t204.5 -76t77.5 -211t-77.5 -211t-204.5 -76t-204.5 76t-77.5 211zM179 274q0 -92 39 -135.5t97 -43.5t97 43.5t39 135.5t-39 135.5t-97 43.5t-97 -43.5t-39 -135.5z" />
    <glyph glyph-name="OE.sc" unicode="&#xe022;" horiz-adv-x="815" 
d="M535 324h144v-96h-144v-132h129l10 82h108l-15 -178h-486q-121 0 -184.5 75t-63.5 185q0 133 75 210.5t212 77.5h446l10 -166h-102l-10 70h-129v-128zM401 96v356h-71q-151 0 -151 -188q0 -168 158 -168h64z" />
    <glyph glyph-name="Oacute.sc" unicode="&#xe023;" horiz-adv-x="630" 
d="M33 274q0 135 77.5 211t204.5 76t204.5 -76t77.5 -211t-77.5 -211t-204.5 -76t-204.5 76t-77.5 211zM179 274q0 -92 39 -135.5t97 -43.5t97 43.5t39 135.5t-39 135.5t-97 43.5t-97 -43.5t-39 -135.5zM441 823l71 -70l-213 -165l-75 60z" />
    <glyph glyph-name="Ocircumflex.sc" unicode="&#xe024;" horiz-adv-x="630" 
d="M33 274q0 135 77.5 211t204.5 76t204.5 -76t77.5 -211t-77.5 -211t-204.5 -76t-204.5 76t-77.5 211zM179 274q0 -92 39 -135.5t97 -43.5t97 43.5t39 135.5t-39 135.5t-97 43.5t-97 -43.5t-39 -135.5zM458 604l-143 112l-143 -112l-81 66l181 139h86l181 -139z" />
    <glyph glyph-name="Odieresis.sc" unicode="&#xe025;" horiz-adv-x="630" 
d="M33 274q0 135 77.5 211t204.5 76t204.5 -76t77.5 -211t-77.5 -211t-204.5 -76t-204.5 76t-77.5 211zM179 274q0 -92 39 -135.5t97 -43.5t97 43.5t39 135.5t-39 135.5t-97 43.5t-97 -43.5t-39 -135.5zM111 700q0 37 24 60.5t64 23.5t64 -23.5t24 -60.5t-24 -60.5
t-64 -23.5t-64 23.5t-24 60.5zM343 700q0 37 24 60.5t64 23.5t64 -23.5t24 -60.5t-24 -60.5t-64 -23.5t-64 23.5t-24 60.5z" />
    <glyph glyph-name="Ograve.sc" unicode="&#xe026;" horiz-adv-x="630" 
d="M33 274q0 135 77.5 211t204.5 76t204.5 -76t77.5 -211t-77.5 -211t-204.5 -76t-204.5 76t-77.5 211zM179 274q0 -92 39 -135.5t97 -43.5t97 43.5t39 135.5t-39 135.5t-97 43.5t-97 -43.5t-39 -135.5zM118 753l71 70l217 -175l-75 -60z" />
    <glyph glyph-name="Oslash.sc" unicode="&#xe027;" horiz-adv-x="630" 
d="M121 -86l-55 35l63 97q-96 77 -96 228q0 135 77.5 211t204.5 76q73 0 130 -26l64 99l55 -35l-63 -98q96 -77 96 -227q0 -135 -77.5 -211t-204.5 -76q-73 0 -130 26zM203 161l178 275q-28 17 -66 17q-58 0 -97 -43.5t-39 -135.5q0 -70 24 -113zM427 387l-177 -274
q28 -18 65 -18q58 0 97 43.5t39 135.5q0 71 -24 113z" />
    <glyph glyph-name="Otilde.sc" unicode="&#xe028;" horiz-adv-x="630" 
d="M33 274q0 135 77.5 211t204.5 76t204.5 -76t77.5 -211t-77.5 -211t-204.5 -76t-204.5 76t-77.5 211zM179 274q0 -92 39 -135.5t97 -43.5t97 43.5t39 135.5t-39 135.5t-97 43.5t-97 -43.5t-39 -135.5zM195 631l-85 41q20 49 56 78.5t82 29.5q35 0 78.5 -26t61.5 -26
t29.5 8.5t30.5 35.5l72 -51q-50 -95 -129 -95q-29 0 -76.5 27.5t-64.5 27.5q-29 0 -55 -50z" />
    <glyph glyph-name="P.sc" unicode="&#xe029;" horiz-adv-x="500" 
d="M233 452v-139h45q42 0 60.5 14.5t18.5 59.5q0 65 -78 65h-46zM99 96v356h-60v96h281q81 0 126 -43t45 -114q0 -89 -50.5 -133t-131.5 -44h-76v-118h72v-96h-260v96h54z" />
    <glyph glyph-name="Q.sc" unicode="&#xe02a;" horiz-adv-x="630" 
d="M466 -103l-105 64q-42 26 -81 29q-112 8 -179.5 83t-67.5 201q0 135 77.5 211t204.5 76t204.5 -76t77.5 -211q0 -95 -39.5 -162t-111.5 -97l2 -2q8 3 21 3q25 0 112 -40q34 -15 51 -15q6 0 33 5v-102q-24 -11 -57 -11q-38 0 -66.5 8t-75.5 36zM179 274q0 -92 39 -135.5
t97 -43.5t97 43.5t39 135.5t-39 135.5t-97 43.5t-97 -43.5t-39 -135.5z" />
    <glyph glyph-name="R.sc" unicode="&#xe02b;" horiz-adv-x="556" 
d="M267 452h-34v-134h34q81 0 81 71q0 36 -18.5 49.5t-62.5 13.5zM99 96v356h-60v96h277q81 0 123.5 -39t42.5 -107q0 -53 -33 -92.5t-108 -51.5v-2q39 -4 60.5 -16.5t39.5 -39.5l59 -90q3 -5 13 -9.5t19 -4.5q6 0 18 6v-102h-95q-33 0 -50.5 11.5t-34.5 42.5l-75 138
q-11 20 -22.5 25t-39.5 5v-126h40v-96h-234v96h60z" />
    <glyph glyph-name="S.sc" unicode="&#xe02c;" horiz-adv-x="500" 
d="M437 398h-108v52q-26 15 -79 15q-77 0 -77 -61q0 -26 30.5 -40t73.5 -23t86 -23t73.5 -51t30.5 -96q0 -93 -69.5 -138.5t-173.5 -45.5q-98 0 -185 28l-6 152h114l6 -66q33 -18 87 -18q38 0 62.5 21t24.5 47q0 28 -30.5 43t-73.5 23.5t-86 21t-73.5 48t-30.5 92.5
q0 80 60 131t175 51q74 0 169 -29v-134z" />
    <glyph glyph-name="Scaron.sc" unicode="&#xe02d;" horiz-adv-x="500" 
d="M437 398h-108v52q-26 15 -79 15q-77 0 -77 -61q0 -26 30.5 -40t73.5 -23t86 -23t73.5 -51t30.5 -96q0 -93 -69.5 -138.5t-173.5 -45.5q-98 0 -185 28l-6 152h114l6 -66q33 -18 87 -18q38 0 62.5 21t24.5 47q0 28 -30.5 43t-73.5 23.5t-86 21t-73.5 48t-30.5 92.5
q0 80 60 131t175 51q74 0 169 -29v-134zM250 710l143 112l81 -66l-181 -139h-86l-181 139l81 66z" />
    <glyph glyph-name="T.sc" unicode="&#xe02e;" horiz-adv-x="536" 
d="M201 96v356h-83l-7 -70h-102l7 166h504l7 -166h-102l-7 70h-83v-356h63v-96h-260v96h63z" />
    <glyph glyph-name="Thorn.sc" unicode="&#xe02f;" horiz-adv-x="500" 
d="M233 323v-98h45q41 0 60 11.5t19 43.5q0 20 -23 31.5t-55 11.5h-46zM99 96v356h-60v96h266v-96h-72v-33h87q79 0 125 -39.5t46 -95.5q0 -74 -51.5 -114.5t-130.5 -40.5h-76v-33h72v-96h-260v96h54z" />
    <glyph glyph-name="U.sc" unicode="&#xe030;" horiz-adv-x="648" 
d="M88 151v301h-60v96h254v-96h-60v-264q0 -43 27.5 -68t84.5 -25q102 0 102 104v253h-56v96h240v-96h-56v-223q0 -54 -10.5 -95t-36 -76t-73.5 -53t-117 -18q-107 0 -173 43t-66 121z" />
    <glyph glyph-name="Uacute.sc" unicode="&#xe031;" horiz-adv-x="648" 
d="M88 151v301h-60v96h254v-96h-60v-264q0 -43 27.5 -68t84.5 -25q102 0 102 104v253h-56v96h240v-96h-56v-223q0 -54 -10.5 -95t-36 -76t-73.5 -53t-117 -18q-107 0 -173 43t-66 121zM450 823l71 -70l-213 -165l-75 60z" />
    <glyph glyph-name="Ucircumflex.sc" unicode="&#xe032;" horiz-adv-x="648" 
d="M88 151v301h-60v96h254v-96h-60v-264q0 -43 27.5 -68t84.5 -25q102 0 102 104v253h-56v96h240v-96h-56v-223q0 -54 -10.5 -95t-36 -76t-73.5 -53t-117 -18q-107 0 -173 43t-66 121zM457 604l-143 112l-143 -112l-81 66l181 139h86l181 -139z" />
    <glyph glyph-name="Udieresis.sc" unicode="&#xe033;" horiz-adv-x="648" 
d="M88 151v301h-60v96h254v-96h-60v-264q0 -43 27.5 -68t84.5 -25q102 0 102 104v253h-56v96h240v-96h-56v-223q0 -54 -10.5 -95t-36 -76t-73.5 -53t-117 -18q-107 0 -173 43t-66 121zM110 700q0 37 24 60.5t64 23.5t64 -23.5t24 -60.5t-24 -60.5t-64 -23.5t-64 23.5
t-24 60.5zM342 700q0 37 24 60.5t64 23.5t64 -23.5t24 -60.5t-24 -60.5t-64 -23.5t-64 23.5t-24 60.5z" />
    <glyph glyph-name="Ugrave.sc" unicode="&#xe034;" horiz-adv-x="648" 
d="M88 151v301h-60v96h254v-96h-60v-264q0 -43 27.5 -68t84.5 -25q102 0 102 104v253h-56v96h240v-96h-56v-223q0 -54 -10.5 -95t-36 -76t-73.5 -53t-117 -18q-107 0 -173 43t-66 121zM127 753l71 70l217 -175l-75 -60z" />
    <glyph glyph-name="V.sc" unicode="&#xe035;" horiz-adv-x="648" 
d="M252 0l-195 452h-48v96h254v-96h-48l114 -326h2l120 326h-52v96h240v-96h-48l-199 -452h-140z" />
    <glyph glyph-name="W.sc" unicode="&#xe036;" horiz-adv-x="980" 
d="M244 0l-192 452h-46v96h248v-96h-50l118 -344l113 282l-21 62h-54v96h248v-96h-54l117 -344h2l115 344h-54v96h240v-96h-46l-192 -452h-146l-100 249l-100 -249h-146z" />
    <glyph glyph-name="X.sc" unicode="&#xe037;" horiz-adv-x="611" 
d="M322 0v96h52l-87 103l-91 -103h65v-96h-240v96h41l159 178l-155 178h-45v96h268v-96h-49l79 -93l87 93h-63v96h234v-96h-43l-152 -168l166 -188h42v-96h-268z" />
    <glyph glyph-name="Y.sc" unicode="&#xe038;" horiz-adv-x="611" 
d="M12 452v96h260v-96h-49l96 -139l93 139h-53v96h240v-96h-41l-183 -238v-118h63v-96h-260v96h63v118l-188 238h-41z" />
    <glyph glyph-name="Yacute.sc" unicode="&#xe039;" horiz-adv-x="611" 
d="M12 452v96h260v-96h-49l96 -139l93 139h-53v96h240v-96h-41l-183 -238v-118h63v-96h-260v96h63v118l-188 238h-41zM432 823l71 -70l-213 -165l-75 60z" />
    <glyph glyph-name="Ydieresis.sc" unicode="&#xe03a;" horiz-adv-x="611" 
d="M12 452v96h260v-96h-49l96 -139l93 139h-53v96h240v-96h-41l-183 -238v-118h63v-96h-260v96h63v118l-188 238h-41zM102 700q0 37 24 60.5t64 23.5t64 -23.5t24 -60.5t-24 -60.5t-64 -23.5t-64 23.5t-24 60.5zM334 700q0 37 24 60.5t64 23.5t64 -23.5t24 -60.5t-24 -60.5
t-64 -23.5t-64 23.5t-24 60.5z" />
    <glyph glyph-name="Z.sc" unicode="&#xe03b;" horiz-adv-x="556" 
d="M33 0v96l303 356h-168l-10 -68h-108l10 164h458v-90l-308 -362h189l10 82h114l-10 -178h-480z" />
    <glyph glyph-name="Zcaron.sc" unicode="&#xe03c;" horiz-adv-x="556" 
d="M33 0v96l303 356h-168l-10 -68h-108l10 164h458v-90l-308 -362h189l10 82h114l-10 -178h-480zM278 710l143 112l81 -66l-181 -139h-86l-181 139l81 66z" />
    <glyph glyph-name="f_i.sc" unicode="&#xe03d;" horiz-adv-x="813" 
d="M45 0v96h54v356h-60v96h430l10 -166h-108l-10 70h-128v-128h144v-96h-144v-132h66v-96h-254zM580 96v356h-60v96h254v-96h-60v-356h60v-96h-254v96h60z" />
    <glyph glyph-name="f_l.sc" unicode="&#xe03e;" horiz-adv-x="981" 
d="M45 0v96h54v356h-60v96h430l10 -166h-108l-10 70h-128v-128h144v-96h-144v-132h66v-96h-254zM580 96v356h-60v96h254v-96h-60v-356h126l12 82h108l-13 -178h-427v96h60z" />
    <glyph glyph-name="germandbls.sc" unicode="&#xe03f;" horiz-adv-x="1000" 
d="M437 398h-108v52q-26 15 -79 15q-77 0 -77 -61q0 -26 30.5 -40t73.5 -23t86 -23t73.5 -51t30.5 -96q0 -93 -69.5 -138.5t-173.5 -45.5q-98 0 -185 28l-6 152h114l6 -66q33 -18 87 -18q38 0 62.5 21t24.5 47q0 28 -30.5 43t-73.5 23.5t-86 21t-73.5 48t-30.5 92.5
q0 80 60 131t175 51q74 0 169 -29v-134zM937 398h-108v52q-26 15 -79 15q-77 0 -77 -61q0 -26 30.5 -40t73.5 -23t86 -23t73.5 -51t30.5 -96q0 -93 -69.5 -138.5t-173.5 -45.5q-98 0 -185 28l-6 152h114l6 -66q33 -18 87 -18q38 0 62.5 21t24.5 47q0 28 -30.5 43t-73.5 23.5
t-86 21t-73.5 48t-30.5 92.5q0 80 60 131t175 51q74 0 169 -29v-134z" />
    <glyph glyph-name="zero.taboldstyle" unicode="&#xf643;" horiz-adv-x="592" 
d="M176 260q0 -71 34 -117t86 -46t86 46t34 117t-34 117t-86 46t-86 -46t-34 -117zM30 260q0 141 73 209t193 68t193 -68t73 -209q0 -142 -73 -209.5t-193 -67.5t-193 67.5t-73 209.5z" />
    <glyph glyph-name="one.taboldstyle" unicode="&#xf644;" horiz-adv-x="592" 
d="M229 96v331h-103v96h340v-96h-103v-331h103v-96h-340v96h103z" />
    <glyph glyph-name="two.taboldstyle" unicode="&#xf645;" horiz-adv-x="592" 
d="M68 0v90q167 109 232 168t65 101q0 35 -21 52.5t-55 17.5q-40 0 -64.5 -22.5t-29.5 -59.5h-134q8 83 69.5 136.5t173.5 53.5q98 0 152.5 -46.5t54.5 -120.5q0 -139 -261 -266l2 -2q22 6 69 6h210v-108h-463z" />
    <glyph glyph-name="three.taboldstyle" unicode="&#xf646;" horiz-adv-x="592" 
d="M167 111v102q102 0 154.5 39t52.5 91q0 37 -25 58.5t-59 21.5q-36 0 -62 -20.5t-35 -56.5h-140q13 90 80 140.5t169 50.5q93 0 155.5 -47.5t62.5 -126.5q0 -63 -38.5 -110.5t-114.5 -69.5v-2q81 -7 128 -54.5t47 -115.5q0 -92 -74.5 -151.5t-201.5 -59.5q-110 0 -216 39
v126q83 -45 181 -45q79 0 122 24.5t43 71.5q0 95 -180 95h-49z" />
    <glyph glyph-name="four.taboldstyle" unicode="&#xf647;" horiz-adv-x="592" 
d="M141 123h193v280h-2zM334 21h-315v102l283 400h166v-400h128v-102h-128v-201h-134v201z" />
    <glyph glyph-name="five.taboldstyle" unicode="&#xf648;" horiz-adv-x="592" 
d="M94 159v364h415v-108h-281v-148q65 -2 119 -14t99 -35.5t70.5 -65t25.5 -97.5q0 -109 -83.5 -178t-229.5 -69q-97 0 -165 27v114q73 -27 153 -27q71 0 119 31.5t48 88.5q0 63 -65.5 90t-224.5 27z" />
    <glyph glyph-name="six.taboldstyle" unicode="&#xf649;" horiz-adv-x="592" 
d="M413 213q0 58 -34 90.5t-90 32.5q-62 0 -102 -40q-2 -18 -2 -29q0 -74 31.5 -122t88.5 -48q51 0 79.5 30t28.5 86zM532 702l-8 -102q-42 4 -67 4q-237 0 -266 -209l2 -2q20 30 61.5 46.5t81.5 16.5q105 0 164 -63.5t59 -169.5q0 -108 -73.5 -174t-175.5 -66
q-134 0 -205.5 89.5t-71.5 237.5q0 194 109 298t282 104q68 0 108 -10z" />
    <glyph glyph-name="seven.taboldstyle" unicode="&#xf64a;" horiz-adv-x="592" 
d="M48 415v108h470v-96l-128 -238q-35 -65 -58.5 -105.5t-63.5 -102.5t-82.5 -109t-86.5 -78l-80 80q46 36 93 97.5t120 194.5l137 249h-321z" />
    <glyph glyph-name="eight.taboldstyle" unicode="&#xf64b;" horiz-adv-x="592" 
d="M24 169q0 57 39 105.5t120 80.5q-138 58 -138 169q0 81 65.5 134.5t192.5 53.5q117 0 180.5 -48t63.5 -125q0 -109 -135 -174q156 -56 156 -181q0 -85 -67.5 -143t-210.5 -58q-135 0 -200.5 53.5t-65.5 132.5zM191 524q0 -26 26 -51.5t90 -55.5q106 50 106 111
q0 32 -28 54t-83 22q-54 0 -82.5 -22.5t-28.5 -57.5zM176 191q0 -46 34.5 -70t87.5 -24q55 0 89.5 25t34.5 65q0 33 -27 59t-106 57q-50 -23 -76.5 -44.5t-31.5 -35t-5 -32.5z" />
    <glyph glyph-name="nine.taboldstyle" unicode="&#xf64c;" horiz-adv-x="592" 
d="M60 -182l8 102q42 -4 67 -4q237 0 266 209l-2 2q-20 -30 -61.5 -46.5t-81.5 -16.5q-105 0 -164 63.5t-59 169.5q0 108 73.5 174t175.5 66q134 0 205.5 -89.5t71.5 -237.5q0 -194 -109 -298t-282 -104q-68 0 -108 10zM179 307q0 -58 34 -90.5t90 -32.5q62 0 102 40
q2 18 2 29q0 74 -31.5 122t-88.5 48q-51 0 -79.5 -30t-28.5 -86z" />
    <glyph glyph-name="dollar.taboldstyle" unicode="&#xf653;" horiz-adv-x="592" 
d="M245 102v196q-113 15 -170.5 61t-57.5 139t61 151t167 68v134h96v-134q93 0 194 -31v-171h-120v79q-39 15 -74 15v-183q55 -8 94.5 -21t73 -36.5t50 -61.5t16.5 -91q0 -57 -23 -102.5t-59.5 -71.5t-75.5 -39.5t-76 -14.5v-134h-96v134q-139 2 -225 32v188h140v-91
q47 -13 85 -15zM245 441v168q-42 -7 -65 -31.5t-23 -59.5q0 -61 88 -77zM341 282v-180q42 3 72 30.5t30 67.5q0 71 -102 82z" />
    <glyph glyph-name="cent.taboldstyle" unicode="&#xf654;" horiz-adv-x="592" 
d="M285 -135v128q-114 14 -174 83t-60 185q0 48 12.5 91t38.5 81.5t73 65.5t110 36v95h96v-95q92 -4 160 -33v-147h-108v61q-21 11 -52 11v-325q85 0 147 31l-7 -120q-52 -20 -140 -25v-123h-96zM285 113v310q-45 -11 -69.5 -53t-24.5 -100q0 -60 24.5 -101.5t69.5 -55.5z
" />
    <glyph glyph-name="breve.sc" unicode="&#xf6f4;" 
d="M-36 795l97 20q13 -50 37 -72.5t68 -22.5t68 22.5t37 72.5l97 -20q-16 -78 -65 -124.5t-137 -46.5t-137 46.5t-65 124.5z" />
    <glyph glyph-name="caron.sc" unicode="&#xf6f5;" 
d="M166 710l143 112l81 -66l-181 -139h-86l-181 139l81 66z" />
    <glyph glyph-name="circumflex.sc" unicode="&#xf6f6;" 
d="M309 604l-143 112l-143 -112l-81 66l181 139h86l181 -139z" />
    <glyph glyph-name="dotaccent.sc" unicode="&#xf6f7;" 
d="M78 700q0 37 24 60.5t64 23.5t64 -23.5t24 -60.5t-24 -60.5t-64 -23.5t-64 23.5t-24 60.5z" />
    <glyph glyph-name="hungarumlaut.sc" unicode="&#xf6f8;" 
d="M-41 648l217 175l71 -70l-213 -165zM191 648l217 175l71 -70l-213 -165z" />
    <glyph glyph-name="lslash.sc" unicode="&#xf6f9;" horiz-adv-x="500" 
d="M99 96v80l-60 -33v80l60 33v196h-60v96h254v-96h-60v-115l109 61v-80l-109 -61v-161h126l12 82h108l-13 -178h-427v96h60z" />
    <glyph glyph-name="oe.sc" unicode="&#xf6fa;" horiz-adv-x="815" 
d="M535 324h144v-96h-144v-132h129l10 82h108l-15 -178h-486q-121 0 -184.5 75t-63.5 185q0 133 75 210.5t212 77.5h446l10 -166h-102l-10 70h-129v-128zM401 96v356h-71q-151 0 -151 -188q0 -168 158 -168h64z" />
    <glyph glyph-name="ogonek.sc" unicode="&#xf6fb;" 
d="M192 0h64q-87 -69 -87 -135q0 -18 10 -30t30 -12q26 0 52 11l12 -57q-44 -16 -89 -16q-49 0 -80 22.5t-31 65.5q0 77 119 151z" />
    <glyph glyph-name="ring.sc" unicode="&#xf6fc;" 
d="M47 713q0 47 33 77.5t86 30.5t86 -30.5t33 -77.5t-33 -77.5t-86 -30.5t-86 30.5t-33 77.5zM207 713q0 24 -11 38t-30 14t-30 -14t-11 -38t11 -38t30 -14t30 14t11 38z" />
    <glyph glyph-name="scaron.sc" unicode="&#xf6fd;" horiz-adv-x="500" 
d="M437 398h-108v52q-26 15 -79 15q-77 0 -77 -61q0 -26 30.5 -40t73.5 -23t86 -23t73.5 -51t30.5 -96q0 -93 -69.5 -138.5t-173.5 -45.5q-98 0 -185 28l-6 152h114l6 -66q33 -18 87 -18q38 0 62.5 21t24.5 47q0 28 -30.5 43t-73.5 23.5t-86 21t-73.5 48t-30.5 92.5
q0 80 60 131t175 51q74 0 169 -29v-134zM250 710l143 112l81 -66l-181 -139h-86l-181 139l81 66z" />
    <glyph glyph-name="tilde.sc" unicode="&#xf6fe;" 
d="M46 631l-85 41q20 49 56 78.5t82 29.5q35 0 78.5 -26t61.5 -26t29.5 8.5t30.5 35.5l72 -51q-50 -95 -129 -95q-29 0 -76.5 27.5t-64.5 27.5q-29 0 -55 -50z" />
    <glyph glyph-name="zcaron.sc" unicode="&#xf6ff;" horiz-adv-x="556" 
d="M33 0v96l303 356h-168l-10 -68h-108l10 164h458v-90l-308 -362h189l10 82h114l-10 -178h-480zM278 710l143 112l81 -66l-181 -139h-86l-181 139l81 66z" />
    <glyph glyph-name="exclam.sc" unicode="&#xf721;" horiz-adv-x="296" 
d="M81 224l-12 545h158l-12 -545h-134zM54 73q0 43 26.5 66.5t67.5 23.5t67.5 -23.5t26.5 -66.5q0 -39 -25 -64.5t-69 -25.5t-69 25.5t-25 64.5z" />
    <glyph glyph-name="ampersand.sc" unicode="&#xf726;" horiz-adv-x="611" 
d="M334 116l-123 120q-44 -28 -44 -71q0 -32 25.5 -54t67.5 -22q41 0 74 27zM238 361q60 40 60 70q0 44 -51 44q-52 0 -52 -44q0 -29 43 -70zM400 260v86h190v-86h-50q-9 -86 -60 -142q24 -22 61 -22q7 0 33 7v-96q-30 -7 -55 -7q-71 0 -112 41q-67 -54 -171 -54
q-93 0 -145 43.5t-52 111.5q0 50 20.5 85t87.5 75q-38 34 -52 60.5t-14 55.5q0 68 47.5 105.5t121.5 37.5q67 0 108.5 -31t41.5 -90q0 -83 -99 -144l110 -108q24 29 27 72h-38z" />
    <glyph glyph-name="question.sc" unicode="&#xf73f;" horiz-adv-x="481" 
d="M64 651l-5 111q95 22 160 22q71 0 122.5 -19t77 -49t36.5 -59.5t11 -58.5q0 -57 -26 -101t-62.5 -68.5t-73 -44.5t-62.5 -41.5t-26 -46.5q0 -19 22 -52l-126 -37q-36 50 -36 99q0 40 24.5 70t59.5 49l70 38t59.5 48.5t24.5 67.5q0 45 -35.5 68t-89.5 23q-60 0 -125 -19z
M68 73q0 43 26.5 66.5t67.5 23.5t67.5 -23.5t26.5 -66.5q0 -39 -25 -64.5t-69 -25.5t-69 25.5t-25 64.5z" />
    <glyph glyph-name="grave.sc" unicode="&#xf760;" 
d="M-31 753l71 70l217 -175l-75 -60z" />
    <glyph glyph-name="a.sc" unicode="&#xf761;" horiz-adv-x="648" 
d="M56 96l196 452h152l186 -452h49v-96h-254v96h47l-29 82h-180l-27 -82h47v-96h-234v96h47zM255 274h118l-56 166h-2z" />
    <glyph glyph-name="b.sc" unicode="&#xf762;" horiz-adv-x="519" 
d="M233 452v-128h35q74 0 74 66q0 62 -74 62h-35zM99 96v356h-60v96h271q76 0 121 -33.5t45 -100.5q0 -103 -120 -122v-2q66 -3 104 -37t38 -94q0 -79 -49.5 -119t-137.5 -40h-266v96h54zM233 228v-132h40q48 0 69.5 15.5t21.5 50.5q0 36 -22 51t-69 15h-40z" />
    <glyph glyph-name="c.sc" unicode="&#xf763;" horiz-adv-x="556" 
d="M415 102l6 75h102v-158q-108 -32 -190 -32q-142 0 -221 67.5t-79 201.5q0 156 87.5 230.5t228.5 74.5q89 0 174 -32v-152h-108v65q-51 11 -74 11q-162 0 -162 -176q0 -103 45.5 -142.5t126.5 -39.5q31 0 64 7z" />
    <glyph glyph-name="d.sc" unicode="&#xf764;" horiz-adv-x="630" 
d="M233 452v-356h64q71 0 112.5 48.5t41.5 129.5q0 178 -154 178h-64zM99 96v356h-60v96h277q131 0 206 -66.5t75 -207.5q0 -116 -74 -195t-202 -79h-282v96h60z" />
    <glyph glyph-name="e.sc" unicode="&#xf765;" horiz-adv-x="519" 
d="M99 96v356h-60v96h431l10 -166h-102l-10 70h-135v-128h144v-96h-144v-132h135l10 82h108l-15 -178h-426v96h54z" />
    <glyph glyph-name="f.sc" unicode="&#xf766;" horiz-adv-x="481" 
d="M45 0v96h54v356h-60v96h430l10 -166h-108l-10 70h-128v-128h144v-96h-144v-132h66v-96h-254z" />
    <glyph glyph-name="g.sc" unicode="&#xf767;" horiz-adv-x="611" 
d="M408 104v84h-58v96h228v-96h-52v-169q-110 -32 -204 -32q-133 0 -211 72t-78 200q0 150 89 226t228 76q93 0 182 -32v-152h-108v64q-42 12 -74 12q-82 0 -126.5 -47t-44.5 -131q0 -87 42.5 -133.5t110.5 -46.5q26 0 76 9z" />
    <glyph glyph-name="h.sc" unicode="&#xf768;" horiz-adv-x="666" 
d="M99 96v356h-60v96h254v-96h-60v-128h200v128h-60v96h254v-96h-60v-356h60v-96h-254v96h60v132h-200v-132h60v-96h-254v96h60z" />
    <glyph glyph-name="i.sc" unicode="&#xf769;" 
d="M99 96v356h-60v96h254v-96h-60v-356h60v-96h-254v96h60z" />
    <glyph glyph-name="j.sc" unicode="&#xf76a;" horiz-adv-x="315" 
d="M85 138v314h-57v96h248v-96h-57v-352q0 -74 -42.5 -138.5t-130.5 -108.5l-57 91q53 35 74.5 77t21.5 117z" />
    <glyph glyph-name="k.sc" unicode="&#xf76b;" horiz-adv-x="630" 
d="M99 96v356h-60v96h248v-96h-54v-161l176 161h-52v96h240v-96h-41l-188 -168l197 -188h44v-96h-254v96h44l-166 159v-159h54v-96h-248v96h60z" />
    <glyph glyph-name="l.sc" unicode="&#xf76c;" horiz-adv-x="500" 
d="M99 96v356h-60v96h254v-96h-60v-356h126l12 82h108l-13 -178h-427v96h60z" />
    <glyph glyph-name="m.sc" unicode="&#xf76d;" horiz-adv-x="852" 
d="M28 452v96h263l136 -390h2l143 390h241v-96h-51v-356h62v-96h-240v96h50v316h-2l-153 -412h-128l-146 405h-2v-309h47v-96h-222v96h61v356h-61z" />
    <glyph glyph-name="n.sc" unicode="&#xf76e;" horiz-adv-x="666" 
d="M88 96v356h-60v96h190l244 -328h2v232h-60v96h234v-96h-54v-452h-116l-258 348h-2v-252h60v-96h-234v96h54z" />
    <glyph glyph-name="o.sc" unicode="&#xf76f;" horiz-adv-x="630" 
d="M33 274q0 135 77.5 211t204.5 76t204.5 -76t77.5 -211t-77.5 -211t-204.5 -76t-204.5 76t-77.5 211zM179 274q0 -92 39 -135.5t97 -43.5t97 43.5t39 135.5t-39 135.5t-97 43.5t-97 -43.5t-39 -135.5z" />
    <glyph glyph-name="p.sc" unicode="&#xf770;" horiz-adv-x="500" 
d="M233 452v-139h45q42 0 60.5 14.5t18.5 59.5q0 65 -78 65h-46zM99 96v356h-60v96h281q81 0 126 -43t45 -114q0 -89 -50.5 -133t-131.5 -44h-76v-118h72v-96h-260v96h54z" />
    <glyph glyph-name="q.sc" unicode="&#xf771;" horiz-adv-x="630" 
d="M466 -103l-105 64q-42 26 -81 29q-112 8 -179.5 83t-67.5 201q0 135 77.5 211t204.5 76t204.5 -76t77.5 -211q0 -95 -39.5 -162t-111.5 -97l2 -2q8 3 21 3q25 0 112 -40q34 -15 51 -15q6 0 33 5v-102q-24 -11 -57 -11q-38 0 -66.5 8t-75.5 36zM179 274q0 -92 39 -135.5
t97 -43.5t97 43.5t39 135.5t-39 135.5t-97 43.5t-97 -43.5t-39 -135.5z" />
    <glyph glyph-name="r.sc" unicode="&#xf772;" horiz-adv-x="556" 
d="M267 452h-34v-134h34q81 0 81 71q0 36 -18.5 49.5t-62.5 13.5zM99 96v356h-60v96h277q81 0 123.5 -39t42.5 -107q0 -53 -33 -92.5t-108 -51.5v-2q39 -4 60.5 -16.5t39.5 -39.5l59 -90q3 -5 13 -9.5t19 -4.5q6 0 18 6v-102h-95q-33 0 -50.5 11.5t-34.5 42.5l-75 138
q-11 20 -22.5 25t-39.5 5v-126h40v-96h-234v96h60z" />
    <glyph glyph-name="s.sc" unicode="&#xf773;" horiz-adv-x="500" 
d="M437 398h-108v52q-26 15 -79 15q-77 0 -77 -61q0 -26 30.5 -40t73.5 -23t86 -23t73.5 -51t30.5 -96q0 -93 -69.5 -138.5t-173.5 -45.5q-98 0 -185 28l-6 152h114l6 -66q33 -18 87 -18q38 0 62.5 21t24.5 47q0 28 -30.5 43t-73.5 23.5t-86 21t-73.5 48t-30.5 92.5
q0 80 60 131t175 51q74 0 169 -29v-134z" />
    <glyph glyph-name="t.sc" unicode="&#xf774;" horiz-adv-x="536" 
d="M201 96v356h-83l-7 -70h-102l7 166h504l7 -166h-102l-7 70h-83v-356h63v-96h-260v96h63z" />
    <glyph glyph-name="u.sc" unicode="&#xf775;" horiz-adv-x="648" 
d="M88 151v301h-60v96h254v-96h-60v-264q0 -43 27.5 -68t84.5 -25q102 0 102 104v253h-56v96h240v-96h-56v-223q0 -54 -10.5 -95t-36 -76t-73.5 -53t-117 -18q-107 0 -173 43t-66 121z" />
    <glyph glyph-name="v.sc" unicode="&#xf776;" horiz-adv-x="648" 
d="M252 0l-195 452h-48v96h254v-96h-48l114 -326h2l120 326h-52v96h240v-96h-48l-199 -452h-140z" />
    <glyph glyph-name="w.sc" unicode="&#xf777;" horiz-adv-x="980" 
d="M244 0l-192 452h-46v96h248v-96h-50l118 -344l113 282l-21 62h-54v96h248v-96h-54l117 -344h2l115 344h-54v96h240v-96h-46l-192 -452h-146l-100 249l-100 -249h-146z" />
    <glyph glyph-name="x.sc" unicode="&#xf778;" horiz-adv-x="611" 
d="M322 0v96h52l-87 103l-91 -103h65v-96h-240v96h41l159 178l-155 178h-45v96h268v-96h-49l79 -93l87 93h-63v96h234v-96h-43l-152 -168l166 -188h42v-96h-268z" />
    <glyph glyph-name="y.sc" unicode="&#xf779;" horiz-adv-x="611" 
d="M12 452v96h260v-96h-49l96 -139l93 139h-53v96h240v-96h-41l-183 -238v-118h63v-96h-260v96h63v118l-188 238h-41z" />
    <glyph glyph-name="z.sc" unicode="&#xf77a;" horiz-adv-x="556" 
d="M33 0v96l303 356h-168l-10 -68h-108l10 164h458v-90l-308 -362h189l10 82h114l-10 -178h-480z" />
    <glyph glyph-name="exclamdown.sc" unicode="&#xf7a1;" horiz-adv-x="296" 
d="M69 -236l12 545h134l12 -545h-158zM54 460q0 39 25 64.5t69 25.5t69 -25.5t25 -64.5q0 -43 -26.5 -66.5t-67.5 -23.5t-67.5 23.5t-26.5 66.5z" />
    <glyph glyph-name="dieresis.sc" unicode="&#xf7a8;" 
d="M-38 700q0 37 24 60.5t64 23.5t64 -23.5t24 -60.5t-24 -60.5t-64 -23.5t-64 23.5t-24 60.5zM194 700q0 37 24 60.5t64 23.5t64 -23.5t24 -60.5t-24 -60.5t-64 -23.5t-64 23.5t-24 60.5z" />
    <glyph glyph-name="macron.sc" unicode="&#xf7af;" 
d="M7 654v102h318v-102h-318z" />
    <glyph glyph-name="acute.sc" unicode="&#xf7b4;" 
d="M292 823l71 -70l-213 -165l-75 60z" />
    <glyph glyph-name="cedilla.sc" unicode="&#xf7b8;" 
d="M116 -104v108h90v-64q60 0 83.5 -25t23.5 -60q0 -48 -42.5 -77t-110.5 -29q-49 0 -111 15l4 73q40 -14 73 -14q31 0 49 10.5t18 27.5q0 18 -16 26.5t-61 8.5z" />
    <glyph glyph-name="questiondown.sc" unicode="&#xf7bf;" horiz-adv-x="481" 
d="M213 289l126 37q36 -50 36 -99q0 -40 -24.5 -70t-59.5 -49l-70 -38t-59.5 -48.5t-24.5 -67.5q0 -45 35.5 -68t89.5 -23q60 0 125 19l5 -111q-95 -22 -160 -22q-71 0 -122.5 19t-77 49t-36.5 59.5t-11 58.5q0 49 18.5 88t46.5 61.5t60 43.5t60 35t46.5 33t18.5 41
q0 19 -22 52zM195 460q0 39 25 64.5t69 25.5t69 -25.5t25 -64.5q0 -43 -26.5 -66.5t-67.5 -23.5t-67.5 23.5t-26.5 66.5z" />
    <glyph glyph-name="agrave.sc" unicode="&#xf7e0;" horiz-adv-x="648" 
d="M56 96l196 452h152l186 -452h49v-96h-254v96h47l-29 82h-180l-27 -82h47v-96h-234v96h47zM255 274h118l-56 166h-2zM127 753l71 70l217 -175l-75 -60z" />
    <glyph glyph-name="aacute.sc" unicode="&#xf7e1;" horiz-adv-x="648" 
d="M56 96l196 452h152l186 -452h49v-96h-254v96h47l-29 82h-180l-27 -82h47v-96h-234v96h47zM255 274h118l-56 166h-2zM450 823l71 -70l-213 -165l-75 60z" />
    <glyph glyph-name="acircumflex.sc" unicode="&#xf7e2;" horiz-adv-x="648" 
d="M56 96l196 452h152l186 -452h49v-96h-254v96h47l-29 82h-180l-27 -82h47v-96h-234v96h47zM255 274h118l-56 166h-2zM467 604l-143 112l-143 -112l-81 66l181 139h86l181 -139z" />
    <glyph glyph-name="atilde.sc" unicode="&#xf7e3;" horiz-adv-x="648" 
d="M56 96l196 452h152l186 -452h49v-96h-254v96h47l-29 82h-180l-27 -82h47v-96h-234v96h47zM255 274h118l-56 166h-2zM204 631l-85 41q20 49 56 78.5t82 29.5q35 0 78.5 -26t61.5 -26t29.5 8.5t30.5 35.5l72 -51q-50 -95 -129 -95q-29 0 -76.5 27.5t-64.5 27.5
q-29 0 -55 -50z" />
    <glyph glyph-name="adieresis.sc" unicode="&#xf7e4;" horiz-adv-x="648" 
d="M56 96l196 452h152l186 -452h49v-96h-254v96h47l-29 82h-180l-27 -82h47v-96h-234v96h47zM255 274h118l-56 166h-2zM120 700q0 37 24 60.5t64 23.5t64 -23.5t24 -60.5t-24 -60.5t-64 -23.5t-64 23.5t-24 60.5zM352 700q0 37 24 60.5t64 23.5t64 -23.5t24 -60.5t-24 -60.5
t-64 -23.5t-64 23.5t-24 60.5z" />
    <glyph glyph-name="aring.sc" unicode="&#xf7e5;" horiz-adv-x="648" 
d="M56 96l196 452h152l186 -452h49v-96h-254v96h47l-29 82h-180l-27 -82h47v-96h-234v96h47zM255 274h118l-56 166h-2zM205 713q0 47 33 77.5t86 30.5t86 -30.5t33 -77.5t-33 -77.5t-86 -30.5t-86 30.5t-33 77.5zM365 713q0 24 -11 38t-30 14t-30 -14t-11 -38t11 -38t30 -14
t30 14t11 38z" />
    <glyph glyph-name="ae.sc" unicode="&#xf7e6;" horiz-adv-x="852" 
d="M429 324v128h-49l-70 -128h119zM9 96h46l269 452h455l4 -166h-102l-4 70h-114v-128h121v-96h-121v-132h130l12 82h108l-14 -178h-424v96h54v132h-167l-67 -132h54v-96h-240v96z" />
    <glyph glyph-name="ccedilla.sc" unicode="&#xf7e7;" horiz-adv-x="556" 
d="M268 -104v95q-112 14 -173.5 80.5t-61.5 184.5q0 156 87.5 230.5t228.5 74.5q89 0 174 -32v-152h-108v65q-51 11 -74 11q-162 0 -162 -176q0 -103 45.5 -142.5t126.5 -39.5q31 0 64 7l6 75h102v-158q-89 -27 -165 -32v-47q60 0 83.5 -25t23.5 -60q0 -48 -42.5 -77
t-110.5 -29q-49 0 -111 15l4 73q40 -14 73 -14q31 0 49 10.5t18 27.5q0 18 -16 26.5t-61 8.5z" />
    <glyph glyph-name="egrave.sc" unicode="&#xf7e8;" horiz-adv-x="519" 
d="M99 96v356h-60v96h431l10 -166h-102l-10 70h-135v-128h144v-96h-144v-132h135l10 82h108l-15 -178h-426v96h54zM63 753l71 70l217 -175l-75 -60z" />
    <glyph glyph-name="eacute.sc" unicode="&#xf7e9;" horiz-adv-x="519" 
d="M99 96v356h-60v96h431l10 -166h-102l-10 70h-135v-128h144v-96h-144v-132h135l10 82h108l-15 -178h-426v96h54zM386 823l71 -70l-213 -165l-75 60z" />
    <glyph glyph-name="ecircumflex.sc" unicode="&#xf7ea;" horiz-adv-x="519" 
d="M99 96v356h-60v96h431l10 -166h-102l-10 70h-135v-128h144v-96h-144v-132h135l10 82h108l-15 -178h-426v96h54zM403 604l-143 112l-143 -112l-81 66l181 139h86l181 -139z" />
    <glyph glyph-name="edieresis.sc" unicode="&#xf7eb;" horiz-adv-x="519" 
d="M99 96v356h-60v96h431l10 -166h-102l-10 70h-135v-128h144v-96h-144v-132h135l10 82h108l-15 -178h-426v96h54zM56 700q0 37 24 60.5t64 23.5t64 -23.5t24 -60.5t-24 -60.5t-64 -23.5t-64 23.5t-24 60.5zM288 700q0 37 24 60.5t64 23.5t64 -23.5t24 -60.5t-24 -60.5
t-64 -23.5t-64 23.5t-24 60.5z" />
    <glyph glyph-name="igrave.sc" unicode="&#xf7ec;" 
d="M99 96v356h-60v96h254v-96h-60v-356h60v-96h-254v96h60zM-31 753l71 70l217 -175l-75 -60z" />
    <glyph glyph-name="iacute.sc" unicode="&#xf7ed;" 
d="M99 96v356h-60v96h254v-96h-60v-356h60v-96h-254v96h60zM292 823l71 -70l-213 -165l-75 60z" />
    <glyph glyph-name="icircumflex.sc" unicode="&#xf7ee;" 
d="M99 96v356h-60v96h254v-96h-60v-356h60v-96h-254v96h60zM309 604l-143 112l-143 -112l-81 66l181 139h86l181 -139z" />
    <glyph glyph-name="idieresis.sc" unicode="&#xf7ef;" 
d="M99 96v356h-60v96h254v-96h-60v-356h60v-96h-254v96h60zM-38 700q0 37 24 60.5t64 23.5t64 -23.5t24 -60.5t-24 -60.5t-64 -23.5t-64 23.5t-24 60.5zM194 700q0 37 24 60.5t64 23.5t64 -23.5t24 -60.5t-24 -60.5t-64 -23.5t-64 23.5t-24 60.5z" />
    <glyph glyph-name="eth.sc" unicode="&#xf7f0;" horiz-adv-x="630" 
d="M99 96v132h-60v96h60v128h-60v96h277q131 0 206 -66.5t75 -207.5q0 -116 -74 -195t-202 -79h-282v96h60zM233 324h85v-96h-85v-132h64q71 0 112.5 48.5t41.5 129.5q0 178 -154 178h-64v-128z" />
    <glyph glyph-name="ntilde.sc" unicode="&#xf7f1;" horiz-adv-x="666" 
d="M88 96v356h-60v96h190l244 -328h2v232h-60v96h234v-96h-54v-452h-116l-258 348h-2v-252h60v-96h-234v96h54zM213 631l-85 41q20 49 56 78.5t82 29.5q35 0 78.5 -26t61.5 -26t29.5 8.5t30.5 35.5l72 -51q-50 -95 -129 -95q-29 0 -76.5 27.5t-64.5 27.5q-29 0 -55 -50z" />
    <glyph glyph-name="ograve.sc" unicode="&#xf7f2;" horiz-adv-x="630" 
d="M33 274q0 135 77.5 211t204.5 76t204.5 -76t77.5 -211t-77.5 -211t-204.5 -76t-204.5 76t-77.5 211zM179 274q0 -92 39 -135.5t97 -43.5t97 43.5t39 135.5t-39 135.5t-97 43.5t-97 -43.5t-39 -135.5zM118 753l71 70l217 -175l-75 -60z" />
    <glyph glyph-name="oacute.sc" unicode="&#xf7f3;" horiz-adv-x="630" 
d="M33 274q0 135 77.5 211t204.5 76t204.5 -76t77.5 -211t-77.5 -211t-204.5 -76t-204.5 76t-77.5 211zM179 274q0 -92 39 -135.5t97 -43.5t97 43.5t39 135.5t-39 135.5t-97 43.5t-97 -43.5t-39 -135.5zM441 823l71 -70l-213 -165l-75 60z" />
    <glyph glyph-name="ocircumflex.sc" unicode="&#xf7f4;" horiz-adv-x="630" 
d="M33 274q0 135 77.5 211t204.5 76t204.5 -76t77.5 -211t-77.5 -211t-204.5 -76t-204.5 76t-77.5 211zM179 274q0 -92 39 -135.5t97 -43.5t97 43.5t39 135.5t-39 135.5t-97 43.5t-97 -43.5t-39 -135.5zM458 604l-143 112l-143 -112l-81 66l181 139h86l181 -139z" />
    <glyph glyph-name="otilde.sc" unicode="&#xf7f5;" horiz-adv-x="630" 
d="M33 274q0 135 77.5 211t204.5 76t204.5 -76t77.5 -211t-77.5 -211t-204.5 -76t-204.5 76t-77.5 211zM179 274q0 -92 39 -135.5t97 -43.5t97 43.5t39 135.5t-39 135.5t-97 43.5t-97 -43.5t-39 -135.5zM195 631l-85 41q20 49 56 78.5t82 29.5q35 0 78.5 -26t61.5 -26
t29.5 8.5t30.5 35.5l72 -51q-50 -95 -129 -95q-29 0 -76.5 27.5t-64.5 27.5q-29 0 -55 -50z" />
    <glyph glyph-name="odieresis.sc" unicode="&#xf7f6;" horiz-adv-x="630" 
d="M33 274q0 135 77.5 211t204.5 76t204.5 -76t77.5 -211t-77.5 -211t-204.5 -76t-204.5 76t-77.5 211zM179 274q0 -92 39 -135.5t97 -43.5t97 43.5t39 135.5t-39 135.5t-97 43.5t-97 -43.5t-39 -135.5zM111 700q0 37 24 60.5t64 23.5t64 -23.5t24 -60.5t-24 -60.5
t-64 -23.5t-64 23.5t-24 60.5zM343 700q0 37 24 60.5t64 23.5t64 -23.5t24 -60.5t-24 -60.5t-64 -23.5t-64 23.5t-24 60.5z" />
    <glyph glyph-name="oslash.sc" unicode="&#xf7f8;" horiz-adv-x="630" 
d="M121 -86l-55 35l63 97q-96 77 -96 228q0 135 77.5 211t204.5 76q73 0 130 -26l64 99l55 -35l-63 -98q96 -77 96 -227q0 -135 -77.5 -211t-204.5 -76q-73 0 -130 26zM203 161l178 275q-28 17 -66 17q-58 0 -97 -43.5t-39 -135.5q0 -70 24 -113zM427 387l-177 -274
q28 -18 65 -18q58 0 97 43.5t39 135.5q0 71 -24 113z" />
    <glyph glyph-name="ugrave.sc" unicode="&#xf7f9;" horiz-adv-x="648" 
d="M88 151v301h-60v96h254v-96h-60v-264q0 -43 27.5 -68t84.5 -25q102 0 102 104v253h-56v96h240v-96h-56v-223q0 -54 -10.5 -95t-36 -76t-73.5 -53t-117 -18q-107 0 -173 43t-66 121zM127 753l71 70l217 -175l-75 -60z" />
    <glyph glyph-name="uacute.sc" unicode="&#xf7fa;" horiz-adv-x="648" 
d="M88 151v301h-60v96h254v-96h-60v-264q0 -43 27.5 -68t84.5 -25q102 0 102 104v253h-56v96h240v-96h-56v-223q0 -54 -10.5 -95t-36 -76t-73.5 -53t-117 -18q-107 0 -173 43t-66 121zM450 823l71 -70l-213 -165l-75 60z" />
    <glyph glyph-name="ucircumflex.sc" unicode="&#xf7fb;" horiz-adv-x="648" 
d="M88 151v301h-60v96h254v-96h-60v-264q0 -43 27.5 -68t84.5 -25q102 0 102 104v253h-56v96h240v-96h-56v-223q0 -54 -10.5 -95t-36 -76t-73.5 -53t-117 -18q-107 0 -173 43t-66 121zM457 604l-143 112l-143 -112l-81 66l181 139h86l181 -139z" />
    <glyph glyph-name="udieresis.sc" unicode="&#xf7fc;" horiz-adv-x="648" 
d="M88 151v301h-60v96h254v-96h-60v-264q0 -43 27.5 -68t84.5 -25q102 0 102 104v253h-56v96h240v-96h-56v-223q0 -54 -10.5 -95t-36 -76t-73.5 -53t-117 -18q-107 0 -173 43t-66 121zM110 700q0 37 24 60.5t64 23.5t64 -23.5t24 -60.5t-24 -60.5t-64 -23.5t-64 23.5
t-24 60.5zM342 700q0 37 24 60.5t64 23.5t64 -23.5t24 -60.5t-24 -60.5t-64 -23.5t-64 23.5t-24 60.5z" />
    <glyph glyph-name="yacute.sc" unicode="&#xf7fd;" horiz-adv-x="611" 
d="M12 452v96h260v-96h-49l96 -139l93 139h-53v96h240v-96h-41l-183 -238v-118h63v-96h-260v96h63v118l-188 238h-41zM432 823l71 -70l-213 -165l-75 60z" />
    <glyph glyph-name="thorn.sc" unicode="&#xf7fe;" horiz-adv-x="500" 
d="M233 323v-98h45q41 0 60 11.5t19 43.5q0 20 -23 31.5t-55 11.5h-46zM99 96v356h-60v96h266v-96h-72v-33h87q79 0 125 -39.5t46 -95.5q0 -74 -51.5 -114.5t-130.5 -40.5h-76v-33h72v-96h-260v96h54z" />
    <glyph glyph-name="ydieresis.sc" unicode="&#xf7ff;" horiz-adv-x="611" 
d="M12 452v96h260v-96h-49l96 -139l93 139h-53v96h240v-96h-41l-183 -238v-118h63v-96h-260v96h63v118l-188 238h-41zM102 700q0 37 24 60.5t64 23.5t64 -23.5t24 -60.5t-24 -60.5t-64 -23.5t-64 23.5t-24 60.5zM334 700q0 37 24 60.5t64 23.5t64 -23.5t24 -60.5t-24 -60.5
t-64 -23.5t-64 23.5t-24 60.5z" />
    </font>
</defs>
</svg>
