<?xml version="1.0" standalone="no"?>
<!DOCTYPE svg PUBLIC "-//W3C//DTD SVG 1.1//EN" "http://www.w3.org/Graphics/SVG/1.1/DTD/svg11.dtd" >
<svg xmlns="http://www.w3.org/2000/svg" xmlns:xlink="http://www.w3.org/1999/xlink" version="1.1">
<metadata>
Created by FontForge 20150824 at Mon Feb 22 02:07:41 2016
 By Everything Fonts
Copyright (c) 1991, 1992, 2002 Adobe Systems Incorporated.  All Rights Reserved. (c) 1981, 2002 Heidelberger Druckmaschinen AG. All rights reserved.
</metadata>
<defs>
<font id="CaeciliaLTStdLight" horiz-adv-x="556" >
  <font-face 
    font-family="CaeciliaLTStdLight"
    font-weight="300"
    font-stretch="normal"
    units-per-em="1000"
    panose-1="0 0 4 0 0 0 0 0 0 0"
    ascent="769"
    descent="-231"
    x-height="514"
    cap-height="700"
    bbox="-164 -266 1130 908"
    underline-thickness="50"
    underline-position="-150"
    unicode-range="U+0020-FB02"
  />
<missing-glyph horiz-adv-x="500" 
d="M0 0v700h500v-700h-500zM250 395l170 255h-340zM280 350l170 -255v510zM80 50h340l-170 255zM50 605v-510l170 255z" />
    <glyph glyph-name="f_i" unicode="fi" horiz-adv-x="611" 
d="M349 0v44h91l4 426h-254l-2 -426h91v-44h-230v44h87l2 426h-110v44h110l1 86q2 84 56 130.5t147 46.5q64 0 126 -15v-47q-45 18 -123 18q-75 0 -113.5 -38t-40.5 -101l-1 -80h306l-4 -470h91v-44h-234z" />
    <glyph glyph-name="f_l" unicode="fl" horiz-adv-x="630" 
d="M372 0v44h86l4 673q-43 16 -117 16q-75 0 -113.5 -38t-40.5 -101l-1 -80h155v-44h-155l-2 -426h91v-44h-230v44h87l2 426h-110v44h110l1 86q2 84 56 130.5t147 46.5q68 0 126 -14l46 6l-4 -725h86v-44h-224z" />
    <glyph glyph-name=".notdef" horiz-adv-x="500" 
d="M0 0v700h500v-700h-500zM250 395l170 255h-340zM280 350l170 -255v510zM80 50h340l-170 255zM50 605v-510l170 255z" />
    <glyph glyph-name=".null" horiz-adv-x="0" 
 />
    <glyph glyph-name="nonmarkingreturn" horiz-adv-x="333" 
 />
    <glyph glyph-name="space" unicode=" " horiz-adv-x="278" 
 />
    <glyph glyph-name="exclam" unicode="!" horiz-adv-x="316" 
d="M188 769l-8 -529h-44l-8 529h60zM112 36q0 20 13.5 34t32.5 14t32.5 -14t13.5 -34t-13.5 -34t-32.5 -14t-32.5 14t-13.5 34z" />
    <glyph glyph-name="quotedbl" unicode="&#x22;" horiz-adv-x="333" 
d="M218 560l-10 136q-3 27 -3 44q0 14 9 25.5t29 11.5t29 -11.5t9 -25.5q0 -17 -3 -44l-10 -136q-2 -27 -25 -27t-25 27zM65 560l-10 136q-3 27 -3 44q0 14 9 25.5t29 11.5t29 -11.5t9 -25.5q0 -17 -3 -44l-10 -136q-2 -27 -25 -27t-25 27z" />
    <glyph glyph-name="numbersign" unicode="#" 
d="M338 272l22 156h-142l-22 -156h142zM300 0l31 224h-142l-31 -224h-48l31 224h-112v48h119l22 156h-112v48h119l31 224h48l-31 -224h142l31 224h48l-31 -224h112v-48h-119l-22 -156h112v-48h-119l-31 -224h-48z" />
    <glyph glyph-name="dollar" unicode="$" 
d="M45 156h48l-2 -98q69 -20 161 -20l2 292l-38 9q-174 41 -174 178q0 52 22.5 92t57 60.5t69 30.5t65.5 10l2 127h44l-2 -127q92 0 176 -28l-2 -128h-48l2 88q-11 6 -52 13t-76 7l-2 -284l48 -12q168 -42 168 -177q0 -92 -63 -143.5t-155 -55.5l-2 -134h-44l2 134
q-52 0 -117 9t-92 17zM254 386l2 276q-33 0 -66.5 -11.5t-62.5 -44.5t-29 -82q0 -54 31 -83t88 -45zM298 322l-2 -284q66 2 114 40t48 106q0 100 -117 128z" />
    <glyph glyph-name="percent" unicode="%" horiz-adv-x="852" 
d="M209 710q66 0 107 -42.5t41 -114.5q0 -75 -42.5 -118t-107.5 -43q-69 0 -110 44.5t-41 114.5q0 69 42.5 114t110.5 45zM207 670q-46 0 -74.5 -32t-28.5 -87q0 -52 27 -85.5t77 -33.5q47 0 74 33.5t27 89.5q0 50 -26 82.5t-76 32.5zM648 308q66 0 107 -42.5t41 -114.5
q0 -75 -42.5 -118t-107.5 -43q-69 0 -110 44.5t-41 114.5q0 69 42.5 114t110.5 45zM646 268q-46 0 -74.5 -32t-28.5 -87q0 -52 27 -85.5t77 -33.5q47 0 74 33.5t27 89.5q0 50 -26 82.5t-76 32.5zM206 -54l-36 24l459 784l36 -24z" />
    <glyph glyph-name="ampersand" unicode="&#x26;" horiz-adv-x="815" 
d="M519 367v44h223v-44h-86q-4 -137 -72 -233q39 -41 83 -74q21 -16 55 -16h25v-44h-34q-35 0 -63 14.5t-70 53.5l-26 26q-85 -102 -225 -102q-115 0 -175 56.5t-60 136.5q0 99 127 188l25 18l-40 41q-58 67 -58 132q0 64 47 106t124 42q76 0 113 -41t37 -91q0 -84 -78 -140
l-70 -50l230 -223q53 83 53 200h-85zM292 420l40 29q85 59 85 119q0 51 -29.5 75.5t-73.5 24.5q-50 0 -82 -30t-32 -72q0 -49 55 -109zM278 359l-30 -20q-52 -39 -75 -72t-23 -82q0 -63 50.5 -106t131.5 -43q62 0 111 26t79 62z" />
    <glyph glyph-name="quotesingle" unicode="'" horiz-adv-x="222" 
d="M86 560l-10 136q-3 27 -3 44q0 14 9 25.5t29 11.5t29 -11.5t9 -25.5q0 -17 -3 -44l-10 -136q-2 -27 -25 -27t-25 27z" />
    <glyph glyph-name="parenleft" unicode="(" horiz-adv-x="315" 
d="M310 -239l-37 -27q-180 232 -180 524q0 173 44.5 296.5t121.5 229.5l40 -25q-32 -42 -53.5 -78.5t-47.5 -97t-39.5 -143t-13.5 -182.5q0 -161 48 -287.5t117 -209.5z" />
    <glyph glyph-name="parenright" unicode=")" horiz-adv-x="315" 
d="M5 757l37 27q180 -235 180 -526q0 -173 -44.5 -296.5t-121.5 -227.5l-40 25q31 40 53 77t48 97t39.5 142.5t13.5 182.5q0 161 -48 287.5t-117 211.5z" />
    <glyph glyph-name="asterisk" unicode="*" horiz-adv-x="334" 
d="M142 769h48l-8 -132l113 64l18 -35l-117 -56l117 -55l-18 -35l-113 64l8 -131h-48l8 131l-112 -64l-17 35l116 55l-116 56l17 35l112 -64z" />
    <glyph glyph-name="plus" unicode="+" horiz-adv-x="600" 
d="M276 0v229h-229v48h229v229h48v-229h229v-48h-229v-229h-48z" />
    <glyph glyph-name="comma" unicode="," horiz-adv-x="278" 
d="M111 -160l-24 24q15 15 31.5 42t16.5 52q0 26 -22 49t-22 35q0 21 13 31.5t32 10.5q22 0 38.5 -21.5t16.5 -57.5q0 -45 -23 -90.5t-57 -74.5z" />
    <glyph glyph-name="hyphen" unicode="-" horiz-adv-x="389" 
d="M73 234v52h243v-52h-243z" />
    <glyph glyph-name="period" unicode="." horiz-adv-x="278" 
d="M93 36q0 20 13.5 34t32.5 14t32.5 -14t13.5 -34t-13.5 -34t-32.5 -14t-32.5 14t-13.5 34z" />
    <glyph glyph-name="slash" unicode="/" horiz-adv-x="389" 
d="M-4 -61l351 838l46 -16l-351 -838z" />
    <glyph glyph-name="zero" unicode="0" 
d="M101 342q0 -130 45.5 -217t130.5 -87q77 0 127.5 88.5t50.5 235.5q0 136 -46.5 218t-121.5 82q-86 0 -136 -88t-50 -232zM45 339q0 94 25.5 176t83.5 138.5t140 56.5q100 0 158.5 -97t58.5 -249q0 -68 -14.5 -132.5t-42 -119.5t-74.5 -88.5t-106 -33.5q-60 0 -106 31
t-72 82.5t-38.5 111t-12.5 124.5z" />
    <glyph glyph-name="one" unicode="1" 
d="M144 0v44h143l4 599q-18 -16 -24 -19l-162 -104l-27 40l221 140h44l-4 -656h149v-44h-344z" />
    <glyph glyph-name="two" unicode="2" 
d="M63 0v41l185 184q165 165 165 293q0 68 -38 106t-106 38q-39 0 -68.5 -15t-44.5 -34.5t-24.5 -42.5t-11.5 -36t-2 -19h-52q0 11 4 30t18 49t35.5 55t61.5 43t92 18q93 0 142.5 -54t49.5 -134q0 -149 -185 -326l-153 -147v-3q32 2 80 2h277v-48h-425z" />
    <glyph glyph-name="three" unicode="3" 
d="M69 25l3 54q82 -41 171 -41q79 0 131 40.5t52 110.5q0 80 -55 111t-179 31h-14v48h15q32 0 65.5 9t66 27t53 52t20.5 78q0 56 -35.5 86.5t-97.5 30.5q-44 0 -75.5 -14t-46 -35.5t-20.5 -41t-6 -37.5h-52q0 39 19 77.5t66.5 68.5t115.5 30q90 0 139 -46t49 -124
q0 -63 -41.5 -109t-101.5 -63v-2q28 -2 55 -11.5t54.5 -28.5t44.5 -53.5t17 -80.5q0 -91 -67 -146.5t-182 -55.5q-92 0 -164 35z" />
    <glyph glyph-name="four" unicode="4" 
d="M339 263l2 283q0 13 0.5 27t1.5 31.5t1 27.5h-2q-19 -36 -42 -68l-216 -303q32 2 80 2h175zM255 0v44h82l2 175h-311v39l313 442h52l-2 -437h140v-44h-140l-2 -175h89v-44h-223z" />
    <glyph glyph-name="five" unicode="5" 
d="M444 700v-48h-295l-2 -231q325 0 325 -214q0 -97 -68.5 -157t-185.5 -60q-83 0 -142 26v51q56 -29 139 -29q96 0 148.5 43.5t52.5 118.5q0 98 -81.5 135.5t-239.5 37.5l2 327h347z" />
    <glyph glyph-name="six" unicode="6" 
d="M488 698l-7 -48q-46 12 -86 12q-71 0 -125 -25.5t-82 -62t-45.5 -86t-22 -86t-4.5 -74.5q77 91 183 91q95 0 146 -61.5t51 -147.5q0 -94 -55 -157t-151 -63q-50 0 -90 16.5t-66 44.5t-43 67.5t-24 83t-7 93.5q0 188 82.5 301.5t257.5 113.5q22 0 51 -4.5t37 -7.5z
M440 209q0 73 -39 117.5t-110 44.5q-32 0 -61.5 -10t-49 -23.5t-35 -28.5t-22.5 -25t-7 -12q0 -102 45 -168t130 -66q63 0 106 45.5t43 125.5z" />
    <glyph glyph-name="seven" unicode="7" 
d="M69 652v48h416v-36l-94 -202q-125 -282 -243 -462h-64q88 122 180 314q26 55 73 156.5t69 147.5q10 19 19 34h-356z" />
    <glyph glyph-name="eight" unicode="8" 
d="M182 337l46 25l-55 33q-90 54 -90 140q0 80 55 127.5t149 47.5q88 0 137.5 -43t49.5 -113q0 -99 -106 -161l-43 -25l54 -30q57 -32 88 -68t31 -98q0 -81 -61.5 -131.5t-163.5 -50.5q-101 0 -158 49t-57 124q0 106 124 174zM232 417l47 -25l46 28q48 29 72.5 57.5
t24.5 72.5q0 52 -38.5 82t-99.5 30q-64 0 -106.5 -31t-42.5 -85q0 -48 24.5 -76t72.5 -53zM352 296l-76 44l-47 -26q-59 -32 -87 -64t-28 -86q0 -58 46 -92t118 -34q76 0 120 35.5t44 98.5q0 40 -22.5 69t-67.5 55z" />
    <glyph glyph-name="nine" unicode="9" 
d="M68 2l7 48q46 -12 86 -12q71 0 125 25.5t82 62t45.5 86t22 86t4.5 74.5q-77 -91 -183 -91q-95 0 -146 61.5t-51 147.5q0 94 55 157t151 63q50 0 90 -16.5t66 -44.5t43 -67.5t24 -83t7 -93.5q0 -188 -82.5 -301.5t-257.5 -113.5q-22 0 -51 4.5t-37 7.5zM116 491
q0 -73 39 -117.5t110 -44.5q32 0 61.5 10t49 23.5t35 28.5t22.5 25t7 12q0 102 -45 168t-130 66q-63 0 -106 -45.5t-43 -125.5z" />
    <glyph glyph-name="colon" unicode=":" horiz-adv-x="278" 
d="M93 448q0 20 13.5 34t32.5 14t32.5 -14t13.5 -34t-13.5 -34t-32.5 -14t-32.5 14t-13.5 34zM93 36q0 20 13.5 34t32.5 14t32.5 -14t13.5 -34t-13.5 -34t-32.5 -14t-32.5 14t-13.5 34z" />
    <glyph glyph-name="semicolon" unicode=";" horiz-adv-x="278" 
d="M111 -160l-24 24q15 15 31.5 42t16.5 52q0 26 -22 49t-22 35q0 21 13 31.5t32 10.5q22 0 38.5 -21.5t16.5 -57.5q0 -45 -23 -90.5t-57 -74.5zM93 448q0 20 13.5 34t32.5 14t32.5 -14t13.5 -34t-13.5 -34t-32.5 -14t-32.5 14t-13.5 34z" />
    <glyph glyph-name="less" unicode="&#x3c;" horiz-adv-x="600" 
d="M47 225v56l506 233v-50l-458 -211l458 -211v-50z" />
    <glyph glyph-name="equal" unicode="=" horiz-adv-x="600" 
d="M47 327v48h506v-48h-506zM47 131v48h506v-48h-506z" />
    <glyph glyph-name="greater" unicode="&#x3e;" horiz-adv-x="600" 
d="M553 281v-56l-506 -233v50l458 211l-458 211v50z" />
    <glyph glyph-name="question" unicode="?" horiz-adv-x="500" 
d="M229 259l-38 -34q-49 39 -49 90q0 30 13 50t45 46l96 76q64 52 64 117q0 47 -34 86t-103 39q-55 0 -100 -19l-7 49q46 18 109 18q87 0 139 -47.5t52 -116.5q0 -89 -74 -149l-90 -73q-20 -16 -28.5 -23.5t-17 -21.5t-8.5 -29q0 -9 2 -17t6.5 -14.5t7.5 -10.5t8.5 -9.5z
M150 36q0 20 13 34t33 14t33 -14t13 -34t-13 -34t-33 -14t-33 14t-13 34z" />
    <glyph glyph-name="at" unicode="@" horiz-adv-x="800" 
d="M246 282q0 -101 85 -101q73 0 127 81.5t54 158.5q0 49 -20 72t-64 23q-74 0 -128 -78t-54 -156zM545 482l24 65h56l-100 -288q-13 -39 -13 -58q0 -24 27 -24q64 0 119.5 79t55.5 158q0 111 -87.5 182.5t-206.5 71.5q-143 0 -238.5 -94t-95.5 -224q0 -133 97 -225.5
t237 -92.5q81 0 156 37t113 98h60q-50 -82 -139.5 -130.5t-189.5 -48.5q-161 0 -271.5 106t-110.5 256t112 256t270 106q144 0 243 -86t99 -215q0 -109 -74.5 -193.5t-157.5 -84.5q-30 0 -48.5 17t-17.5 50h-2q-70 -67 -139 -67q-58 0 -93.5 39t-35.5 105q0 108 69 197.5
t170 89.5q80 0 110 -82h2z" />
    <glyph glyph-name="A" unicode="A" horiz-adv-x="722" 
d="M8 0v44h67l270 656h56l240 -656h73v-44h-220v44h87l-91 248h-260l-99 -248h93v-44h-216zM474 336l-94 262q-10 27 -12 38h-2q-2 -11 -12 -38l-106 -262h226z" />
    <glyph glyph-name="B" unicode="B" horiz-adv-x="611" 
d="M50 0v44h80l4 612h-84v44h222q125 0 177 -53q46 -48 46 -115q0 -62 -35 -106.5t-95 -54.5v-2q30 -1 59 -10.5t57 -29t45 -55t17 -82.5q0 -93 -65 -142.5t-184 -49.5h-244zM188 383h83q69 0 118.5 36.5t49.5 107.5q0 79 -60 112q-31 17 -95 17h-94zM186 44h101
q200 0 200 149q0 74 -53 110t-135 36h-111z" />
    <glyph glyph-name="C" unicode="C" horiz-adv-x="685" 
d="M560 160h52l-1 -145q-2 0 -37.5 -7.5t-51.5 -10t-49.5 -6t-62.5 -3.5q-160 0 -257 92.5t-97 269.5q0 169 102 265.5t269 96.5q109 0 195 -32l-2 -140h-52l2 105q-70 19 -147 19q-141 0 -226 -86t-85 -234q0 -144 82 -226t223 -82q72 0 142 16z" />
    <glyph glyph-name="D" unicode="D" horiz-adv-x="759" 
d="M50 0v44h80l4 612h-84v44h306q172 0 262.5 -90t90.5 -257q0 -165 -94 -259t-273 -94h-292zM186 44h150q148 0 232.5 81.5t84.5 228.5q0 149 -82 225.5t-229 76.5h-152z" />
    <glyph glyph-name="E" unicode="E" horiz-adv-x="574" 
d="M50 0v44h80l4 612h-84v44h451v-140h-44v96h-267l-2 -280h243v-44h-243l-2 -288h277l8 104h48l-8 -148h-461z" />
    <glyph glyph-name="F" unicode="F" 
d="M281 0h-231v44h80l4 612h-84v44h451l-2 -143h-46l-2 99h-261l-2 -286h267v-44h-267l-2 -282h95v-44z" />
    <glyph glyph-name="G" unicode="G" horiz-adv-x="722" 
d="M474 292h223v-44h-82l-4 -233q-2 0 -37.5 -7.5t-51.5 -10t-49.5 -6t-62.5 -3.5q-160 0 -257 92.5t-97 269.5q0 169 102 265.5t269 96.5q102 0 204 -33v-135h-52v97q-58 23 -148 23q-149 0 -234 -85.5t-85 -234.5q0 -144 82 -226t223 -82q72 0 142 16l4 196h-89v44z" />
    <glyph glyph-name="H" unicode="H" horiz-adv-x="778" 
d="M50 0v44h80l4 612h-84v44h224v-44h-84l-2 -286h402l2 286h-88v44h224v-44h-80l-4 -612h84v-44h-224v44h84l2 282h-402l-2 -282h88v-44h-224z" />
    <glyph glyph-name="I" unicode="I" horiz-adv-x="334" 
d="M277 0h-220v44h80l4 612h-84v44h220v-44h-80l-4 -612h84v-44z" />
    <glyph glyph-name="J" unicode="J" horiz-adv-x="315" 
d="M47 700h220v-44h-80l-5 -466q-1 -62 -10 -109.5t-32 -96.5t-69 -88t-115 -68l-16 44q90 45 138 116.5t49 187.5l4 480h-84v44z" />
    <glyph glyph-name="K" unicode="K" horiz-adv-x="685" 
d="M50 0v44h80l4 612h-84v44h220v-44h-80l-2 -284l331 284h-87v44h220v-44h-65l-339 -294l339 -318h69v-44h-228v44h87l-327 301l-2 -301h84v-44h-220z" />
    <glyph glyph-name="L" unicode="L" 
d="M511 0h-461v44h80l4 612h-84v44h220v-44h-80l-4 -612h277l8 104h48z" />
    <glyph glyph-name="M" unicode="M" horiz-adv-x="907" 
d="M42 0v44h85l4 612h-89v44h164l239 -596q7 -19 8 -26h2q1 7 8 26l241 596h161v-44h-89l4 -612h85v-44h-226v44h89l-4 570h-2q-3 -13 -10 -29l-237 -585h-45l-235 578q-7 16 -10 32h-2l-4 -566h89v-44h-226z" />
    <glyph glyph-name="N" unicode="N" horiz-adv-x="796" 
d="M41 0v44h81l4 612h-95v44h152l426 -583q11 -17 21 -38h2l3 577h-98v44h228v-44h-77l-5 -656h-56l-427 585q-14 20 -20 36h-2l-4 -577h92v-44h-225z" />
    <glyph glyph-name="O" unicode="O" horiz-adv-x="758" 
d="M702 350q0 -158 -81 -260t-242 -102q-164 0 -243.5 98.5t-79.5 263.5q0 158 81 260t242 102q164 0 243.5 -98.5t79.5 -263.5zM646 350q0 149 -71 231.5t-196 82.5t-196 -82.5t-71 -231.5t71 -231.5t196 -82.5t196 82.5t71 231.5z" />
    <glyph glyph-name="P" unicode="P" 
d="M190 656l-2 -315h104q73 0 118.5 41t45.5 119t-49.5 116.5t-130.5 38.5h-86zM50 0v44h80l4 612h-84v44h213q38 0 69.5 -3.5t66 -16t58.5 -33t39.5 -57t15.5 -86.5q0 -94 -61 -152.5t-162 -58.5h-101l-2 -249h94v-44h-230z" />
    <glyph glyph-name="Q" unicode="Q" horiz-adv-x="758" 
d="M56 350q0 158 81 260t242 102q164 0 243.5 -98.5t79.5 -263.5q0 -140 -63.5 -237t-190.5 -118v-2q240 -127 336 -127q40 0 58 3v-48q-45 -3 -65 -3q-22 0 -45.5 4t-55 15t-52.5 18.5t-64 28.5t-61.5 30t-73.5 37.5t-73 37.5q-150 8 -223 105.5t-73 255.5zM646 350
q0 149 -71 231.5t-196 82.5t-196 -82.5t-71 -231.5t71 -231.5t196 -82.5t196 82.5t71 231.5z" />
    <glyph glyph-name="R" unicode="R" horiz-adv-x="648" 
d="M50 0v44h80l4 612h-84v44h232q113 0 172 -41.5t59 -138.5q0 -47 -18 -84t-44.5 -57.5t-52.5 -31.5t-48 -12v-2q26 -5 45.5 -26t39.5 -54l78 -131q29 -49 45 -63.5t41 -14.5q19 0 37 4v-48q-24 -4 -47 -4q-39 0 -57.5 10.5t-40.5 47.5l-107 180q-27 46 -49.5 65t-61.5 19
h-85l-2 -274h91v-44h-227zM188 366h96q73 0 123 38.5t50 109.5q0 75 -43 108.5t-134 33.5h-90z" />
    <glyph glyph-name="S" unicode="S" horiz-adv-x="574" 
d="M73 158h52l2 -96q69 -26 150 -26q94 0 140.5 41t46.5 104q0 58 -40 91.5t-96.5 48t-113 31t-96.5 56.5t-40 109q0 79 59 137t172 58q95 0 182 -32l2 -128h-48l-2 92q-57 20 -138 20q-78 0 -124.5 -39.5t-46.5 -96.5q0 -43 21.5 -72t55.5 -44t75 -26t82 -24t75 -32.5
t55.5 -57.5t21.5 -92q0 -85 -64 -138.5t-174 -53.5q-101 0 -207 33z" />
    <glyph glyph-name="T" unicode="T" horiz-adv-x="668" 
d="M216 0v44h88l4 612h-224l-4 -113h-48l4 157h596l4 -157h-48l-4 113h-220l-4 -612h92v-44h-236z" />
    <glyph glyph-name="U" unicode="U" horiz-adv-x="760" 
d="M37 700h227v-44h-82q0 -44 -2 -179.5t-2 -209.5q0 -135 43 -183t164 -48q62 0 100.5 13.5t60 47t29.5 79t9 120.5l4 360h-88v44h223v-44h-79l-4 -384q-1 -67 -11.5 -114.5t-37.5 -88t-79 -61t-129 -20.5q-67 0 -115.5 14t-76.5 36t-43.5 59t-20.5 73.5t-5 87.5
q0 76 2 214.5t2 183.5h-89v44z" />
    <glyph glyph-name="V" unicode="V" horiz-adv-x="704" 
d="M2 656v44h219v-44h-87l210 -554q8 -21 10 -34h2q2 13 10 34l212 554h-88v44h212v-44h-68l-253 -656h-56l-251 656h-72z" />
    <glyph glyph-name="W" unicode="W" horiz-adv-x="1056" 
d="M681 0l-139 447h-2l-176 -447h-64l-217 656h-75v44h217v-44h-82l183 -566q6 -15 9 -34h2q4 15 11 34l171 426l-43 140h-79v44h216v-44h-81l176 -566q5 -20 8 -34h2q2 13 10 34l199 566h-93v44h214v-44h-69l-235 -656h-63z" />
    <glyph glyph-name="X" unicode="X" horiz-adv-x="685" 
d="M436 0v44h86q-10 12 -18 24l-163 248l-170 -248q-12 -16 -19 -24h94v-44h-219v44h64l224 317l-201 295h-74v44h225v-44h-90q14 -16 19 -24l152 -231l161 231q8 12 20 24h-91v44h217v-44h-69l-209 -295l212 -317h71v-44h-222z" />
    <glyph glyph-name="Y" unicode="Y" horiz-adv-x="704" 
d="M248 0v44h81l4 268l-252 344h-75v44h215v-44h-75q12 -12 20 -24l194 -270l195 270q8 12 20 24h-92v44h215v-44h-66l-243 -344l-4 -268h87v-44h-224z" />
    <glyph glyph-name="Z" unicode="Z" horiz-adv-x="648" 
d="M61 0v44l444 588q9 12 21 24h-401l-4 -108h-48l4 152h510v-44l-440 -588q-9 -12 -21 -24h408l4 111h48l-4 -155h-521z" />
    <glyph glyph-name="bracketleft" unicode="[" horiz-adv-x="315" 
d="M118 769h160v-44h-108l-4 -932h103v-44h-155z" />
    <glyph glyph-name="backslash" unicode="\" horiz-adv-x="389" 
d="M347 -77l-351 838l46 16l351 -838z" />
    <glyph glyph-name="bracketright" unicode="]" horiz-adv-x="315" 
d="M197 -251h-160v44h108l4 932h-103v44h155z" />
    <glyph glyph-name="asciicircum" unicode="^" horiz-adv-x="600" 
d="M93 335l184 365h46l184 -365h-55l-152 299l-152 -299h-55z" />
    <glyph glyph-name="underscore" unicode="_" horiz-adv-x="500" 
d="M500 -125h-500v50h500v-50z" />
    <glyph glyph-name="grave" unicode="`" horiz-adv-x="278" 
d="M185 606l-173 149l34 31l174 -153z" />
    <glyph glyph-name="a" unicode="a" horiz-adv-x="574" 
d="M522 44v-44h-134q0 53 11 117h-2q-49 -129 -168 -129q-72 0 -117.5 36.5t-45.5 106.5q0 68 50.5 105.5t134.5 43.5l139 9q2 32 2 47q0 70 -28.5 106t-105.5 36q-60 0 -120 -20l-2 -86h-48l2 118q67 36 176 36q176 0 176 -164q0 -71 -2 -183t-2 -135h84zM122 132
q0 -43 30.5 -69.5t84.5 -26.5q71 0 112 54q26 33 33.5 65t7.5 90q-54 -1 -84 -3t-66 -6t-53.5 -11t-34.5 -19.5t-23.5 -30.5t-6.5 -43z" />
    <glyph glyph-name="b" unicode="b" horiz-adv-x="593" 
d="M0 769h152l-2 -266q0 -72 -11 -112h2q21 62 68.5 98.5t116.5 36.5q100 0 155.5 -69t55.5 -170q0 -133 -65.5 -216t-200.5 -83q-100 0 -175 40l4 697h-100v44zM148 291l-1 -233q57 -26 126 -26q104 0 156 66t52 173q0 90 -40 148.5t-125 58.5q-71 0 -119 -56t-49 -131z
" />
    <glyph glyph-name="c" unicode="c" horiz-adv-x="519" 
d="M417 374v88q-46 16 -111 16q-95 0 -144.5 -60t-49.5 -161t49.5 -161t144.5 -60q94 0 156 30v-51q-61 -27 -158 -27q-120 0 -184 76t-64 193q0 116 66 192.5t187 76.5q81 0 156 -27v-125h-48z" />
    <glyph glyph-name="d" unicode="d" horiz-adv-x="611" 
d="M328 769h165l-4 -725h88v-44h-142q0 36 8 106h-2q-22 -55 -63.5 -86.5t-117.5 -31.5q-35 0 -68 12t-65 39t-51.5 80t-19.5 124q0 125 69 204t188 79q65 0 127 -25l2 224h-114v44zM439 259l1 194q-58 25 -124 25q-103 0 -153.5 -63.5t-50.5 -171.5q0 -91 39 -149t123 -58
q76 0 120 59t45 164z" />
    <glyph glyph-name="e" unicode="e" horiz-adv-x="537" 
d="M104 306h329q0 74 -41 123t-121 49q-45 0 -79.5 -18t-52.5 -45.5t-26.5 -55.5t-8.5 -53zM466 79l-2 -52q-26 -16 -72 -27.5t-92 -11.5q-123 0 -187.5 73.5t-64.5 204.5q0 111 60 185.5t166 74.5q61 0 104.5 -23t66.5 -62.5t33.5 -83.5t10.5 -95h-385q3 -226 204 -226
q78 0 158 43z" />
    <glyph glyph-name="f" unicode="f" horiz-adv-x="370" 
d="M61 0v44h75l2 426h-92v44h92l1 86q2 84 54 130.5t139 46.5q58 0 95 -12l-5 -47q-45 15 -87 15q-72 0 -107 -37.5t-37 -101.5l-1 -80h146v-44h-146l-2 -426h93v-44h-220z" />
    <glyph glyph-name="g" unicode="g" horiz-adv-x="537" 
d="M534 510v-44h-47q-15 0 -44 2.5t-39 2.5l-2 -2q61 -42 61 -134q0 -78 -51.5 -132.5t-139.5 -54.5q-58 0 -90 -17t-32 -40q0 -34 84 -48l166 -30q59 -10 91.5 -34t32.5 -82q0 -64 -59 -112t-187 -48q-104 0 -170 36t-66 103q0 48 41 85t96 44v2q-81 19 -81 77
q0 35 27.5 53.5t64.5 23.5v2q-22 6 -41.5 16t-41.5 29t-35 51t-13 74q0 82 55 137.5t144 55.5q50 0 87 -16h189zM111 337q0 -60 39.5 -102.5t113.5 -42.5q68 0 107.5 39.5t39.5 104.5q0 61 -41 101.5t-112 40.5q-64 0 -105.5 -38.5t-41.5 -102.5zM378 -28l-146 22
q-29 -5 -57 -16t-54.5 -37t-26.5 -59q0 -40 50 -70.5t137 -30.5q78 0 134.5 28t56.5 84q0 37 -22 52.5t-72 26.5z" />
    <glyph glyph-name="h" unicode="h" horiz-adv-x="648" 
d="M44 0v44h77l4 681h-114v44h166l-2 -287q0 -51 -11 -91h2q19 62 67 98.5t121 36.5q173 0 173 -201q0 -54 -2 -151.5t-2 -129.5h81v-44h-210v44h77q0 31 2 128t2 150q0 80 -32 118t-101 38q-75 0 -120.5 -56.5t-46.5 -133.5l-2 -244h81v-44h-210z" />
    <glyph glyph-name="i" unicode="i" horiz-adv-x="296" 
d="M32 0v44h88l3 426h-99v44h151l-3 -470h92v-44h-232zM97 725q0 22 13.5 37t34.5 15t34.5 -15t13.5 -37t-13.5 -37t-34.5 -15t-34.5 15t-13.5 37z" />
    <glyph glyph-name="j" unicode="j" horiz-adv-x="315" 
d="M49 470v44h151l-5 -466q-1 -44 -6 -78.5t-20 -73.5t-40 -67.5t-69 -53.5t-103 -38l-8 45q51 11 88 34t57.5 50.5t32 67.5t14.5 73.5t3 79.5l4 383h-99zM122 725q0 22 13.5 37t34.5 15t34.5 -15t13.5 -37t-13.5 -37t-34.5 -15t-34.5 15t-13.5 37z" />
    <glyph glyph-name="k" unicode="k" horiz-adv-x="574" 
d="M44 0v44h77l4 681h-114v44h166l-2 -485l220 184v2h-74v44h200v-44h-61l-227 -193l255 -233h55v-44h-198v44h72l-242 219l-2 -219h81v-44h-210z" />
    <glyph glyph-name="l" unicode="l" horiz-adv-x="316" 
d="M45 0v44h85l4 681h-114v44h166l-4 -725h89v-44h-226z" />
    <glyph glyph-name="m" unicode="m" horiz-adv-x="980" 
d="M726 0v44h77q0 31 2 128t2 150q0 156 -134 156q-65 0 -109 -55.5t-46 -129.5l-4 -249h81v-44h-210v44h77q2 186 2 278q0 156 -130 156q-68 0 -113.5 -55.5t-46.5 -129.5l-2 -249h81v-44h-209v44h76l2 426h-89v44h142q0 -55 -12 -123h2q18 61 67 98t112 37q130 0 161 -122
q8 17 15 29t23 31t34 31t46.5 21.5t62.5 9.5q173 0 173 -201q0 -54 -2 -151.5t-2 -129.5h81v-44h-210z" />
    <glyph glyph-name="n" unicode="n" horiz-adv-x="648" 
d="M44 0v44h77l2 426h-90v44h143q0 -55 -12 -123h2q19 62 67 98.5t121 36.5q173 0 173 -201q0 -54 -2 -151.5t-2 -129.5h81v-44h-210v44h77q0 31 2 128t2 150q0 80 -32 118t-101 38q-75 0 -120.5 -56.5t-46.5 -133.5l-2 -244h81v-44h-210z" />
    <glyph glyph-name="o" unicode="o" horiz-adv-x="574" 
d="M104 257q0 -100 47.5 -160.5t135.5 -60.5t135.5 60.5t47.5 160.5t-47.5 160.5t-135.5 60.5t-135.5 -60.5t-47.5 -160.5zM48 257q0 116 62.5 192.5t176.5 76.5t176.5 -76.5t62.5 -192.5t-62.5 -192.5t-176.5 -76.5t-176.5 76.5t-62.5 192.5z" />
    <glyph glyph-name="p" unicode="p" horiz-adv-x="611" 
d="M36 -251v44h83l5 677h-97v44h150q0 -58 -7 -108l3 2q29 58 70 88t109 30q101 0 156 -67.5t55 -171.5q0 -133 -65.5 -216t-200.5 -83q-75 0 -124 18l-2 -213h93v-44h-228zM507 271q0 94 -39.5 150.5t-125.5 56.5q-75 0 -121 -56t-47 -156l-1 -211q42 -23 126 -23
q104 0 156 66t52 173z" />
    <glyph glyph-name="q" unicode="q" horiz-adv-x="611" 
d="M439 259l1 194q-58 25 -124 25q-103 0 -153.5 -63.5t-50.5 -171.5q0 -91 39 -149t123 -58q76 0 120 59t45 164zM351 -251v44h83l2 209q0 51 5 101h-2q-45 -115 -179 -115q-35 0 -68 12t-65 39t-51.5 80t-19.5 124q0 124 70 203.5t192 79.5q57 0 133 -24l39 8l-4 -717h96
v-44h-231z" />
    <glyph glyph-name="r" unicode="r" horiz-adv-x="426" 
d="M49 0v44h82l4 426h-97v44h151q0 -55 -8 -165h2q19 75 63 126t109 51q28 0 72 -11l-8 -50q-31 13 -63 13q-68 0 -119 -74.5t-52 -182.5l-2 -177h96v-44h-230z" />
    <glyph glyph-name="s" unicode="s" horiz-adv-x="481" 
d="M54 146h49l2 -87q42 -27 125 -27q68 0 101 31.5t33 71.5q0 35 -20 56.5t-68 33.5l-88 21q-136 32 -136 136q0 64 49.5 104t129.5 40q84 0 156 -32l2 -117h-48l-2 83q-40 22 -105 22q-60 0 -93 -25.5t-33 -69.5q0 -75 87 -94l95 -21q67 -14 98.5 -45.5t31.5 -84.5
q0 -76 -52 -115t-142 -39q-102 0 -168 34z" />
    <glyph glyph-name="t" unicode="t" horiz-adv-x="389" 
d="M379 61l-5 -47q-55 -26 -118 -26q-67 0 -98.5 36.5t-31.5 116.5q0 109 2 329h-90v44h90l2 134l52 4l-2 -138h171v-44h-171q-2 -208 -2 -311q0 -70 19 -98.5t71 -28.5q53 0 111 29z" />
    <glyph glyph-name="u" unicode="u" horiz-adv-x="648" 
d="M38 514h140q0 -35 -2 -148t-2 -174q0 -80 32 -118t101 -38q78 0 121 55.5t45 156.5l4 222h-92v44h144l-4 -470h80v-44h-131q0 55 12 123h-2q-18 -61 -67 -98t-112 -37q-86 0 -134.5 46t-48.5 155q0 54 2 151.5t2 129.5h-88v44z" />
    <glyph glyph-name="v" unicode="v" 
d="M255 0l-177 470h-66v44h191v-44h-65l129 -366q8 -23 12 -60h2q6 38 14 60l133 366h-75v44h191v-44h-60l-181 -470h-48z" />
    <glyph glyph-name="w" unicode="w" horiz-adv-x="833" 
d="M19 514h194v-44h-74l139 -414h2l11 40l104 287l-30 87h-59v44h194v-44h-79l119 -366l12 -48h2l13 48l129 366h-76v44h194v-44h-66l-170 -470h-56l-91 274q-8 21 -13 54h-2q-2 -6 -18 -55l-97 -273h-52l-166 470h-64v44z" />
    <glyph glyph-name="x" unicode="x" horiz-adv-x="574" 
d="M25 0v44h64l170 218l-155 208h-70v44h199v-44h-72q15 -15 24 -28l106 -144l108 144q9 13 24 28h-79v44h194v-44h-62l-157 -205l166 -221h64v-44h-194v44h69q-11 11 -23 28l-114 154l-117 -154q-9 -13 -24 -28h73v-44h-194z" />
    <glyph glyph-name="y" unicode="y" 
d="M5 514h201v-44h-73l139 -379q6 -15 11 -38h2q2 16 9 36l133 381h-77v44h191v-44h-62l-179 -501q-44 -123 -96 -177.5t-139 -54.5q-26 0 -60 8v49q54 -9 63 -9q103 0 149 109l39 93l-184 483h-67v44z" />
    <glyph glyph-name="z" unicode="z" horiz-adv-x="519" 
d="M56 0v44l325 398q13 16 26 28h-285l-4 -90h-49l6 134h393v-44l-325 -398q-13 -16 -26 -28h297l6 95h49l-8 -139h-405z" />
    <glyph glyph-name="braceleft" unicode="{" horiz-adv-x="315" 
d="M125 434v199q0 66 22.5 101t76.5 35h51v-44h-50q-48 0 -48 -77v-224q1 -149 -68 -164v-2q69 -15 68 -164v-224q0 -77 48 -77h50v-44h-51q-54 0 -76.5 35t-22.5 101v199q0 83 -15.5 117t-48.5 36v44q33 2 48.5 36t15.5 117z" />
    <glyph glyph-name="bar" unicode="|" horiz-adv-x="222" 
d="M87 -250v1000h48v-1000h-48z" />
    <glyph glyph-name="braceright" unicode="}" horiz-adv-x="315" 
d="M40 769h51q54 0 76.5 -35t22.5 -101v-199q0 -83 15.5 -117t48.5 -36v-44q-33 -2 -48.5 -36t-15.5 -117v-199q0 -66 -22.5 -101t-76.5 -35h-51v44h50q48 0 48 77v224q-1 149 68 164v2q-69 15 -68 164v224q0 77 -48 77h-50v44z" />
    <glyph glyph-name="asciitilde" unicode="~" horiz-adv-x="600" 
d="M105 197l-36 30q45 86 125 86q55 0 115 -34q76 -34 98 -34q19 0 37 12.5t25.5 22t25.5 33.5l36 -30q-20 -27 -33 -42t-38 -29.5t-54 -14.5q-10 0 -20.5 1.5t-17.5 3t-19 6t-17 6.5t-19.5 8.5t-18.5 8.5q-64 34 -105 34q-49 0 -84 -68z" />
    <glyph glyph-name="uni00A0" unicode="&#xa0;" horiz-adv-x="278" 
 />
    <glyph glyph-name="exclamdown" unicode="&#xa1;" horiz-adv-x="316" 
d="M128 -243l8 529h44l8 -529h-60zM204 490q0 -20 -13.5 -34t-32.5 -14t-32.5 14t-13.5 34t13.5 34t32.5 14t32.5 -14t13.5 -34z" />
    <glyph glyph-name="cent" unicode="&#xa2;" 
d="M290 39l2 436q-80 -9 -121 -67.5t-41 -150.5q0 -91 40.5 -149.5t119.5 -68.5zM289 -134l1 125q-105 10 -160.5 84t-55.5 182t56 182.5t162 83.5l1 111h44l-1 -109q79 -1 146 -26v-125h-48v88q-43 15 -98 15l-2 -440q86 0 146 29v-51q-59 -26 -146 -26l-1 -123h-44z" />
    <glyph glyph-name="sterling" unicode="&#xa3;" 
d="M24 0v44h77q39 63 39 158q0 27 -4 143h-93v44h90q-7 84 -7 105q0 97 58.5 155.5t174.5 60.5q62 1 157 -26l-2 -128h-48l2 88q-58 18 -110 18q-85 0 -130.5 -44t-45.5 -118q0 -59 5 -111h158v-44h-156q7 -126 7 -131q0 -49 -10.5 -99t-28.5 -71h303l8 97h48l-8 -141h-484z
" />
    <glyph glyph-name="currency" unicode="&#xa4;" 
d="M30 140l54 57q-54 67 -54 153q0 94 56 153l-56 57l38 38l56 -55q65 55 154 55t154 -55l56 55l38 -38l-54 -54q54 -63 54 -156q0 -88 -53 -154l53 -56l-38 -38l-53 58q-65 -58 -157 -58q-91 0 -157 58l-53 -58zM78 350q0 -82 59 -141t141 -59t141 59t59 141t-59 141
t-141 59t-141 -59t-59 -141z" />
    <glyph glyph-name="yen" unicode="&#xa5;" 
d="M195 0v44h64l2 131h-147v38h147l1 102h-148v38h126l-166 303h-59v44h170v-44h-59l158 -302l155 302h-68v44h170v-44h-52l-158 -303h123v-38h-144l-1 -102h145v-38h-145l-2 -131h65v-44h-177z" />
    <glyph glyph-name="brokenbar" unicode="&#xa6;" horiz-adv-x="222" 
d="M87 -175v350h48v-350h-48zM87 325v350h48v-350h-48z" />
    <glyph glyph-name="section" unicode="&#xa7;" 
d="M415 567v77q-53 20 -113 20q-76 0 -112 -29t-36 -72t22 -68t62 -46l126 -68q105 -58 105 -143q0 -39 -20.5 -72t-50.5 -52l-24 -15l28 -20q66 -42 66 -122q0 -68 -56 -116t-151 -48q-82 0 -174 33v129h44v-92q63 -22 130 -22q68 0 109.5 31t41.5 83q0 66 -85 112l-121 65
q-57 31 -86 63t-29 85q0 55 24 84.5t77 55.5q-51 32 -72.5 61t-21.5 77q0 72 57 113t146 41q82 0 162 -29v-116h-48zM232 396l-28 -16q-57 -37 -57 -95q0 -34 14.5 -55.5t49.5 -40.5l123 -67l28 20q53 38 53 93q0 62 -71 100z" />
    <glyph glyph-name="dieresis" unicode="&#xa8;" horiz-adv-x="278" 
d="M201 688q0 20 12.5 34t31.5 14t31.5 -14t12.5 -34t-12.5 -34t-31.5 -14t-31.5 14t-12.5 34zM-11 688q0 20 12.5 34t31.5 14t31.5 -14t12.5 -34t-12.5 -34t-31.5 -14t-31.5 14t-12.5 34z" />
    <glyph glyph-name="copyright" unicode="&#xa9;" horiz-adv-x="800" 
d="M543 275h52q-16 -69 -65.5 -112t-117.5 -43q-99 0 -159 65.5t-60 164.5q0 101 58 165t158 64q73 0 124.5 -40t61.5 -111h-52q-9 45 -44.5 74t-89.5 29q-78 0 -121 -50.5t-43 -130.5q0 -74 45.5 -128t121.5 -54q52 0 87 30t44 77zM38 350q0 150 106 256t256 106t256 -106
t106 -256t-106 -256t-256 -106t-256 106t-106 256zM86 350q0 -130 92 -222t222 -92t222 92t92 222t-92 222t-222 92t-222 -92t-92 -222z" />
    <glyph glyph-name="ordfeminine" unicode="&#xaa;" horiz-adv-x="344" 
d="M346 426v-28h-93q0 24 7 70h-3q-28 -78 -110 -78q-50 0 -80.5 22t-30.5 65q0 41 32.5 63t87.5 25l98 6l2 29q1 38 -17 58t-70 20q-39 0 -78 -12l-2 -49h-32l2 71q15 7 50 14.5t65 7.5q123 0 121 -109l-2 -175h53zM254 542l-83 -4q-91 -5 -91 -61q0 -24 19.5 -39.5
t54.5 -15.5q41 0 70.5 28t29.5 68v24z" />
    <glyph glyph-name="guillemotleft" unicode="&#xab;" horiz-adv-x="463" 
d="M235 239v42l134 144l34 -31l-124 -134l119 -133l-34 -32zM60 239v42l134 144l34 -31l-124 -134l119 -133l-34 -32z" />
    <glyph glyph-name="logicalnot" unicode="&#xac;" horiz-adv-x="600" 
d="M505 111v216h-458v48h506v-264h-48z" />
    <glyph glyph-name="uni00AD" unicode="&#xad;" horiz-adv-x="389" 
d="M73 234v52h243v-52h-243z" />
    <glyph glyph-name="registered" unicode="&#xae;" horiz-adv-x="800" 
d="M261 131v439h169q143 0 143 -122q0 -103 -110 -122l130 -195h-54l-130 195h-100v-195h-48zM309 526v-156h110q106 -2 106 79q0 77 -106 77h-110zM38 350q0 150 106 256t256 106t256 -106t106 -256t-106 -256t-256 -106t-256 106t-106 256zM86 350q0 -130 92 -222t222 -92
t222 92t92 222t-92 222t-222 92t-222 -92t-92 -222z" />
    <glyph glyph-name="macron" unicode="&#xaf;" horiz-adv-x="278" 
d="M8 675v44h262v-44h-262z" />
    <glyph glyph-name="degree" unicode="&#xb0;" horiz-adv-x="400" 
d="M57 567q0 59 42 101t101 42t101 -42t42 -101t-42 -101t-101 -42t-101 42t-42 101zM101 567q0 -41 29 -70t70 -29t70 29t29 70t-29 70t-70 29t-70 -29t-29 -70z" />
    <glyph glyph-name="plusminus" unicode="&#xb1;" horiz-adv-x="600" 
d="M276 322v184h48v-184h229v-48h-229v-184h-48v184h-229v48h229zM47 0v48h506v-48h-506z" />
    <glyph glyph-name="two.superior" unicode="&#xb2;" horiz-adv-x="333" 
d="M317 284h-277v38l119 108q105 94 105 165q0 36 -24 57.5t-64 21.5q-23 0 -40.5 -8t-26.5 -19t-14.5 -23.5t-7 -20t-1.5 -10.5h-48q0 10 4.5 25.5t17.5 38t44.5 38t76.5 15.5q65 0 98 -32t33 -81q0 -81 -120 -190l-100 -91v-2q5 0 19.5 3t23.5 3h182v-36z" />
    <glyph glyph-name="three.superior" unicode="&#xb3;" horiz-adv-x="333" 
d="M45 297v40q61 -25 113 -25q45 0 78 23.5t33 61.5q0 48 -33.5 65.5t-110.5 17.5h-9v36h9q29 0 55.5 7.5t48.5 30t22 57.5q0 30 -22 46.5t-57 16.5q-48 0 -67 -22.5t-19 -47.5h-48q0 39 34 72.5t101 33.5q61 0 93.5 -27.5t32.5 -74.5q0 -38 -29 -66t-68 -38v-2
q42 -2 78.5 -26.5t36.5 -76.5q0 -56 -43.5 -89.5t-118.5 -33.5q-66 0 -110 21z" />
    <glyph glyph-name="acute" unicode="&#xb4;" horiz-adv-x="278" 
d="M93 606l-35 27l174 153l34 -31z" />
    <glyph glyph-name="mu" unicode="&#xb5;" horiz-adv-x="648" 
d="M605 44v-44h-131q0 55 12 123h-2q-18 -61 -67 -98t-112 -37q-40 0 -76 18t-55 49h-2q2 -23 2 -61q0 -81 -2 -245h-51q0 74 0.5 220.5t0.5 219.5q0 54 2 151.5t2 129.5h-88v44h140q0 -35 -2 -148t-2 -174q0 -80 32 -118t101 -38q75 0 119.5 54.5t46.5 130.5l4 249h-92v44
h144l-4 -470h80z" />
    <glyph glyph-name="paragraph" unicode="&#xb6;" horiz-adv-x="600" 
d="M254 -195v515q-67 0 -115.5 53.5t-48.5 128.5q0 94 52 146t137 52h176v-895h-48v851h-105v-851h-48z" />
    <glyph glyph-name="periodcentered" unicode="&#xb7;" horiz-adv-x="278" 
d="M83 292q0 23 16.5 39.5t39.5 16.5t39.5 -16.5t16.5 -39.5t-16.5 -39.5t-39.5 -16.5t-39.5 16.5t-16.5 39.5z" />
    <glyph glyph-name="cedilla" unicode="&#xb8;" horiz-adv-x="278" 
d="M127 8h40v-72h13q29 0 51 -19t22 -49q0 -37 -25 -59t-71 -22q-55 0 -100 18l7 36q43 -18 79 -18q58 0 58 40q0 37 -54 37h-20v108z" />
    <glyph glyph-name="one.superior" unicode="&#xb9;" horiz-adv-x="333" 
d="M88 284v36h89l2 346l-117 -71l-18 31l142 84h37l-2 -390h90v-36h-223z" />
    <glyph glyph-name="ordmasculine" unicode="&#xba;" horiz-adv-x="344" 
d="M58 551q0 -58 30 -93.5t84 -35.5t84 35.5t30 93.5q0 56 -30.5 91.5t-83.5 35.5t-83.5 -35.5t-30.5 -91.5zM14 551q0 68 41.5 113.5t116.5 45.5t116.5 -45.5t41.5 -113.5q0 -70 -41 -115.5t-117 -45.5t-117 45.5t-41 115.5z" />
    <glyph glyph-name="guillemotright" unicode="&#xbb;" horiz-adv-x="463" 
d="M228 281v-42l-134 -144l-34 31l124 134l-119 133l34 32zM403 281v-42l-134 -144l-34 31l124 134l-119 133l34 32z" />
    <glyph glyph-name="onequarter" unicode="&#xbc;" horiz-adv-x="834" 
d="M675 167l2 166q0 12 3 45h-2q-8 -18 -24 -38l-132 -175q4 0 15.5 1t17.5 1h120zM625 0v36h48l2 95h-198v34l200 261h45l-2 -259h84v-36h-84l-2 -95h52v-36h-145zM206 -54l-36 24l459 784l36 -24zM74 284v36h89l2 346l-117 -71l-18 31l142 84h37l-2 -390h90v-36h-223z" />
    <glyph glyph-name="onehalf" unicode="&#xbd;" horiz-adv-x="834" 
d="M206 -54l-36 24l459 784l36 -24zM74 284v36h89l2 346l-117 -71l-18 31l142 84h37l-2 -390h90v-36h-223zM804 0h-277v38l119 108q105 94 105 165q0 36 -24 57.5t-64 21.5q-23 0 -40.5 -8t-26.5 -19t-14.5 -23.5t-7 -20t-1.5 -10.5h-48q0 10 4.5 25.5t17.5 38t44.5 38
t76.5 15.5q65 0 98 -32t33 -81q0 -81 -120 -190l-100 -91v-2q5 0 19.5 3t23.5 3h182v-36z" />
    <glyph glyph-name="threequarters" unicode="&#xbe;" horiz-adv-x="834" 
d="M675 167l2 166q0 12 3 45h-2q-8 -18 -24 -38l-132 -175q4 0 15.5 1t17.5 1h120zM625 0v36h48l2 95h-198v34l200 261h45l-2 -259h84v-36h-84l-2 -95h52v-36h-145zM206 -54l-36 24l459 784l36 -24zM37 297v40q61 -25 113 -25q45 0 78 23.5t33 61.5q0 48 -33.5 65.5
t-110.5 17.5h-9v36h9q29 0 55.5 7.5t48.5 30t22 57.5q0 30 -22 46.5t-57 16.5q-48 0 -67 -22.5t-19 -47.5h-48q0 39 34 72.5t101 33.5q61 0 93.5 -27.5t32.5 -74.5q0 -38 -29 -66t-68 -38v-2q42 -2 78.5 -26.5t36.5 -76.5q0 -56 -43.5 -89.5t-118.5 -33.5q-66 0 -110 21z
" />
    <glyph glyph-name="questiondown" unicode="&#xbf;" horiz-adv-x="500" 
d="M271 267l38 34q49 -39 49 -90q0 -30 -13 -50t-45 -46l-96 -76q-64 -52 -64 -117q0 -47 34 -86t103 -39q55 0 100 19l7 -49q-46 -18 -109 -18q-87 0 -139 47.5t-52 116.5q0 89 74 149l90 73q20 16 28.5 23.5t17 21.5t8.5 29q0 9 -2 17t-6.5 14.5t-7.5 10.5t-8.5 9.5z
M350 490q0 -20 -13 -34t-33 -14t-33 14t-13 34t13 34t33 14t33 -14t13 -34z" />
    <glyph glyph-name="Agrave" unicode="&#xc0;" horiz-adv-x="722" 
d="M8 0v44h67l270 656h56l240 -656h73v-44h-220v44h87l-91 248h-260l-99 -248h93v-44h-216zM474 336l-94 262q-10 27 -12 38h-2q-2 -11 -12 -38l-106 -262h226zM419 727l-173 149l34 31l174 -153z" />
    <glyph glyph-name="Aacute" unicode="&#xc1;" horiz-adv-x="722" 
d="M8 0v44h67l270 656h56l240 -656h73v-44h-220v44h87l-91 248h-260l-99 -248h93v-44h-216zM474 336l-94 262q-10 27 -12 38h-2q-2 -11 -12 -38l-106 -262h226zM327 727l-35 27l174 153l34 -31z" />
    <glyph glyph-name="Acircumflex" unicode="&#xc2;" horiz-adv-x="722" 
d="M8 0v44h67l270 656h56l240 -656h73v-44h-220v44h87l-91 248h-260l-99 -248h93v-44h-216zM474 336l-94 262q-10 27 -12 38h-2q-2 -11 -12 -38l-106 -262h226zM486 729l-111 128l-117 -128l-33 30l126 138h48l122 -138z" />
    <glyph glyph-name="Atilde" unicode="&#xc3;" horiz-adv-x="722" 
d="M8 0v44h67l270 656h56l240 -656h73v-44h-220v44h87l-91 248h-260l-99 -248h93v-44h-216zM474 336l-94 262q-10 27 -12 38h-2q-2 -11 -12 -38l-106 -262h226zM504 858l35 -26l-9 -15q-38 -52 -92 -52q-29 0 -70.5 26t-60.5 26q-28 0 -54 -38l-7 -10l-39 26l8 13
q38 57 91 57q33 0 77 -25q3 -2 12 -7.5t12.5 -7.5t10.5 -5.5t12.5 -5t11.5 -1.5q25 0 54 34z" />
    <glyph glyph-name="Adieresis" unicode="&#xc4;" horiz-adv-x="722" 
d="M8 0v44h67l270 656h56l240 -656h73v-44h-220v44h87l-91 248h-260l-99 -248h93v-44h-216zM474 336l-94 262q-10 27 -12 38h-2q-2 -11 -12 -38l-106 -262h226zM435 809q0 20 12.5 34t31.5 14t31.5 -14t12.5 -34t-12.5 -34t-31.5 -14t-31.5 14t-12.5 34zM223 809
q0 20 12.5 34t31.5 14t31.5 -14t12.5 -34t-12.5 -34t-31.5 -14t-31.5 14t-12.5 34z" />
    <glyph glyph-name="Aring" unicode="&#xc5;" horiz-adv-x="722" 
d="M8 0v44h67l270 656h56l240 -656h73v-44h-220v44h87l-91 248h-260l-99 -248h93v-44h-216zM474 336l-94 262q-10 27 -12 38h-2q-2 -11 -12 -38l-106 -262h226zM282 817q0 37 27 64t64 27t64 -27t27 -64t-27 -64t-64 -27t-64 27t-27 64zM322 817q0 -23 14 -39t37 -16t37 16
t14 39t-14 39t-37 16t-37 -16t-14 -39z" />
    <glyph glyph-name="AE" unicode="&#xc6;" horiz-adv-x="963" 
d="M439 0v44h81l2 271h-248l-151 -271h88v-44h-216v44h68l372 656h443l2 -141h-48l-2 97h-250l-2 -297h246v-44h-246l-2 -271h277l6 105h49l-8 -149h-461zM296 359h226l2 297h-62z" />
    <glyph glyph-name="Ccedilla" unicode="&#xc7;" horiz-adv-x="685" 
d="M376 -100v90q-146 9 -233 101t-87 259q0 169 102 265.5t269 96.5q109 0 195 -32l-2 -140h-52l2 105q-70 19 -147 19q-142 1 -228 -86t-83 -234q0 -144 82 -226t223 -82q72 0 142 16l1 108h52l-1 -145q-6 -1 -29 -6t-37 -7.5t-37 -6t-46 -5.5t-46 -2v-52h13q29 0 51 -19
t22 -49q0 -37 -25 -59t-71 -22q-55 0 -100 18l7 36q43 -18 79 -18q58 0 58 40q0 37 -54 37h-20z" />
    <glyph glyph-name="Egrave" unicode="&#xc8;" horiz-adv-x="574" 
d="M50 0v44h80l4 612h-84v44h451v-140h-44v96h-267l-2 -280h243v-44h-243l-2 -288h277l8 104h48l-8 -148h-461zM333 727l-173 149l34 31l174 -153z" />
    <glyph glyph-name="Eacute" unicode="&#xc9;" horiz-adv-x="574" 
d="M50 0v44h80l4 612h-84v44h451v-140h-44v96h-267l-2 -280h243v-44h-243l-2 -288h277l8 104h48l-8 -148h-461zM241 727l-35 27l174 153l34 -31z" />
    <glyph glyph-name="Ecircumflex" unicode="&#xca;" horiz-adv-x="574" 
d="M50 0v44h80l4 612h-84v44h451v-140h-44v96h-267l-2 -280h243v-44h-243l-2 -288h277l8 104h48l-8 -148h-461zM400 729l-111 128l-117 -128l-33 30l126 138h48l122 -138z" />
    <glyph glyph-name="Edieresis" unicode="&#xcb;" horiz-adv-x="574" 
d="M50 0v44h80l4 612h-84v44h451v-140h-44v96h-267l-2 -280h243v-44h-243l-2 -288h277l8 104h48l-8 -148h-461zM349 809q0 20 12.5 34t31.5 14t31.5 -14t12.5 -34t-12.5 -34t-31.5 -14t-31.5 14t-12.5 34zM137 809q0 20 12.5 34t31.5 14t31.5 -14t12.5 -34t-12.5 -34
t-31.5 -14t-31.5 14t-12.5 34z" />
    <glyph glyph-name="Igrave" unicode="&#xcc;" horiz-adv-x="334" 
d="M277 0h-220v44h80l4 612h-84v44h220v-44h-80l-4 -612h84v-44zM213 727l-173 149l34 31l174 -153z" />
    <glyph glyph-name="Iacute" unicode="&#xcd;" horiz-adv-x="334" 
d="M277 0h-220v44h80l4 612h-84v44h220v-44h-80l-4 -612h84v-44zM121 727l-35 27l174 153l34 -31z" />
    <glyph glyph-name="Icircumflex" unicode="&#xce;" horiz-adv-x="334" 
d="M277 0h-220v44h80l4 612h-84v44h220v-44h-80l-4 -612h84v-44zM280 729l-111 128l-117 -128l-33 30l126 138h48l122 -138z" />
    <glyph glyph-name="Idieresis" unicode="&#xcf;" horiz-adv-x="334" 
d="M277 0h-220v44h80l4 612h-84v44h220v-44h-80l-4 -612h84v-44zM229 809q0 20 12.5 34t31.5 14t31.5 -14t12.5 -34t-12.5 -34t-31.5 -14t-31.5 14t-12.5 34zM17 809q0 20 12.5 34t31.5 14t31.5 -14t12.5 -34t-12.5 -34t-31.5 -14t-31.5 14t-12.5 34z" />
    <glyph glyph-name="Eth" unicode="&#xd0;" horiz-adv-x="759" 
d="M50 0v44h80l2 312h-88v48h88l2 252h-84v44h306q172 0 262.5 -90t90.5 -257q0 -165 -94 -259t-273 -94h-292zM416 404v-48h-228l-2 -312h172q132 0 213.5 84t81.5 226q0 149 -82 225.5t-229 76.5h-152l-2 -252h228z" />
    <glyph glyph-name="Ntilde" unicode="&#xd1;" horiz-adv-x="796" 
d="M41 0v44h81l4 612h-95v44h152l426 -583q11 -17 21 -38h2l3 577h-98v44h228v-44h-77l-5 -656h-56l-427 585q-14 20 -20 36h-2l-4 -577h92v-44h-225zM529 858l35 -26l-9 -15q-38 -52 -92 -52q-29 0 -70.5 26t-60.5 26q-28 0 -54 -38l-7 -10l-39 26l8 13q38 57 91 57
q33 0 77 -25q3 -2 12 -7.5t12.5 -7.5t10.5 -5.5t12.5 -5t11.5 -1.5q25 0 54 34z" />
    <glyph glyph-name="Ograve" unicode="&#xd2;" horiz-adv-x="758" 
d="M702 350q0 -158 -81 -260t-242 -102q-164 0 -243.5 98.5t-79.5 263.5q0 158 81 260t242 102q164 0 243.5 -98.5t79.5 -263.5zM646 350q0 149 -71 231.5t-196 82.5t-196 -82.5t-71 -231.5t71 -231.5t196 -82.5t196 82.5t71 231.5zM425 727l-173 149l34 31l174 -153z" />
    <glyph glyph-name="Oacute" unicode="&#xd3;" horiz-adv-x="758" 
d="M702 350q0 -158 -81 -260t-242 -102q-164 0 -243.5 98.5t-79.5 263.5q0 158 81 260t242 102q164 0 243.5 -98.5t79.5 -263.5zM646 350q0 149 -71 231.5t-196 82.5t-196 -82.5t-71 -231.5t71 -231.5t196 -82.5t196 82.5t71 231.5zM333 727l-35 27l174 153l34 -31z" />
    <glyph glyph-name="Ocircumflex" unicode="&#xd4;" horiz-adv-x="758" 
d="M702 350q0 -158 -81 -260t-242 -102q-164 0 -243.5 98.5t-79.5 263.5q0 158 81 260t242 102q164 0 243.5 -98.5t79.5 -263.5zM646 350q0 149 -71 231.5t-196 82.5t-196 -82.5t-71 -231.5t71 -231.5t196 -82.5t196 82.5t71 231.5zM492 729l-111 128l-117 -128l-33 30
l126 138h48l122 -138z" />
    <glyph glyph-name="Otilde" unicode="&#xd5;" horiz-adv-x="758" 
d="M702 350q0 -158 -81 -260t-242 -102q-164 0 -243.5 98.5t-79.5 263.5q0 158 81 260t242 102q164 0 243.5 -98.5t79.5 -263.5zM646 350q0 149 -71 231.5t-196 82.5t-196 -82.5t-71 -231.5t71 -231.5t196 -82.5t196 82.5t71 231.5zM510 858l35 -26l-9 -15q-38 -52 -92 -52
q-29 0 -70.5 26t-60.5 26q-28 0 -54 -38l-7 -10l-39 26l8 13q38 57 91 57q33 0 77 -25q3 -2 12 -7.5t12.5 -7.5t10.5 -5.5t12.5 -5t11.5 -1.5q25 0 54 34z" />
    <glyph glyph-name="Odieresis" unicode="&#xd6;" horiz-adv-x="758" 
d="M702 350q0 -158 -81 -260t-242 -102q-164 0 -243.5 98.5t-79.5 263.5q0 158 81 260t242 102q164 0 243.5 -98.5t79.5 -263.5zM646 350q0 149 -71 231.5t-196 82.5t-196 -82.5t-71 -231.5t71 -231.5t196 -82.5t196 82.5t71 231.5zM441 809q0 20 12.5 34t31.5 14t31.5 -14
t12.5 -34t-12.5 -34t-31.5 -14t-31.5 14t-12.5 34zM229 809q0 20 12.5 34t31.5 14t31.5 -14t12.5 -34t-12.5 -34t-31.5 -14t-31.5 14t-12.5 34z" />
    <glyph glyph-name="multiply" unicode="&#xd7;" horiz-adv-x="600" 
d="M490 27l-191 191l-189 -191l-36 36l190 190l-190 190l36 36l189 -191l191 191l36 -36l-190 -190l190 -190z" />
    <glyph glyph-name="Oslash" unicode="&#xd8;" horiz-adv-x="758" 
d="M562 595l-320 -525q58 -34 137 -34q125 0 196 82.5t71 231.5q0 161 -84 245zM203 98l322 527q-61 39 -146 39q-125 0 -196 -82.5t-71 -231.5q0 -170 91 -252zM99 -74l75 124q-118 92 -118 300q0 158 81 260t242 102q103 0 174 -41l70 114l40 -24l-71 -117
q110 -93 110 -294q0 -158 -81 -260t-242 -102q-95 0 -165 36l-75 -122z" />
    <glyph glyph-name="Ugrave" unicode="&#xd9;" horiz-adv-x="760" 
d="M37 700h227v-44h-82q0 -44 -2 -179.5t-2 -209.5q0 -135 43 -183t164 -48q62 0 100.5 13.5t60 47t29.5 79t9 120.5l4 360h-88v44h223v-44h-79l-4 -384q-1 -67 -11.5 -114.5t-37.5 -88t-79 -61t-129 -20.5q-67 0 -115.5 14t-76.5 36t-43.5 59t-20.5 73.5t-5 87.5
q0 76 2 214.5t2 183.5h-89v44zM426 727l-173 149l34 31l174 -153z" />
    <glyph glyph-name="Uacute" unicode="&#xda;" horiz-adv-x="760" 
d="M37 700h227v-44h-82q0 -44 -2 -179.5t-2 -209.5q0 -135 43 -183t164 -48q62 0 100.5 13.5t60 47t29.5 79t9 120.5l4 360h-88v44h223v-44h-79l-4 -384q-1 -67 -11.5 -114.5t-37.5 -88t-79 -61t-129 -20.5q-67 0 -115.5 14t-76.5 36t-43.5 59t-20.5 73.5t-5 87.5
q0 76 2 214.5t2 183.5h-89v44zM334 727l-35 27l174 153l34 -31z" />
    <glyph glyph-name="Ucircumflex" unicode="&#xdb;" horiz-adv-x="760" 
d="M37 700h227v-44h-82q0 -44 -2 -179.5t-2 -209.5q0 -135 43 -183t164 -48q62 0 100.5 13.5t60 47t29.5 79t9 120.5l4 360h-88v44h223v-44h-79l-4 -384q-1 -67 -11.5 -114.5t-37.5 -88t-79 -61t-129 -20.5q-67 0 -115.5 14t-76.5 36t-43.5 59t-20.5 73.5t-5 87.5
q0 76 2 214.5t2 183.5h-89v44zM493 729l-111 128l-117 -128l-33 30l126 138h48l122 -138z" />
    <glyph glyph-name="Udieresis" unicode="&#xdc;" horiz-adv-x="760" 
d="M37 700h227v-44h-82q0 -44 -2 -179.5t-2 -209.5q0 -135 43 -183t164 -48q62 0 100.5 13.5t60 47t29.5 79t9 120.5l4 360h-88v44h223v-44h-79l-4 -384q-1 -67 -11.5 -114.5t-37.5 -88t-79 -61t-129 -20.5q-67 0 -115.5 14t-76.5 36t-43.5 59t-20.5 73.5t-5 87.5
q0 76 2 214.5t2 183.5h-89v44zM452 809q0 20 12.5 34t31.5 14t31.5 -14t12.5 -34t-12.5 -34t-31.5 -14t-31.5 14t-12.5 34zM240 809q0 20 12.5 34t31.5 14t31.5 -14t12.5 -34t-12.5 -34t-31.5 -14t-31.5 14t-12.5 34z" />
    <glyph glyph-name="Yacute" unicode="&#xdd;" horiz-adv-x="704" 
d="M248 0v44h81l4 268l-252 344h-75v44h215v-44h-75q12 -12 20 -24l194 -270l195 270q8 12 20 24h-92v44h215v-44h-66l-243 -344l-4 -268h87v-44h-224zM341 727l-35 27l174 153l34 -31z" />
    <glyph glyph-name="Thorn" unicode="&#xde;" 
d="M189 533l-2 -315h105q73 0 118.5 41t45.5 119t-49.5 116.5t-130.5 38.5h-87zM50 0v44h80l4 612h-84v44h220v-44h-80v-79h73q38 0 69.5 -3.5t66 -16t58.5 -33t39.5 -57t15.5 -86.5q0 -94 -61 -152.5t-162 -58.5h-102l-1 -126h84v-44h-220z" />
    <glyph glyph-name="germandbls" unicode="&#xdf;" horiz-adv-x="685" 
d="M54 0v44h81l4 426h-100v44h100l1 48q0 37 12 72t37 68.5t74 54t115 20.5q101 0 155.5 -39.5t54.5 -107.5q0 -49 -21.5 -78t-61.5 -52l-87 -49q-30 -17 -44 -35t-14 -46q0 -48 86 -75l81 -25q46 -14 74 -48t28 -78q0 -64 -45 -108t-133 -44q-91 0 -143 20v127h44v-93
q42 -10 104 -10q59 0 90 30t31 69q0 64 -71 88l-117 40q-39 14 -60 43.5t-21 65.5q0 38 17 62.5t56 46.5l92 53q63 37 63 94q0 52 -45.5 78.5t-112.5 26.5q-87 0 -136.5 -45.5t-50.5 -140.5l-4 -503h68v-44h-201z" />
    <glyph glyph-name="agrave" unicode="&#xe0;" horiz-adv-x="574" 
d="M522 44v-44h-134q0 53 11 117h-2q-49 -129 -168 -129q-72 0 -117.5 36.5t-45.5 106.5q0 68 50.5 105.5t134.5 43.5l139 9q2 32 2 47q0 70 -28.5 106t-105.5 36q-60 0 -120 -20l-2 -86h-48l2 118q67 36 176 36q176 0 176 -164q0 -71 -2 -183t-2 -135h84zM122 132
q0 -43 30.5 -69.5t84.5 -26.5q71 0 112 54q26 33 33.5 65t7.5 90q-54 -1 -84 -3t-66 -6t-53.5 -11t-34.5 -19.5t-23.5 -30.5t-6.5 -43zM303 606l-173 149l34 31l174 -153z" />
    <glyph glyph-name="aacute" unicode="&#xe1;" horiz-adv-x="574" 
d="M522 44v-44h-134q0 53 11 117h-2q-49 -129 -168 -129q-72 0 -117.5 36.5t-45.5 106.5q0 68 50.5 105.5t134.5 43.5l139 9q2 32 2 47q0 70 -28.5 106t-105.5 36q-60 0 -120 -20l-2 -86h-48l2 118q67 36 176 36q176 0 176 -164q0 -71 -2 -183t-2 -135h84zM122 132
q0 -43 30.5 -69.5t84.5 -26.5q71 0 112 54q26 33 33.5 65t7.5 90q-54 -1 -84 -3t-66 -6t-53.5 -11t-34.5 -19.5t-23.5 -30.5t-6.5 -43zM211 606l-35 27l174 153l34 -31z" />
    <glyph glyph-name="acircumflex" unicode="&#xe2;" horiz-adv-x="574" 
d="M522 44v-44h-134q0 53 11 117h-2q-49 -129 -168 -129q-72 0 -117.5 36.5t-45.5 106.5q0 68 50.5 105.5t134.5 43.5l139 9q2 32 2 47q0 70 -28.5 106t-105.5 36q-60 0 -120 -20l-2 -86h-48l2 118q67 36 176 36q176 0 176 -164q0 -71 -2 -183t-2 -135h84zM122 132
q0 -43 30.5 -69.5t84.5 -26.5q71 0 112 54q26 33 33.5 65t7.5 90q-54 -1 -84 -3t-66 -6t-53.5 -11t-34.5 -19.5t-23.5 -30.5t-6.5 -43zM370 608l-111 128l-117 -128l-33 30l126 138h48l122 -138z" />
    <glyph glyph-name="atilde" unicode="&#xe3;" horiz-adv-x="574" 
d="M522 44v-44h-134q0 53 11 117h-2q-49 -129 -168 -129q-72 0 -117.5 36.5t-45.5 106.5q0 68 50.5 105.5t134.5 43.5l139 9q2 32 2 47q0 70 -28.5 106t-105.5 36q-60 0 -120 -20l-2 -86h-48l2 118q67 36 176 36q176 0 176 -164q0 -71 -2 -183t-2 -135h84zM122 132
q0 -43 30.5 -69.5t84.5 -26.5q71 0 112 54q26 33 33.5 65t7.5 90q-54 -1 -84 -3t-66 -6t-53.5 -11t-34.5 -19.5t-23.5 -30.5t-6.5 -43zM388 737l35 -26l-9 -15q-38 -52 -92 -52q-29 0 -70.5 26t-60.5 26q-28 0 -54 -38l-7 -10l-39 26l8 13q38 57 91 57q33 0 77 -25
q3 -2 12 -7.5t12.5 -7.5t10.5 -5.5t12.5 -5t11.5 -1.5q25 0 54 34z" />
    <glyph glyph-name="adieresis" unicode="&#xe4;" horiz-adv-x="574" 
d="M522 44v-44h-134q0 53 11 117h-2q-49 -129 -168 -129q-72 0 -117.5 36.5t-45.5 106.5q0 68 50.5 105.5t134.5 43.5l139 9q2 32 2 47q0 70 -28.5 106t-105.5 36q-60 0 -120 -20l-2 -86h-48l2 118q67 36 176 36q176 0 176 -164q0 -71 -2 -183t-2 -135h84zM122 132
q0 -43 30.5 -69.5t84.5 -26.5q71 0 112 54q26 33 33.5 65t7.5 90q-54 -1 -84 -3t-66 -6t-53.5 -11t-34.5 -19.5t-23.5 -30.5t-6.5 -43zM319 688q0 20 12.5 34t31.5 14t31.5 -14t12.5 -34t-12.5 -34t-31.5 -14t-31.5 14t-12.5 34zM107 688q0 20 12.5 34t31.5 14t31.5 -14
t12.5 -34t-12.5 -34t-31.5 -14t-31.5 14t-12.5 34z" />
    <glyph glyph-name="aring" unicode="&#xe5;" horiz-adv-x="574" 
d="M522 44v-44h-134q0 53 11 117h-2q-49 -129 -168 -129q-72 0 -117.5 36.5t-45.5 106.5q0 68 50.5 105.5t134.5 43.5l139 9q2 32 2 47q0 70 -28.5 106t-105.5 36q-60 0 -120 -20l-2 -86h-48l2 118q67 36 176 36q176 0 176 -164q0 -71 -2 -183t-2 -135h84zM122 132
q0 -43 30.5 -69.5t84.5 -26.5q71 0 112 54q26 33 33.5 65t7.5 90q-54 -1 -84 -3t-66 -6t-53.5 -11t-34.5 -19.5t-23.5 -30.5t-6.5 -43zM166 696q0 38 27 64.5t64 26.5t64 -26.5t27 -64.5t-27 -64.5t-64 -26.5t-64 26.5t-27 64.5zM206 696q0 -23 14 -39t37 -16t37 16t14 39
t-14 39t-37 16t-37 -16t-14 -39z" />
    <glyph glyph-name="ae" unicode="&#xe6;" horiz-adv-x="870" 
d="M818 250h-362v-48q0 -80 48 -123t131 -43q87 0 152 38v-52q-21 -13 -64.5 -23.5t-94.5 -10.5q-76 0 -131 35.5t-71 96.5h-2q-15 -58 -65 -95t-124 -37q-69 0 -119 38.5t-50 110.5q0 66 51.5 106.5t154.5 44.5l132 6v35q0 149 -152 149q-60 0 -120 -20l-2 -86h-48l2 118
q22 12 76 24t100 12q65 0 111 -28.5t65 -77.5q50 106 172 106q61 0 103.5 -21.5t65 -61t32 -86.5t9.5 -107zM404 204v46l-121 -6q-161 -7 -161 -106q0 -43 32 -72.5t93 -29.5q73 0 115 53.5t42 114.5zM456 294h306q0 76 -37.5 130t-118.5 54q-76 0 -113 -48.5t-37 -135.5z
" />
    <glyph glyph-name="ccedilla" unicode="&#xe7;" horiz-adv-x="519" 
d="M417 374v88q-46 16 -111 16q-95 0 -144.5 -60t-49.5 -161t49.5 -161t144.5 -60q94 0 156 30v-51q-59 -26 -144 -27v-52h13q29 0 51 -19t22 -49q0 -37 -25 -59t-71 -22q-55 0 -100 18l7 36q43 -18 79 -18q58 0 58 40q0 37 -54 37h-20v88q-108 8 -165 83.5t-57 185.5
q0 117 64 193t184 76q86 0 161 -27v-125h-48z" />
    <glyph glyph-name="egrave" unicode="&#xe8;" horiz-adv-x="537" 
d="M104 306h329q0 74 -41 123t-121 49q-45 0 -79.5 -18t-52.5 -45.5t-26.5 -55.5t-8.5 -53zM466 79l-2 -52q-26 -16 -72 -27.5t-92 -11.5q-123 0 -187.5 73.5t-64.5 204.5q0 111 60 185.5t166 74.5q61 0 104.5 -23t66.5 -62.5t33.5 -83.5t10.5 -95h-385q3 -226 204 -226
q78 0 158 43zM327 606l-173 149l34 31l174 -153z" />
    <glyph glyph-name="eacute" unicode="&#xe9;" horiz-adv-x="537" 
d="M104 306h329q0 74 -41 123t-121 49q-45 0 -79.5 -18t-52.5 -45.5t-26.5 -55.5t-8.5 -53zM466 79l-2 -52q-26 -16 -72 -27.5t-92 -11.5q-123 0 -187.5 73.5t-64.5 204.5q0 111 60 185.5t166 74.5q61 0 104.5 -23t66.5 -62.5t33.5 -83.5t10.5 -95h-385q3 -226 204 -226
q78 0 158 43zM243 606l-35 27l174 153l34 -31z" />
    <glyph glyph-name="ecircumflex" unicode="&#xea;" horiz-adv-x="537" 
d="M104 306h329q0 74 -41 123t-121 49q-45 0 -79.5 -18t-52.5 -45.5t-26.5 -55.5t-8.5 -53zM466 79l-2 -52q-26 -16 -72 -27.5t-92 -11.5q-123 0 -187.5 73.5t-64.5 204.5q0 111 60 185.5t166 74.5q61 0 104.5 -23t66.5 -62.5t33.5 -83.5t10.5 -95h-385q3 -226 204 -226
q78 0 158 43zM394 608l-111 128l-117 -128l-33 30l126 138h48l122 -138z" />
    <glyph glyph-name="edieresis" unicode="&#xeb;" horiz-adv-x="537" 
d="M104 306h329q0 74 -41 123t-121 49q-45 0 -79.5 -18t-52.5 -45.5t-26.5 -55.5t-8.5 -53zM466 79l-2 -52q-26 -16 -72 -27.5t-92 -11.5q-123 0 -187.5 73.5t-64.5 204.5q0 111 60 185.5t166 74.5q61 0 104.5 -23t66.5 -62.5t33.5 -83.5t10.5 -95h-385q3 -226 204 -226
q78 0 158 43zM343 688q0 20 12.5 34t31.5 14t31.5 -14t12.5 -34t-12.5 -34t-31.5 -14t-31.5 14t-12.5 34zM131 688q0 20 12.5 34t31.5 14t31.5 -14t12.5 -34t-12.5 -34t-31.5 -14t-31.5 14t-12.5 34z" />
    <glyph glyph-name="igrave" unicode="&#xec;" horiz-adv-x="296" 
d="M32 0v44h88l3 426h-99v44h151l-3 -470h92v-44h-232zM184 606l-173 149l34 31l174 -153z" />
    <glyph glyph-name="iacute" unicode="&#xed;" horiz-adv-x="296" 
d="M32 0v44h88l3 426h-99v44h151l-3 -470h92v-44h-232zM102 606l-35 27l174 153l34 -31z" />
    <glyph glyph-name="icircumflex" unicode="&#xee;" horiz-adv-x="296" 
d="M32 0v44h88l3 426h-99v44h151l-3 -470h92v-44h-232zM251 608l-111 128l-117 -128l-33 30l126 138h48l122 -138z" />
    <glyph glyph-name="idieresis" unicode="&#xef;" horiz-adv-x="296" 
d="M32 0v44h88l3 426h-99v44h151l-3 -470h92v-44h-232zM200 688q0 20 12.5 34t31.5 14t31.5 -14t12.5 -34t-12.5 -34t-31.5 -14t-31.5 14t-12.5 34zM-12 688q0 20 12.5 34t31.5 14t31.5 -14t12.5 -34t-12.5 -34t-31.5 -14t-31.5 14t-12.5 34z" />
    <glyph glyph-name="eth" unicode="&#xf0;" horiz-adv-x="574" 
d="M104 257q0 -100 47.5 -160.5t135.5 -60.5t135.5 60.5t47.5 160.5t-47.5 160.5t-135.5 60.5t-135.5 -60.5t-47.5 -160.5zM194 611l-30 30l92 55q-37 33 -75 56l45 25q39 -27 70 -56l92 56l30 -30l-90 -55l28 -30q85 -91 127.5 -189t42.5 -227q0 -108 -63 -183t-176 -75
q-114 0 -176.5 76.5t-62.5 192.5t62.5 192.5t176.5 76.5q90 0 147 -58h2q-47 102 -149 199z" />
    <glyph glyph-name="ntilde" unicode="&#xf1;" horiz-adv-x="648" 
d="M44 0v44h77l2 426h-90v44h143q0 -55 -12 -123h2q19 62 67 98.5t121 36.5q173 0 173 -201q0 -54 -2 -151.5t-2 -129.5h81v-44h-210v44h77q0 31 2 128t2 150q0 80 -32 118t-101 38q-75 0 -120.5 -56.5t-46.5 -133.5l-2 -244h81v-44h-210zM455 737l35 -26l-9 -15
q-38 -52 -92 -52q-29 0 -70.5 26t-60.5 26q-28 0 -54 -38l-7 -10l-39 26l8 13q38 57 91 57q33 0 77 -25q3 -2 12 -7.5t12.5 -7.5t10.5 -5.5t12.5 -5t11.5 -1.5q25 0 54 34z" />
    <glyph glyph-name="ograve" unicode="&#xf2;" horiz-adv-x="574" 
d="M104 257q0 -100 47.5 -160.5t135.5 -60.5t135.5 60.5t47.5 160.5t-47.5 160.5t-135.5 60.5t-135.5 -60.5t-47.5 -160.5zM48 257q0 116 62.5 192.5t176.5 76.5t176.5 -76.5t62.5 -192.5t-62.5 -192.5t-176.5 -76.5t-176.5 76.5t-62.5 192.5zM333 606l-173 149l34 31
l174 -153z" />
    <glyph glyph-name="oacute" unicode="&#xf3;" horiz-adv-x="574" 
d="M104 257q0 -100 47.5 -160.5t135.5 -60.5t135.5 60.5t47.5 160.5t-47.5 160.5t-135.5 60.5t-135.5 -60.5t-47.5 -160.5zM48 257q0 116 62.5 192.5t176.5 76.5t176.5 -76.5t62.5 -192.5t-62.5 -192.5t-176.5 -76.5t-176.5 76.5t-62.5 192.5zM241 606l-35 27l174 153
l34 -31z" />
    <glyph glyph-name="ocircumflex" unicode="&#xf4;" horiz-adv-x="574" 
d="M104 257q0 -100 47.5 -160.5t135.5 -60.5t135.5 60.5t47.5 160.5t-47.5 160.5t-135.5 60.5t-135.5 -60.5t-47.5 -160.5zM48 257q0 116 62.5 192.5t176.5 76.5t176.5 -76.5t62.5 -192.5t-62.5 -192.5t-176.5 -76.5t-176.5 76.5t-62.5 192.5zM400 608l-111 128l-117 -128
l-33 30l126 138h48l122 -138z" />
    <glyph glyph-name="otilde" unicode="&#xf5;" horiz-adv-x="574" 
d="M104 257q0 -100 47.5 -160.5t135.5 -60.5t135.5 60.5t47.5 160.5t-47.5 160.5t-135.5 60.5t-135.5 -60.5t-47.5 -160.5zM48 257q0 116 62.5 192.5t176.5 76.5t176.5 -76.5t62.5 -192.5t-62.5 -192.5t-176.5 -76.5t-176.5 76.5t-62.5 192.5zM418 737l35 -26l-9 -15
q-38 -52 -92 -52q-29 0 -70.5 26t-60.5 26q-28 0 -54 -38l-7 -10l-39 26l8 13q38 57 91 57q33 0 77 -25q3 -2 12 -7.5t12.5 -7.5t10.5 -5.5t12.5 -5t11.5 -1.5q25 0 54 34z" />
    <glyph glyph-name="odieresis" unicode="&#xf6;" horiz-adv-x="574" 
d="M104 257q0 -100 47.5 -160.5t135.5 -60.5t135.5 60.5t47.5 160.5t-47.5 160.5t-135.5 60.5t-135.5 -60.5t-47.5 -160.5zM48 257q0 116 62.5 192.5t176.5 76.5t176.5 -76.5t62.5 -192.5t-62.5 -192.5t-176.5 -76.5t-176.5 76.5t-62.5 192.5zM349 688q0 20 12.5 34t31.5 14
t31.5 -14t12.5 -34t-12.5 -34t-31.5 -14t-31.5 14t-12.5 34zM137 688q0 20 12.5 34t31.5 14t31.5 -14t12.5 -34t-12.5 -34t-31.5 -14t-31.5 14t-12.5 34z" />
    <glyph glyph-name="divide" unicode="&#xf7;" horiz-adv-x="600" 
d="M47 229v48h506v-48h-506zM244 462q0 23 16.5 39.5t39.5 16.5t39.5 -16.5t16.5 -39.5t-16.5 -39.5t-39.5 -16.5t-39.5 16.5t-16.5 39.5zM244 44q0 23 16.5 39.5t39.5 16.5t39.5 -16.5t16.5 -39.5t-16.5 -39.5t-39.5 -16.5t-39.5 16.5t-16.5 39.5z" />
    <glyph glyph-name="oslash" unicode="&#xf8;" horiz-adv-x="574" 
d="M163 84l219 368q-38 26 -95 26q-88 0 -135.5 -60.5t-47.5 -160.5q0 -116 59 -173zM76 -61l60 100q-88 76 -88 218q0 116 62.5 192.5t176.5 76.5q70 0 121 -30l61 102l36 -24l-62 -104q83 -72 83 -213q0 -116 -62.5 -192.5t-176.5 -76.5q-64 0 -115 27l-60 -100zM416 424
l-218 -365q36 -23 89 -23q88 0 135.5 60.5t47.5 160.5q0 109 -54 167z" />
    <glyph glyph-name="ugrave" unicode="&#xf9;" horiz-adv-x="648" 
d="M38 514h140q0 -35 -2 -148t-2 -174q0 -80 32 -118t101 -38q78 0 121 55.5t45 156.5l4 222h-92v44h144l-4 -470h80v-44h-131q0 55 12 123h-2q-18 -61 -67 -98t-112 -37q-86 0 -134.5 46t-48.5 155q0 54 2 151.5t2 129.5h-88v44zM370 606l-173 149l34 31l174 -153z" />
    <glyph glyph-name="uacute" unicode="&#xfa;" horiz-adv-x="648" 
d="M38 514h140q0 -35 -2 -148t-2 -174q0 -80 32 -118t101 -38q78 0 121 55.5t45 156.5l4 222h-92v44h144l-4 -470h80v-44h-131q0 55 12 123h-2q-18 -61 -67 -98t-112 -37q-86 0 -134.5 46t-48.5 155q0 54 2 151.5t2 129.5h-88v44zM278 606l-35 27l174 153l34 -31z" />
    <glyph glyph-name="ucircumflex" unicode="&#xfb;" horiz-adv-x="648" 
d="M38 514h140q0 -35 -2 -148t-2 -174q0 -80 32 -118t101 -38q78 0 121 55.5t45 156.5l4 222h-92v44h144l-4 -470h80v-44h-131q0 55 12 123h-2q-18 -61 -67 -98t-112 -37q-86 0 -134.5 46t-48.5 155q0 54 2 151.5t2 129.5h-88v44zM437 608l-111 128l-117 -128l-33 30
l126 138h48l122 -138z" />
    <glyph glyph-name="udieresis" unicode="&#xfc;" horiz-adv-x="648" 
d="M38 514h140q0 -35 -2 -148t-2 -174q0 -80 32 -118t101 -38q78 0 121 55.5t45 156.5l4 222h-92v44h144l-4 -470h80v-44h-131q0 55 12 123h-2q-18 -61 -67 -98t-112 -37q-86 0 -134.5 46t-48.5 155q0 54 2 151.5t2 129.5h-88v44zM376 688q0 20 12.5 34t31.5 14t31.5 -14
t12.5 -34t-12.5 -34t-31.5 -14t-31.5 14t-12.5 34zM164 688q0 20 12.5 34t31.5 14t31.5 -14t12.5 -34t-12.5 -34t-31.5 -14t-31.5 14t-12.5 34z" />
    <glyph glyph-name="yacute" unicode="&#xfd;" 
d="M5 514h201v-44h-73l139 -379q6 -15 11 -38h2q2 16 9 36l133 381h-77v44h191v-44h-62l-179 -501q-44 -123 -96 -177.5t-139 -54.5q-26 0 -60 8v49q54 -9 63 -9q103 0 149 109l39 93l-184 483h-67v44zM232 606l-35 27l174 153l34 -31z" />
    <glyph glyph-name="thorn" unicode="&#xfe;" horiz-adv-x="611" 
d="M36 -251v44h83l4 932h-96v44h148l-2 -263q0 -13 -1 -46.5t-1 -51.5h2q29 58 70 88t109 30q101 0 156 -67.5t55 -171.5q0 -133 -65.5 -216t-200.5 -83q-75 0 -124 18l-2 -213h93v-44h-228zM174 291l-1 -233q57 -26 126 -26q104 0 156 66t52 173q0 94 -39.5 150.5
t-125.5 56.5q-71 0 -119 -56t-49 -131z" />
    <glyph glyph-name="ydieresis" unicode="&#xff;" 
d="M5 514h201v-44h-73l139 -379q6 -15 11 -38h2q2 16 9 36l133 381h-77v44h191v-44h-62l-179 -501q-44 -123 -96 -177.5t-139 -54.5q-26 0 -60 8v49q54 -9 63 -9q103 0 149 109l39 93l-184 483h-67v44zM340 688q0 20 12.5 34t31.5 14t31.5 -14t12.5 -34t-12.5 -34t-31.5 -14
t-31.5 14t-12.5 34zM128 688q0 20 12.5 34t31.5 14t31.5 -14t12.5 -34t-12.5 -34t-31.5 -14t-31.5 14t-12.5 34z" />
    <glyph glyph-name="dotlessi" unicode="&#x131;" horiz-adv-x="296" 
d="M32 0v44h88l3 426h-99v44h151l-3 -470h92v-44h-232z" />
    <glyph glyph-name="Lslash" unicode="&#x141;" 
d="M50 0v44h80l2 272l-104 -80v52l104 81l2 287h-84v44h220v-44h-80l-2 -245l166 126v-52l-166 -126l-2 -315h277l8 104h48l-8 -148h-461z" />
    <glyph glyph-name="lslash" unicode="&#x142;" horiz-adv-x="316" 
d="M31 284v48l101 78l2 315h-114v44h166l-2 -319l109 84v-48l-109 -84l-2 -358h89v-44h-226v44h85l2 318z" />
    <glyph glyph-name="OE" unicode="&#x152;" horiz-adv-x="1019" 
d="M869 376v-44h-260l-2 -288h294l8 104h48l-8 -148h-371q-69 -7 -88 -8q-56 -4 -88 -4q-168 0 -257 94t-89 263q0 177 99 272t265 95q47 0 155 -13h364v-139h-44v95h-284l-2 -279h260zM551 44l4 611q-8 0 -55.5 4.5t-81.5 4.5q-143 0 -224.5 -84.5t-81.5 -233.5
q0 -152 81 -231t223 -79q88 0 135 8z" />
    <glyph glyph-name="oe" unicode="&#x153;" horiz-adv-x="907" 
d="M859 262h-366v-61q0 -80 50.5 -122.5t121.5 -42.5q75 0 165 37v-48q-90 -37 -170 -37q-70 0 -126 34.5t-69 99.5h-2q-14 -55 -62 -94.5t-118 -39.5q-111 0 -173 77t-62 192q0 116 62.5 192.5t176.5 76.5q128 0 183 -117h2q19 49 64.5 83t116.5 34q206 0 206 -264z
M441 235v70q0 83 -40.5 128t-117.5 45q-85 0 -132 -60.5t-47 -160.5t46.5 -160.5t129.5 -60.5q161 0 161 199zM493 306h310q0 75 -37 123.5t-113 48.5q-73 0 -116.5 -44.5t-43.5 -127.5z" />
    <glyph glyph-name="Scaron" unicode="&#x160;" horiz-adv-x="574" 
d="M73 158h52l2 -96q69 -26 150 -26q94 0 140.5 41t46.5 104q0 58 -40 91.5t-96.5 48t-113 31t-96.5 56.5t-40 109q0 79 59 137t172 58q95 0 182 -32l2 -128h-48l-2 92q-57 20 -138 20q-78 0 -124.5 -39.5t-46.5 -96.5q0 -43 21.5 -72t55.5 -44t75 -26t82 -24t75 -32.5
t55.5 -57.5t21.5 -92q0 -85 -64 -138.5t-174 -53.5q-101 0 -207 33zM281 739l-122 138l35 30l111 -128l117 128l33 -30l-126 -138h-48z" />
    <glyph glyph-name="scaron" unicode="&#x161;" horiz-adv-x="481" 
d="M54 146h49l2 -87q42 -27 125 -27q68 0 101 31.5t33 71.5q0 35 -20 56.5t-68 33.5l-88 21q-136 32 -136 136q0 64 49.5 104t129.5 40q84 0 156 -32l2 -117h-48l-2 83q-40 22 -105 22q-60 0 -93 -25.5t-33 -69.5q0 -75 87 -94l95 -21q67 -14 98.5 -45.5t31.5 -84.5
q0 -76 -52 -115t-142 -39q-102 0 -168 34zM215 608l-122 138l35 30l111 -128l117 128l33 -30l-126 -138h-48z" />
    <glyph glyph-name="Ydieresis" unicode="&#x178;" horiz-adv-x="704" 
d="M248 0v44h81l4 268l-252 344h-75v44h215v-44h-75q12 -12 20 -24l194 -270l195 270q8 12 20 24h-92v44h215v-44h-66l-243 -344l-4 -268h87v-44h-224zM424 809q0 20 12.5 34t31.5 14t31.5 -14t12.5 -34t-12.5 -34t-31.5 -14t-31.5 14t-12.5 34zM212 809q0 20 12.5 34
t31.5 14t31.5 -14t12.5 -34t-12.5 -34t-31.5 -14t-31.5 14t-12.5 34z" />
    <glyph glyph-name="Zcaron" unicode="&#x17d;" horiz-adv-x="648" 
d="M61 0v44l444 588q9 12 21 24h-401l-4 -108h-48l4 152h510v-44l-440 -588q-9 -12 -21 -24h408l4 111h48l-4 -155h-521zM298 729l-122 138l35 30l111 -128l117 128l33 -30l-126 -138h-48z" />
    <glyph glyph-name="zcaron" unicode="&#x17e;" horiz-adv-x="519" 
d="M56 0v44l325 398q13 16 26 28h-285l-4 -90h-49l6 134h393v-44l-325 -398q-13 -16 -26 -28h297l6 95h49l-8 -139h-405zM234 608l-122 138l35 30l111 -128l117 128l33 -30l-126 -138h-48z" />
    <glyph glyph-name="florin" unicode="&#x192;" 
d="M108 367v44h118l7 88q18 211 205 211q34 0 83 -9l-2 -47q-48 12 -84 12q-140 0 -154 -168l-7 -87h157v-44h-160l-23 -298q-10 -128 -55 -196t-140 -68q-27 0 -72 15l6 47q26 -14 68 -14q126 0 143 208l24 306h-114z" />
    <glyph glyph-name="circumflex" unicode="&#x2c6;" horiz-adv-x="278" 
d="M252 608l-111 128l-117 -128l-33 30l126 138h48l122 -138z" />
    <glyph glyph-name="caron" unicode="&#x2c7;" horiz-adv-x="278" 
d="M113 608l-122 138l35 30l111 -128l117 128l33 -30l-126 -138h-48z" />
    <glyph glyph-name="uni02C9" unicode="&#x2c9;" horiz-adv-x="278" 
d="M8 675v44h262v-44h-262z" />
    <glyph glyph-name="breve" unicode="&#x2d8;" horiz-adv-x="278" 
d="M-9 764l46 16l6 -20q26 -86 96 -86q72 0 96 86l6 20l46 -16l-6 -23q-33 -111 -142 -111q-110 0 -141 111z" />
    <glyph glyph-name="dotaccent" unicode="&#x2d9;" horiz-adv-x="278" 
d="M95 688q0 20 12.5 34t31.5 14t31.5 -14t12.5 -34t-12.5 -34t-31.5 -14t-31.5 14t-12.5 34z" />
    <glyph glyph-name="ring" unicode="&#x2da;" horiz-adv-x="278" 
d="M48 696q0 38 27 64.5t64 26.5t64 -26.5t27 -64.5t-27 -64.5t-64 -26.5t-64 26.5t-27 64.5zM88 696q0 -23 14 -39t37 -16t37 16t14 39t-14 39t-37 16t-37 -16t-14 -39z" />
    <glyph glyph-name="ogonek" unicode="&#x2db;" horiz-adv-x="278" 
d="M187 0h40q-74 -57 -74 -124q0 -27 15.5 -40t38.5 -13q22 0 44 5l10 -34q-31 -7 -64 -7q-46 0 -71 22t-25 59q0 36 27 73t59 59z" />
    <glyph glyph-name="tilde" unicode="&#x2dc;" horiz-adv-x="278" 
d="M270 737l35 -26l-9 -15q-38 -52 -92 -52q-29 0 -70.5 26t-60.5 26q-28 0 -54 -38l-7 -10l-39 26l8 13q38 57 91 57q33 0 77 -25q3 -2 12 -7.5t12.5 -7.5t10.5 -5.5t12.5 -5t11.5 -1.5q25 0 54 34z" />
    <glyph glyph-name="hungarumlaut" unicode="&#x2dd;" horiz-adv-x="278" 
d="M-7 606l-35 27l174 153l34 -31zM193 606l-35 27l174 153l34 -31z" />
    <glyph glyph-name="uni03A9" unicode="&#x3a9;" horiz-adv-x="727" 
d="M211 42v3q-63 54 -103 137t-40 185q0 151 86 244.5t213 93.5t209 -97t82 -237q0 -106 -42 -192t-101 -134v-3h157v-42h-230v31q70 46 117.5 133t47.5 199q0 71 -26 137.5t-82.5 114t-132.5 47.5q-110 0 -178 -87t-68 -213q0 -107 48.5 -197.5t115.5 -133.5v-31h-229v42
h156z" />
    <glyph glyph-name="uni03BC" unicode="&#x3bc;" horiz-adv-x="648" 
d="M605 44v-44h-131q0 55 12 123h-2q-18 -61 -67 -98t-112 -37q-40 0 -76 18t-55 49h-2q2 -23 2 -61q0 -81 -2 -245h-51q0 74 0.5 220.5t0.5 219.5q0 54 2 151.5t2 129.5h-88v44h140q0 -35 -2 -148t-2 -174q0 -80 32 -118t101 -38q75 0 119.5 54.5t46.5 130.5l4 249h-92v44
h144l-4 -470h80z" />
    <glyph glyph-name="pi" unicode="&#x3c0;" horiz-adv-x="557" 
d="M529 470h-86v-324q0 -92 15 -146h-49q-16 28 -16 139v331h-202q-6 -115 -28.5 -261t-49.5 -209h-50q28 73 50 213t27 257q-83 0 -118 -14l-10 34q41 24 134 24h389z" />
    <glyph glyph-name="endash" unicode="&#x2013;" horiz-adv-x="500" 
d="M0 236v48h500v-48h-500z" />
    <glyph glyph-name="emdash" unicode="&#x2014;" horiz-adv-x="1000" 
d="M0 236v48h1000v-48h-1000z" />
    <glyph glyph-name="quoteleft" unicode="&#x2018;" horiz-adv-x="278" 
d="M167 777l24 -24q-17 -14 -32.5 -42t-15.5 -50q0 -24 22 -48.5t22 -40.5q0 -15 -12.5 -27t-32.5 -12q-21 0 -38 20t-17 54q0 33 14 73.5t42 70.5z" />
    <glyph glyph-name="quoteright" unicode="&#x2019;" horiz-adv-x="278" 
d="M111 533l-24 24q17 14 32.5 42t15.5 50q0 24 -22 48.5t-22 40.5q0 15 12.5 27t32.5 12q21 0 38 -20t17 -54q0 -33 -14 -73.5t-42 -70.5z" />
    <glyph glyph-name="quotesinglbase" unicode="&#x201a;" horiz-adv-x="278" 
d="M111 -160l-24 24q17 14 32.5 42t15.5 50q0 24 -22 48.5t-22 40.5q0 15 12.5 27t32.5 12q21 0 38 -20t17 -54q0 -32 -14.5 -73t-41.5 -71z" />
    <glyph glyph-name="quotedblleft" unicode="&#x201c;" horiz-adv-x="389" 
d="M305 777l24 -24q-17 -14 -32.5 -42t-15.5 -50q0 -24 22 -48.5t22 -40.5q0 -15 -12.5 -27t-32.5 -12q-21 0 -38 20t-17 54q0 33 14 73.5t42 70.5zM140 777l24 -24q-17 -14 -32.5 -42t-15.5 -50q0 -24 22 -48.5t22 -40.5q0 -15 -12.5 -27t-32.5 -12q-21 0 -38 20t-17 54
q0 33 14 73.5t42 70.5z" />
    <glyph glyph-name="quotedblright" unicode="&#x201d;" horiz-adv-x="389" 
d="M249 533l-24 24q17 14 32.5 42t15.5 50q0 24 -22 48.5t-22 40.5q0 15 12.5 27t32.5 12q21 0 38 -20t17 -54q0 -33 -14 -73.5t-42 -70.5zM84 533l-24 24q17 14 32.5 42t15.5 50q0 24 -22 48.5t-22 40.5q0 15 12.5 27t32.5 12q21 0 38 -20t17 -54q0 -33 -14 -73.5
t-42 -70.5z" />
    <glyph glyph-name="quotedblbase" unicode="&#x201e;" horiz-adv-x="389" 
d="M249 -160l-24 24q17 14 32.5 42t15.5 50q0 24 -22 48.5t-22 40.5q0 15 12.5 27t32.5 12q21 0 38 -20t17 -54q0 -32 -14.5 -73t-41.5 -71zM84 -160l-24 24q17 14 32.5 42t15.5 50q0 24 -22 48.5t-22 40.5q0 15 12.5 27t32.5 12q21 0 38 -20t17 -54q0 -32 -14.5 -73
t-41.5 -71z" />
    <glyph glyph-name="dagger" unicode="&#x2020;" 
d="M254 700h52l-2 -231h200v-44h-200l-2 -620h-52l2 620h-200v44h200z" />
    <glyph glyph-name="daggerdbl" unicode="&#x2021;" 
d="M52 52v44h199l1 329h-200v44h200l2 231h52l-2 -231h200v-44h-200l-1 -329h201v-44h-201l-1 -247h-52l1 247h-199z" />
    <glyph glyph-name="bullet" unicode="&#x2022;" horiz-adv-x="500" 
d="M75 350q0 73 51 124t124 51t124 -51t51 -124t-51 -124t-124 -51t-124 51t-51 124z" />
    <glyph glyph-name="ellipsis" unicode="&#x2026;" horiz-adv-x="1000" 
d="M121 36q0 20 13.5 34t32.5 14t32.5 -14t13.5 -34t-13.5 -34t-32.5 -14t-32.5 14t-13.5 34zM454 36q0 20 13.5 34t32.5 14t32.5 -14t13.5 -34t-13.5 -34t-32.5 -14t-32.5 14t-13.5 34zM787 36q0 20 13.5 34t32.5 14t32.5 -14t13.5 -34t-13.5 -34t-32.5 -14t-32.5 14
t-13.5 34z" />
    <glyph glyph-name="perthousand" unicode="&#x2030;" horiz-adv-x="1167" 
d="M982 308q66 0 107 -42.5t41 -114.5q0 -75 -42.5 -118t-107.5 -43q-69 0 -110 44.5t-41 114.5q0 69 42.5 114t110.5 45zM980 268q-46 0 -74.5 -32t-28.5 -87q0 -52 27 -85.5t77 -33.5q47 0 74 33.5t27 89.5q0 50 -26 82.5t-76 32.5zM190 710q66 0 107 -42.5t41 -114.5
q0 -75 -42.5 -118t-107.5 -43q-69 0 -110 44.5t-41 114.5q0 69 42.5 114t110.5 45zM188 670q-46 0 -74.5 -32t-28.5 -87q0 -52 27 -85.5t77 -33.5q47 0 74 33.5t27 89.5q0 50 -26 82.5t-76 32.5zM629 308q66 0 107 -42.5t41 -114.5q0 -75 -42.5 -118t-107.5 -43
q-69 0 -110 44.5t-41 114.5q0 69 42.5 114t110.5 45zM627 268q-46 0 -74.5 -32t-28.5 -87q0 -52 27 -85.5t77 -33.5q47 0 74 33.5t27 89.5q0 50 -26 82.5t-76 32.5zM187 -54l-36 24l459 784l36 -24z" />
    <glyph glyph-name="guilsinglleft" unicode="&#x2039;" horiz-adv-x="296" 
d="M64 239v42l134 144l34 -31l-124 -134l119 -133l-34 -32z" />
    <glyph glyph-name="guilsinglright" unicode="&#x203a;" horiz-adv-x="296" 
d="M232 281v-42l-134 -144l-34 31l124 134l-119 133l34 32z" />
    <glyph glyph-name="fraction" unicode="&#x2044;" horiz-adv-x="167" 
d="M-128 -54l-36 24l459 784l36 -24z" />
    <glyph glyph-name="Euro" unicode="&#x20ac;" 
d="M539 674v-114h-46v81q-54 19 -104 19q-190 0 -232 -223h321l-20 -46h-306q-2 -26 -2 -46v-17h286l-20 -46h-262q32 -242 230 -242q62 0 146 30l-1 -52q-68 -25 -150 -25q-128 0 -201 82q-68 75 -81 207h-57l20 46h34q0 48 1 63h-57l20 46h43q23 121 90 192q73 78 193 78
q78 0 155 -33z" />
    <glyph glyph-name="afii61289" unicode="&#x2113;" horiz-adv-x="472" 
d="M418 136l28 -22q-63 -119 -177 -119q-78 0 -117 54.5t-41 138.5v14q-17 -13 -60 -50l-19 32q63 54 78 69v282q0 125 42 179t100 54q57 0 87 -44t30 -111q0 -170 -211 -374v-29q0 -89 34 -131.5t86 -42.5q46 0 82.5 29.5t57.5 70.5zM158 543v-250q82 88 127 164t45 152
q0 118 -80 118q-36 0 -64 -45t-28 -139z" />
    <glyph glyph-name="trademark" unicode="&#x2122;" horiz-adv-x="990" 
d="M178 288v368h-136v44h320v-44h-136v-368h-48zM654 361l130 339h82v-412h-48v368h-2l-149 -368h-30l-149 368h-2v-368h-48v412h82z" />
    <glyph glyph-name="Omega" unicode="&#x2126;" horiz-adv-x="727" 
d="M211 42v3q-63 54 -103 137t-40 185q0 151 86 244.5t213 93.5t209 -97t82 -237q0 -106 -42 -192t-101 -134v-3h157v-42h-230v31q70 46 117.5 133t47.5 199q0 71 -26 137.5t-82.5 114t-132.5 47.5q-110 0 -178 -87t-68 -213q0 -107 48.5 -197.5t115.5 -133.5v-31h-229v42
h156z" />
    <glyph glyph-name="estimated" unicode="&#x212e;" horiz-adv-x="868" 
d="M833 340h-647q-5 0 -5 -4v-196q0 -12 8 -23q103 -106 245 -106q75 0 142 32t116 87h57q-54 -64 -137.5 -101.5t-178.5 -37.5q-165 0 -282 105t-117 254t117 254.5t282 105.5q166 0 283 -105.5t117 -254.5v-10zM686 365v198q0 14 -9 23q-104 102 -243 102
q-141 0 -244 -105q-9 -11 -9 -25v-193q0 -6 5 -6h496q4 0 4 6z" />
    <glyph glyph-name="partialdiff" unicode="&#x2202;" horiz-adv-x="534" 
d="M101 687l-21 36q67 55 159 55q100 0 171 -96.5t71 -278.5q0 -178 -65 -293.5t-186 -115.5q-89 0 -137 66.5t-48 160.5q0 111 62.5 180.5t148.5 69.5q64 0 110 -34.5t64 -68.5h1q1 13 1 48q0 144 -58 231.5t-139 87.5q-76 0 -134 -48zM234 36h1q75 0 125.5 78.5
t62.5 194.5q-15 44 -59 82t-103 38q-67 0 -116.5 -60.5t-49.5 -145.5q0 -82 38.5 -134.5t100.5 -52.5z" />
    <glyph glyph-name="Delta" unicode="&#x2206;" horiz-adv-x="644" 
d="M33 0v40l262 674h57l259 -673v-41h-578zM84 42h472l-162 421q-8 23 -36 93t-35 96h-4q-4 -17 -15.5 -47t-26.5 -68.5t-22 -56.5z" />
    <glyph glyph-name="product" unicode="&#x220f;" horiz-adv-x="689" 
d="M662 647h-113v-743h-50v743h-310v-743h-49v743h-114v46h636v-46z" />
    <glyph glyph-name="summation" unicode="&#x2211;" horiz-adv-x="552" 
d="M528 -96h-505v35l282 358l-269 361v35h476v-44h-403v-4l255 -342l-273 -347v-3h437v-49z" />
    <glyph glyph-name="minus" unicode="&#x2212;" horiz-adv-x="600" 
d="M47 229v48h506v-48h-506z" />
    <glyph glyph-name="uni2215" unicode="&#x2215;" horiz-adv-x="167" 
d="M-128 -54l-36 24l459 784l36 -24z" />
    <glyph glyph-name="uni2219" unicode="&#x2219;" horiz-adv-x="278" 
d="M83 292q0 23 16.5 39.5t39.5 16.5t39.5 -16.5t16.5 -39.5t-16.5 -39.5t-39.5 -16.5t-39.5 16.5t-16.5 39.5z" />
    <glyph glyph-name="radical" unicode="&#x221a;" horiz-adv-x="561" 
d="M558 821l-221 -974h-49l-166 473l-75 -28l-12 34l120 46l140 -395q2 -11 8 -34t8 -32h1q1 8 3 18.5t5 24t4 20.5l194 847h40z" />
    <glyph glyph-name="infinity" unicode="&#x221e;" horiz-adv-x="774" 
d="M722 289v-1q0 -67 -44 -109.5t-104 -42.5q-45 0 -84 28t-102 94q-37 -41 -56.5 -60.5t-57.5 -40.5t-77 -21q-59 0 -102 44t-43 105q0 65 43 108.5t109 43.5q36 0 72 -20t59 -42t57 -61q25 28 34 38t32.5 31t38.5 29.5t38 16.5t47 8q64 0 102 -41t38 -107zM203 173h1
q19 0 38 6.5t37.5 21t30.5 25t32 31.5t26 27q-57 66 -83 85q-44 33 -89 33q-47 0 -75.5 -35t-28.5 -83q1 -47 31.5 -79t79.5 -32zM577 402h-1q-24 0 -51 -14t-42.5 -28.5t-40 -40t-30.5 -31.5q61 -64 94.5 -89.5t71.5 -25.5q48 0 76.5 34t28.5 79q0 55 -29.5 85.5
t-76.5 30.5z" />
    <glyph glyph-name="integral" unicode="&#x222b;" horiz-adv-x="339" 
d="M325 828l-12 -36q-15 11 -37 11q-32 0 -51 -22q-37 -42 -37 -183q0 -76 6.5 -254t6.5 -256q0 -137 -46 -201q-29 -41 -85 -41q-37 0 -60 16l12 38q26 -13 46 -13q29 0 48 24q37 48 37 179q0 78 -6.5 258t-6.5 255q0 153 51 204q33 36 83 36q30 0 51 -15z" />
    <glyph glyph-name="approxequal" unicode="&#x2248;" horiz-adv-x="570" 
d="M495 419l24 -20q-46 -91 -125 -91q-20 0 -40.5 6t-33.5 12.5t-46 24.5q-64 34 -97 34q-56 0 -102 -76l-26 20q49 91 135 91q17 0 35.5 -5t29 -10t28.5 -15.5t22 -12.5t16 -8.5t16.5 -8.5t14.5 -6.5t16.5 -6t16 -3t18.5 -1.5q31 0 53 18t45 58zM495 256l24 -20
q-46 -91 -125 -91q-8 0 -15.5 1t-13.5 2t-15 4t-12.5 4.5t-15 7t-14.5 7l-17 8.5t-17 9q-62 35 -97 35q-33 0 -56 -20t-46 -57l-26 20q48 92 134 92q17 0 35.5 -5t29.5 -10.5t28 -14.5t23 -12q4 -2 16 -8.5t16.5 -8.5t14.5 -7t16.5 -6.5t16 -3t19.5 -1.5q31 0 52.5 17.5
t44.5 57.5z" />
    <glyph glyph-name="notequal" unicode="&#x2260;" horiz-adv-x="570" 
d="M398 498l-48 -103h167v-37h-183l-72 -152h255v-36h-270l-56 -120l-30 15l49 105h-158v36h175l70 152h-245v37h261l55 118z" />
    <glyph glyph-name="lessequal" unicode="&#x2264;" horiz-adv-x="570" 
d="M514 93l-456 226v38l456 226v-45l-413 -198v-2l413 -199v-46zM516 13h-464v38h464v-38z" />
    <glyph glyph-name="greaterequal" unicode="&#x2265;" horiz-adv-x="570" 
d="M59 583l455 -226v-38l-455 -226v46l412 198v2l-412 199v45zM516 13h-463v38h463v-38z" />
    <glyph glyph-name="lozenge" unicode="&#x25ca;" horiz-adv-x="562" 
d="M505 346l-204 -390h-41l-203 390l204 391h41zM457 345l-157 299q-11 22 -19 48h-2q-11 -31 -20 -48l-155 -296l158 -301q12 -26 18 -47h3q5 22 18 47z" />
    <glyph glyph-name="A.sc" unicode="&#xe000;" horiz-adv-x="593" 
d="M209 266h170l-66 190q-11 32 -14 52h-2q-3 -16 -16 -52zM11 0v44h62l199 500h60l181 -500h69v-44h-203v44h78l-62 178h-203l-67 -178h78v-44h-192z" />
    <glyph glyph-name="AE.sc" unicode="&#xe001;" horiz-adv-x="815" 
d="M71 44l277 500h369l3 -126h-44l-3 82h-192l-3 -214h196v-44h-196v-198h216l8 88h44l-8 -132h-392v44h80v198h-195l-108 -198h78v-44h-197v44h67zM426 286l3 214h-57l-116 -214h170z" />
    <glyph glyph-name="Aacute.sc" unicode="&#xe002;" horiz-adv-x="593" 
d="M209 266h170l-66 190q-11 32 -14 52h-2q-3 -16 -16 -52zM11 0v44h62l199 500h60l181 -500h69v-44h-203v44h78l-62 178h-203l-67 -178h78v-44h-192zM251 576l-35 27l174 153l34 -31z" />
    <glyph glyph-name="Acircumflex.sc" unicode="&#xe003;" horiz-adv-x="593" 
d="M209 266h170l-66 190q-11 32 -14 52h-2q-3 -16 -16 -52zM11 0v44h62l199 500h60l181 -500h69v-44h-203v44h78l-62 178h-203l-67 -178h78v-44h-192zM410 578l-111 128l-117 -128l-33 30l126 138h48l122 -138z" />
    <glyph glyph-name="Adieresis.sc" unicode="&#xe004;" horiz-adv-x="593" 
d="M209 266h170l-66 190q-11 32 -14 52h-2q-3 -16 -16 -52zM11 0v44h62l199 500h60l181 -500h69v-44h-203v44h78l-62 178h-203l-67 -178h78v-44h-192zM359 658q0 20 12.5 34t31.5 14t31.5 -14t12.5 -34t-12.5 -34t-31.5 -14t-31.5 14t-12.5 34zM147 658q0 20 12.5 34
t31.5 14t31.5 -14t12.5 -34t-12.5 -34t-31.5 -14t-31.5 14t-12.5 34z" />
    <glyph glyph-name="Agrave.sc" unicode="&#xe005;" horiz-adv-x="593" 
d="M209 266h170l-66 190q-11 32 -14 52h-2q-3 -16 -16 -52zM11 0v44h62l199 500h60l181 -500h69v-44h-203v44h78l-62 178h-203l-67 -178h78v-44h-192zM343 576l-173 149l34 31l174 -153z" />
    <glyph glyph-name="Aring.sc" unicode="&#xe006;" horiz-adv-x="593" 
d="M209 266h170l-66 190q-11 32 -14 52h-2q-3 -16 -16 -52zM11 0v44h62l199 500h60l181 -500h69v-44h-203v44h78l-62 178h-203l-67 -178h78v-44h-192zM206 661q0 37 27 64t64 27t64 -27t27 -64t-27 -64t-64 -27t-64 27t-27 64zM246 661q0 -23 14 -39t37 -16t37 16t14 39
t-14 39t-37 16t-37 -16t-14 -39z" />
    <glyph glyph-name="Atilde.sc" unicode="&#xe007;" horiz-adv-x="593" 
d="M209 266h170l-66 190q-11 32 -14 52h-2q-3 -16 -16 -52zM11 0v44h62l199 500h60l181 -500h69v-44h-203v44h78l-62 178h-203l-67 -178h78v-44h-192zM428 707l35 -26l-9 -15q-38 -52 -92 -52q-29 0 -70.5 26t-60.5 26q-28 0 -54 -38l-7 -10l-39 26l8 13q38 57 91 57
q33 0 77 -25q3 -2 12 -7.5t12.5 -7.5t10.5 -5.5t12.5 -5t11.5 -1.5q25 0 54 34z" />
    <glyph glyph-name="B.sc" unicode="&#xe008;" horiz-adv-x="500" 
d="M50 0v44h80l3 456h-83v44h216q77 0 118 -35t41 -96q0 -43 -24.5 -77.5t-75.5 -47.5v-2q66 -4 102 -39t36 -95q0 -71 -46.5 -111.5t-146.5 -40.5h-220zM185 500l-2 -198h59q54 0 92.5 27.5t38.5 79.5q0 91 -100 91h-88zM183 258l-1 -214h89q73 0 106.5 29.5t33.5 76.5
q0 48 -36.5 78t-112.5 30h-79z" />
    <glyph glyph-name="C.sc" unicode="&#xe009;" 
d="M498 149l-3 -139q-69 -19 -152 -19q-131 0 -213.5 76.5t-82.5 204.5t82.5 204.5t213.5 76.5q99 0 155 -30v-122h-44v91q-55 17 -111 17q-118 0 -179 -64.5t-61 -172.5t61 -172.5t179 -64.5q56 -3 108 10l3 104h44z" />
    <glyph glyph-name="Ccedilla.sc" unicode="&#xe00a;" 
d="M498 149l-3 -139q-67 -18 -144 -19v-55h13q29 0 51 -19t22 -49q0 -37 -25 -59t-71 -22q-55 0 -100 18l7 36q43 -18 79 -18q58 0 58 40q0 37 -54 37h-20v91q-118 11 -191 86t-73 195q0 128 82.5 204.5t213.5 76.5q99 0 155 -30v-122h-44v91q-55 17 -111 17
q-118 0 -179 -64.5t-61 -172.5t61 -172.5t179 -64.5q56 -3 108 10l3 104h44z" />
    <glyph glyph-name="D.sc" unicode="&#xe00b;" horiz-adv-x="630" 
d="M50 0v44h80l3 456h-83v44h255q142 0 210 -73t68 -192q0 -120 -72.5 -199.5t-219.5 -79.5h-241zM185 500l-3 -456h112q109 0 173 60.5t64 173.5q0 102 -56 162t-161 60h-129z" />
    <glyph glyph-name="E.sc" unicode="&#xe00c;" horiz-adv-x="519" 
d="M50 0v44h80l3 456h-83v44h385v-127h-44v83h-206l-2 -204h194v-44h-194l-1 -208h216l8 88h44l-8 -132h-392z" />
    <glyph glyph-name="Eacute.sc" unicode="&#xe00d;" horiz-adv-x="519" 
d="M50 0v44h80l3 456h-83v44h385v-127h-44v83h-206l-2 -204h194v-44h-194l-1 -208h216l8 88h44l-8 -132h-392zM234 576l-35 27l174 153l34 -31z" />
    <glyph glyph-name="Ecircumflex.sc" unicode="&#xe00e;" horiz-adv-x="519" 
d="M50 0v44h80l3 456h-83v44h385v-127h-44v83h-206l-2 -204h194v-44h-194l-1 -208h216l8 88h44l-8 -132h-392zM373 578l-111 128l-117 -128l-33 30l126 138h48l122 -138z" />
    <glyph glyph-name="Edieresis.sc" unicode="&#xe00f;" horiz-adv-x="519" 
d="M50 0v44h80l3 456h-83v44h385v-127h-44v83h-206l-2 -204h194v-44h-194l-1 -208h216l8 88h44l-8 -132h-392zM322 658q0 20 12.5 34t31.5 14t31.5 -14t12.5 -34t-12.5 -34t-31.5 -14t-31.5 14t-12.5 34zM110 658q0 20 12.5 34t31.5 14t31.5 -14t12.5 -34t-12.5 -34
t-31.5 -14t-31.5 14t-12.5 34z" />
    <glyph glyph-name="Egrave.sc" unicode="&#xe010;" horiz-adv-x="519" 
d="M50 0v44h80l3 456h-83v44h385v-127h-44v83h-206l-2 -204h194v-44h-194l-1 -208h216l8 88h44l-8 -132h-392zM318 576l-173 149l34 31l174 -153z" />
    <glyph glyph-name="Eth.sc" unicode="&#xe011;" horiz-adv-x="630" 
d="M50 258v44h81l2 198h-83v44h255q142 0 210 -73t68 -192q0 -120 -72.5 -199.5t-219.5 -79.5h-241v44h80l1 214h-81zM344 302v-44h-161l-1 -214h112q109 0 173 60.5t64 173.5q0 102 -56 162t-161 60h-129l-2 -198h161z" />
    <glyph glyph-name="F.sc" unicode="&#xe012;" horiz-adv-x="481" 
d="M50 0v44h80l3 456h-83v44h381v-131h-48v87h-198l-3 -214h210v-44h-210v-198h83v-44h-215z" />
    <glyph glyph-name="G.sc" unicode="&#xe013;" horiz-adv-x="611" 
d="M496 185v-175q-71 -19 -153 -19q-131 0 -213.5 76.5t-82.5 204.5t82.5 204.5t213.5 76.5q98 0 166 -29v-123h-44v91q-44 17 -122 17q-118 0 -179 -64.5t-61 -172.5t61 -172.5t179 -64.5q59 -3 105 10v140h-85v44h205v-44h-72z" />
    <glyph glyph-name="H.sc" unicode="&#xe014;" horiz-adv-x="667" 
d="M47 0v44h80l3 456h-83v44h215v-44h-80l-2 -204h306l2 204h-83v44h215v-44h-80l-3 -456h83v-44h-215v44h80l1 208h-306l-1 -208h83v-44h-215z" />
    <glyph glyph-name="I.sc" unicode="&#xe015;" horiz-adv-x="315" 
d="M50 0v44h80l3 456h-83v44h215v-44h-80l-3 -456h83v-44h-215z" />
    <glyph glyph-name="Iacute.sc" unicode="&#xe016;" horiz-adv-x="315" 
d="M50 0v44h80l3 456h-83v44h215v-44h-80l-3 -456h83v-44h-215zM112 576l-35 27l174 153l34 -31z" />
    <glyph glyph-name="Icircumflex.sc" unicode="&#xe017;" horiz-adv-x="315" 
d="M50 0v44h80l3 456h-83v44h215v-44h-80l-3 -456h83v-44h-215zM271 578l-111 128l-117 -128l-33 30l126 138h48l122 -138z" />
    <glyph glyph-name="Idieresis.sc" unicode="&#xe018;" horiz-adv-x="315" 
d="M50 0v44h80l3 456h-83v44h215v-44h-80l-3 -456h83v-44h-215zM215 658q0 20 12.5 34t31.5 14t31.5 -14t12.5 -34t-12.5 -34t-31.5 -14t-31.5 14t-12.5 34zM3 658q0 20 12.5 34t31.5 14t31.5 -14t12.5 -34t-12.5 -34t-31.5 -14t-31.5 14t-12.5 34z" />
    <glyph glyph-name="Igrave.sc" unicode="&#xe019;" horiz-adv-x="315" 
d="M50 0v44h80l3 456h-83v44h215v-44h-80l-3 -456h83v-44h-215zM204 576l-173 149l34 31l174 -153z" />
    <glyph glyph-name="J.sc" unicode="&#xe01a;" horiz-adv-x="296" 
d="M-21 -135l-15 37q33 14 58.5 30.5t43 33t29 40t18.5 43.5t10.5 52.5t4.5 58t2 68.5l3 272h-83v44h215v-44h-80l-3 -273q-1 -64 -4 -102.5t-14.5 -81.5t-33 -71.5t-59 -56t-92.5 -50.5z" />
    <glyph glyph-name="K.sc" unicode="&#xe01b;" horiz-adv-x="593" 
d="M50 0v44h80l3 456h-83v44h215v-44h-80l-2 -212l248 212h-80v44h197v-44h-53l-257 -224l265 -232h60v-44h-208v44h75l-247 220l-1 -220h83v-44h-215z" />
    <glyph glyph-name="L.sc" unicode="&#xe01c;" horiz-adv-x="481" 
d="M50 0v44h80l3 456h-83v44h215v-44h-80l-3 -456h216l3 87h44l-3 -131h-392z" />
    <glyph glyph-name="Lslash.sc" unicode="&#xe01d;" horiz-adv-x="481" 
d="M50 0v44h80l2 174l-82 -59v52l82 59l1 230h-83v44h215v-44h-80l-1 -193l127 91v-52l-127 -91l-2 -211h216l3 87h44l-3 -131h-392z" />
    <glyph glyph-name="M.sc" unicode="&#xe01e;" horiz-adv-x="778" 
d="M50 0v44h80l3 456h-83v44h150l174 -433q12 -30 17 -55h2q5 25 17 55l168 433h150v-44h-83l3 -456h80v-44h-211v44h83l-3 420h-2q-5 -17 -21 -58l-160 -406h-48l-162 406q-16 41 -21 58h-2l-3 -420h83v-44h-211z" />
    <glyph glyph-name="N.sc" unicode="&#xe01f;" horiz-adv-x="685" 
d="M47 0v44h80l3 456h-83v44h131l306 -413q20 -28 31 -51h2l3 420h-83v44h201v-44h-70l-3 -500h-48l-297 404q-28 38 -37 60h-2l-2 -420h83v-44h-215z" />
    <glyph glyph-name="Ntilde.sc" unicode="&#xe020;" horiz-adv-x="685" 
d="M47 0v44h80l3 456h-83v44h131l306 -413q20 -28 31 -51h2l3 420h-83v44h201v-44h-70l-3 -500h-48l-297 404q-28 38 -37 60h-2l-2 -420h83v-44h-215zM474 707l35 -26l-9 -15q-38 -52 -92 -52q-29 0 -70.5 26t-60.5 26q-28 0 -54 -38l-7 -10l-39 26l8 13q38 57 91 57
q33 0 77 -25q3 -2 12 -7.5t12.5 -7.5t10.5 -5.5t12.5 -5t11.5 -1.5q25 0 54 34z" />
    <glyph glyph-name="O.sc" unicode="&#xe021;" horiz-adv-x="611" 
d="M103 272q0 -106 55.5 -169.5t146.5 -63.5q92 0 147.5 63.5t55.5 169.5t-55.5 169.5t-147.5 63.5q-91 0 -146.5 -63.5t-55.5 -169.5zM47 272q0 121 67.5 201t190.5 80q124 0 191.5 -80t67.5 -201t-67.5 -201t-191.5 -80q-123 0 -190.5 80t-67.5 201z" />
    <glyph glyph-name="OE.sc" unicode="&#xe022;" horiz-adv-x="833" 
d="M757 132l-8 -132h-289q-20 0 -62 -4q-33 -5 -62 -5q-144 0 -216.5 79t-72.5 202q0 124 80 202.5t209 78.5q30 0 70 -4q33 -5 43 -5h293v-127h-44v83h-206l-2 -204h194v-44h-194l-1 -208h216l8 88h44zM437 44l3 454q-56 7 -93 7q-60 0 -106.5 -17.5t-71.5 -42.5t-41 -59
t-20.5 -60.5t-4.5 -53.5q0 -110 60 -171.5t174 -61.5q8 0 100 5z" />
    <glyph glyph-name="Oacute.sc" unicode="&#xe023;" horiz-adv-x="611" 
d="M103 272q0 -106 55.5 -169.5t146.5 -63.5q92 0 147.5 63.5t55.5 169.5t-55.5 169.5t-147.5 63.5q-91 0 -146.5 -63.5t-55.5 -169.5zM47 272q0 121 67.5 201t190.5 80q124 0 191.5 -80t67.5 -201t-67.5 -201t-191.5 -80q-123 0 -190.5 80t-67.5 201zM260 576l-35 27
l174 153l34 -31z" />
    <glyph glyph-name="Ocircumflex.sc" unicode="&#xe024;" horiz-adv-x="611" 
d="M103 272q0 -106 55.5 -169.5t146.5 -63.5q92 0 147.5 63.5t55.5 169.5t-55.5 169.5t-147.5 63.5q-91 0 -146.5 -63.5t-55.5 -169.5zM47 272q0 121 67.5 201t190.5 80q124 0 191.5 -80t67.5 -201t-67.5 -201t-191.5 -80q-123 0 -190.5 80t-67.5 201zM419 578l-111 128
l-117 -128l-33 30l126 138h48l122 -138z" />
    <glyph glyph-name="Odieresis.sc" unicode="&#xe025;" horiz-adv-x="611" 
d="M103 272q0 -106 55.5 -169.5t146.5 -63.5q92 0 147.5 63.5t55.5 169.5t-55.5 169.5t-147.5 63.5q-91 0 -146.5 -63.5t-55.5 -169.5zM47 272q0 121 67.5 201t190.5 80q124 0 191.5 -80t67.5 -201t-67.5 -201t-191.5 -80q-123 0 -190.5 80t-67.5 201zM368 658q0 20 12.5 34
t31.5 14t31.5 -14t12.5 -34t-12.5 -34t-31.5 -14t-31.5 14t-12.5 34zM156 658q0 20 12.5 34t31.5 14t31.5 -14t12.5 -34t-12.5 -34t-31.5 -14t-31.5 14t-12.5 34z" />
    <glyph glyph-name="Ograve.sc" unicode="&#xe026;" horiz-adv-x="611" 
d="M103 272q0 -106 55.5 -169.5t146.5 -63.5q92 0 147.5 63.5t55.5 169.5t-55.5 169.5t-147.5 63.5q-91 0 -146.5 -63.5t-55.5 -169.5zM47 272q0 121 67.5 201t190.5 80q124 0 191.5 -80t67.5 -201t-67.5 -201t-191.5 -80q-123 0 -190.5 80t-67.5 201zM352 576l-173 149
l34 31l174 -153z" />
    <glyph glyph-name="Oslash.sc" unicode="&#xe027;" horiz-adv-x="611" 
d="M170 90l234 391q-43 24 -98 24q-92 0 -147.5 -63.5t-55.5 -169.5q0 -117 67 -182zM80 -60l63 104q-96 78 -96 228q0 122 75.5 201.5t183.5 79.5q70 0 124 -28l62 103l39 -24l-63 -104q96 -78 96 -228q0 -122 -75.5 -201.5t-183.5 -79.5q-71 0 -124 29l-62 -104zM441 454
l-234 -390q42 -25 98 -25q92 0 147.5 63.5t55.5 169.5q0 117 -67 182z" />
    <glyph glyph-name="Otilde.sc" unicode="&#xe028;" horiz-adv-x="611" 
d="M103 272q0 -106 55.5 -169.5t146.5 -63.5q92 0 147.5 63.5t55.5 169.5t-55.5 169.5t-147.5 63.5q-91 0 -146.5 -63.5t-55.5 -169.5zM47 272q0 121 67.5 201t190.5 80q124 0 191.5 -80t67.5 -201t-67.5 -201t-191.5 -80q-123 0 -190.5 80t-67.5 201zM437 707l35 -26
l-9 -15q-38 -52 -92 -52q-29 0 -70.5 26t-60.5 26q-28 0 -54 -38l-7 -10l-39 26l8 13q38 57 91 57q33 0 77 -25q3 -2 12 -7.5t12.5 -7.5t10.5 -5.5t12.5 -5t11.5 -1.5q25 0 54 34z" />
    <glyph glyph-name="P.sc" unicode="&#xe029;" horiz-adv-x="481" 
d="M185 500l-2 -234h68q135 0 135 124q0 52 -28.5 81t-85.5 29h-87zM50 0v44h80l3 456h-83v44h215q177 0 177 -154q0 -74 -49.5 -121t-134.5 -47h-75l-1 -178h83v-44h-215z" />
    <glyph glyph-name="Q.sc" unicode="&#xe02a;" horiz-adv-x="611" 
d="M103 272q0 -106 55.5 -169.5t146.5 -63.5q92 0 147.5 63.5t55.5 169.5t-55.5 169.5t-146.5 63.5q-92 0 -147.5 -63.5t-55.5 -169.5zM667 -85v-44q-14 -6 -46 -6q-49 0 -101.5 18.5t-90.5 41.5t-84.5 43.5t-84.5 23.5q-81 6 -147.5 78t-65.5 202q0 122 75.5 201.5
t183.5 79.5q123 0 190.5 -80t67.5 -201q0 -98 -50 -175.5t-137 -97.5v-2q33 -5 72 -26.5t82.5 -39.5t96.5 -18q7 0 20 1t19 1z" />
    <glyph glyph-name="R.sc" unicode="&#xe02b;" horiz-adv-x="537" 
d="M185 500l-2 -214h64q69 0 101.5 33t32.5 84q0 97 -101 97h-95zM50 0v44h80l3 456h-83v44h231q72 0 112 -38t40 -100t-36.5 -99.5t-89.5 -43.5v-2q20 -9 33 -21t29 -40l62 -107q19 -33 30.5 -41t39.5 -8q13 0 21 3v-44q-16 -3 -34 -3q-32 0 -52 10.5t-39 43.5l-76 126
q-23 38 -40 50t-45 12h-53l-1 -198h83v-44h-215z" />
    <glyph glyph-name="S.sc" unicode="&#xe02c;" horiz-adv-x="500" 
d="M72 25v119h45l-2 -83q47 -26 127 -26q75 0 106 33t31 76q0 26 -10 45.5t-29.5 30.5t-33 16t-36.5 11l-71 18q-27 7 -45.5 15t-40 23t-33 40.5t-11.5 59.5q0 60 45 105t130 45q95 0 158 -30v-113h-43l-2 80q-36 19 -103 19q-133 0 -133 -96q0 -46 28 -68t79 -36l63 -17
q38 -11 58 -18.5t42 -23.5t31 -41t9 -62q0 -66 -48.5 -111t-145.5 -45t-165 34z" />
    <glyph glyph-name="Scaron.sc" unicode="&#xe02d;" horiz-adv-x="500" 
d="M72 25v119h45l-2 -83q47 -26 127 -26q75 0 106 33t31 76q0 26 -10 45.5t-29.5 30.5t-33 16t-36.5 11l-71 18q-27 7 -45.5 15t-40 23t-33 40.5t-11.5 59.5q0 60 45 105t130 45q95 0 158 -30v-113h-43l-2 80q-36 19 -103 19q-133 0 -133 -96q0 -46 28 -68t79 -36l63 -17
q38 -11 58 -18.5t42 -23.5t31 -41t9 -62q0 -66 -48.5 -111t-145.5 -45t-165 34zM224 578l-122 138l35 30l111 -128l117 128l33 -30l-126 -138h-48z" />
    <glyph glyph-name="T.sc" unicode="&#xe02e;" 
d="M38 412l5 132h470l5 -132h-44l-5 88h-165l-3 -456h83v-44h-215v44h80l3 456h-165l-5 -88h-44z" />
    <glyph glyph-name="Thorn.sc" unicode="&#xe02f;" horiz-adv-x="481" 
d="M50 0v44h80l3 456h-83v44h215v-44h-80l-1 -48h81q177 0 177 -154q0 -74 -49.5 -121t-134.5 -47h-75l-1 -86h83v-44h-215zM184 408l-1 -234h68q135 0 135 124q0 52 -28.5 81t-85.5 29h-88z" />
    <glyph glyph-name="U.sc" unicode="&#xe030;" horiz-adv-x="648" 
d="M606 544v-44h-71l-3 -284q-2 -119 -48 -172t-154 -53q-107 0 -157.5 43.5t-50.5 141.5q0 52 0.5 105.5t1.5 116.5t1 102h-83v44h206v-44h-71q0 -15 -1.5 -128.5t-1.5 -176.5q0 -89 37 -124.5t119 -35.5q86 0 119.5 44t34.5 131l3 290h-83v44h202z" />
    <glyph glyph-name="Uacute.sc" unicode="&#xe031;" horiz-adv-x="648" 
d="M606 544v-44h-71l-3 -284q-2 -119 -48 -172t-154 -53q-107 0 -157.5 43.5t-50.5 141.5q0 52 0.5 105.5t1.5 116.5t1 102h-83v44h206v-44h-71q0 -15 -1.5 -128.5t-1.5 -176.5q0 -89 37 -124.5t119 -35.5q86 0 119.5 44t34.5 131l3 290h-83v44h202zM278 576l-35 27l174 153
l34 -31z" />
    <glyph glyph-name="Ucircumflex.sc" unicode="&#xe032;" horiz-adv-x="648" 
d="M606 544v-44h-71l-3 -284q-2 -119 -48 -172t-154 -53q-107 0 -157.5 43.5t-50.5 141.5q0 52 0.5 105.5t1.5 116.5t1 102h-83v44h206v-44h-71q0 -15 -1.5 -128.5t-1.5 -176.5q0 -89 37 -124.5t119 -35.5q86 0 119.5 44t34.5 131l3 290h-83v44h202zM437 578l-111 128
l-117 -128l-33 30l126 138h48l122 -138z" />
    <glyph glyph-name="Udieresis.sc" unicode="&#xe033;" horiz-adv-x="648" 
d="M606 544v-44h-71l-3 -284q-2 -119 -48 -172t-154 -53q-107 0 -157.5 43.5t-50.5 141.5q0 52 0.5 105.5t1.5 116.5t1 102h-83v44h206v-44h-71q0 -15 -1.5 -128.5t-1.5 -176.5q0 -89 37 -124.5t119 -35.5q86 0 119.5 44t34.5 131l3 290h-83v44h202zM386 658q0 20 12.5 34
t31.5 14t31.5 -14t12.5 -34t-12.5 -34t-31.5 -14t-31.5 14t-12.5 34zM174 658q0 20 12.5 34t31.5 14t31.5 -14t12.5 -34t-12.5 -34t-31.5 -14t-31.5 14t-12.5 34z" />
    <glyph glyph-name="Ugrave.sc" unicode="&#xe034;" horiz-adv-x="648" 
d="M606 544v-44h-71l-3 -284q-2 -119 -48 -172t-154 -53q-107 0 -157.5 43.5t-50.5 141.5q0 52 0.5 105.5t1.5 116.5t1 102h-83v44h206v-44h-71q0 -15 -1.5 -128.5t-1.5 -176.5q0 -89 37 -124.5t119 -35.5q86 0 119.5 44t34.5 131l3 290h-83v44h202zM370 576l-173 149l34 31
l174 -153z" />
    <glyph glyph-name="V.sc" unicode="&#xe035;" horiz-adv-x="593" 
d="M9 500v44h203v-44h-75l146 -394q9 -25 18 -58h2q4 22 16 55l148 397h-86v44h203v-44h-61l-197 -500h-56l-193 500h-68z" />
    <glyph glyph-name="W.sc" unicode="&#xe036;" horiz-adv-x="870" 
d="M19 500v44h203v-44h-79l130 -392q12 -34 17 -60h2q5 26 19 59l111 289l-34 104h-63v44h203v-44h-84l126 -397q10 -36 14 -55h2q7 33 15 55l136 397h-89v44h203v-44h-62l-176 -500h-60l-108 332h-2l-126 -332h-56l-174 500h-68z" />
    <glyph glyph-name="X.sc" unicode="&#xe037;" horiz-adv-x="593" 
d="M29 0v44h67l172 232l-160 224h-71v44h203v-44h-80q21 -23 47 -57l91 -126l101 134q7 10 41 49h-89v44h203v-44h-62l-164 -224l165 -232h71v-44h-203v44h76q-3 3 -18 19.5t-21 24.5l-104 147l-101 -141q-16 -21 -45 -50h84v-44h-203z" />
    <glyph glyph-name="Y.sc" unicode="&#xe038;" horiz-adv-x="611" 
d="M198 0v44h80l1 197l-186 259h-68v44h203v-44h-79q34 -40 43 -53l113 -159l123 165q23 29 40 47h-79v44h197v-44h-68l-187 -255l-1 -201h83v-44h-215z" />
    <glyph glyph-name="Yacute.sc" unicode="&#xe039;" horiz-adv-x="611" 
d="M198 0v44h80l1 197l-186 259h-68v44h203v-44h-79q34 -40 43 -53l113 -159l123 165q23 29 40 47h-79v44h197v-44h-68l-187 -255l-1 -201h83v-44h-215zM260 576l-35 27l174 153l34 -31z" />
    <glyph glyph-name="Ydieresis.sc" unicode="&#xe03a;" horiz-adv-x="611" 
d="M198 0v44h80l1 197l-186 259h-68v44h203v-44h-79q34 -40 43 -53l113 -159l123 165q23 29 40 47h-79v44h197v-44h-68l-187 -255l-1 -201h83v-44h-215zM368 658q0 20 12.5 34t31.5 14t31.5 -14t12.5 -34t-12.5 -34t-31.5 -14t-31.5 14t-12.5 34zM156 658q0 20 12.5 34
t31.5 14t31.5 -14t12.5 -34t-12.5 -34t-31.5 -14t-31.5 14t-12.5 34z" />
    <glyph glyph-name="Z.sc" unicode="&#xe03b;" horiz-adv-x="519" 
d="M50 0v44l317 410q22 30 40 46h-294l-6 -83h-45l8 127h393v-44l-313 -408q-10 -14 -44 -48h311l8 87h44l-8 -131h-411z" />
    <glyph glyph-name="Zcaron.sc" unicode="&#xe03c;" horiz-adv-x="519" 
d="M50 0v44l317 410q22 30 40 46h-294l-6 -83h-45l8 127h393v-44l-313 -408q-10 -14 -44 -48h311l8 87h44l-8 -131h-411zM234 578l-122 138l35 30l111 -128l117 128l33 -30l-126 -138h-48z" />
    <glyph glyph-name="f_i.sc" unicode="&#xe03d;" horiz-adv-x="796" 
d="M50 0v44h80l3 456h-83v44h381v-131h-48v87h-198l-3 -214h210v-44h-210v-198h83v-44h-215zM531 0v44h80l3 456h-83v44h215v-44h-80l-3 -456h83v-44h-215z" />
    <glyph glyph-name="f_l.sc" unicode="&#xe03e;" horiz-adv-x="962" 
d="M50 0v44h80l3 456h-83v44h381v-131h-48v87h-198l-3 -214h210v-44h-210v-198h83v-44h-215zM531 0v44h80l3 456h-83v44h215v-44h-80l-3 -456h216l3 87h44l-3 -131h-392z" />
    <glyph glyph-name="germandbls.sc" unicode="&#xe03f;" horiz-adv-x="1000" 
d="M572 25v119h45l-2 -83q47 -26 127 -26q75 0 106 33t31 76q0 26 -10 45.5t-29.5 30.5t-33 16t-36.5 11l-71 18q-27 7 -45.5 15t-40 23t-33 40.5t-11.5 59.5q0 60 45 105t130 45q95 0 158 -30v-113h-43l-2 80q-36 19 -103 19q-133 0 -133 -96q0 -46 28 -68t79 -36l63 -17
q38 -11 58 -18.5t42 -23.5t31 -41t9 -62q0 -66 -48.5 -111t-145.5 -45t-165 34zM72 25v119h45l-2 -83q47 -26 127 -26q75 0 106 33t31 76q0 26 -10 45.5t-29.5 30.5t-33 16t-36.5 11l-71 18q-27 7 -45.5 15t-40 23t-33 40.5t-11.5 59.5q0 60 45 105t130 45q95 0 158 -30
v-113h-43l-2 80q-36 19 -103 19q-133 0 -133 -96q0 -46 28 -68t79 -36l63 -17q38 -11 58 -18.5t42 -23.5t31 -41t9 -62q0 -66 -48.5 -111t-145.5 -45t-165 34z" />
    <glyph glyph-name="zero.taboldstyle" unicode="&#xf643;" 
d="M278 480q-67 0 -111.5 -35t-61 -83t-16.5 -106t16.5 -106t61 -83t111.5 -35t111.5 35t61 83t16.5 106t-16.5 106t-61 83t-111.5 35zM278 524q115 0 178 -71.5t63 -193.5q0 -119 -66.5 -195t-174.5 -76q-115 0 -178 71.5t-63 193.5q0 119 66.5 195t174.5 76z" />
    <glyph glyph-name="one.taboldstyle" unicode="&#xf644;" 
d="M147 0v44h103l3 424h-106v44h261v-44h-103l-3 -424h106v-44h-261z" />
    <glyph glyph-name="two.taboldstyle" unicode="&#xf645;" 
d="M73 0v41q131 88 200.5 147.5t93 99t23.5 82.5q0 46 -32 76t-90 30q-54 0 -90 -31t-44 -92h-52q7 78 57.5 124.5t135.5 46.5q83 0 127 -44.5t44 -110.5q0 -84 -73.5 -158t-225.5 -165v-2h336v-44h-410z" />
    <glyph glyph-name="three.taboldstyle" unicode="&#xf646;" 
d="M165 143v48h30q93 0 153.5 45t60.5 121q0 53 -33 86t-95 33q-126 0 -145 -120h-52q26 168 201 168q92 0 136 -47.5t44 -115.5q0 -72 -48 -125t-121 -61v-2q94 -11 139.5 -60.5t45.5 -117.5q0 -85 -63.5 -140t-163.5 -55q-104 0 -179 33l4 53q72 -38 163 -38t137 39.5
t46 105.5q0 150 -248 150h-12z" />
    <glyph glyph-name="four.taboldstyle" unicode="&#xf647;" 
d="M331 103l8 337l-2 2q-13 -30 -39 -64l-172 -226q-11 -15 -47 -51q30 2 60 2h192zM24 59v35l319 418h48l-8 -409h161v-44h-161v-244h-52v244h-307z" />
    <glyph glyph-name="five.taboldstyle" unicode="&#xf648;" 
d="M112 203l12 309h343v-48h-293l-8 -217q317 -14 317 -218q0 -92 -65.5 -160.5t-189.5 -68.5q-66 0 -138 20l3 48q55 -20 126 -20q58 0 101 15.5t66 42t34 56.5t11 63q0 91 -79 133t-240 45z" />
    <glyph glyph-name="six.taboldstyle" unicode="&#xf649;" 
d="M492 702l-5 -50q-35 6 -78 6q-125 0 -204 -89.5t-89 -254.5l2 -2q29 48 79 76t105 28q89 0 139.5 -60t50.5 -144q0 -95 -56 -159.5t-150 -64.5q-100 0 -161 73t-61 228q0 186 96 301.5t257 115.5q14 0 42 -2t33 -2zM440 205q0 80 -40.5 121.5t-111.5 41.5
q-110 0 -168 -117q2 -42 10.5 -77.5t26.5 -68t51 -51t78 -18.5q74 0 114 51.5t40 117.5z" />
    <glyph glyph-name="seven.taboldstyle" unicode="&#xf64a;" 
d="M66 464v48h412v-37q-32 -62 -81 -173.5t-85 -190.5t-96 -169.5t-127 -147.5l-28 32q61 55 119.5 149.5t96.5 179.5t80.5 177t68.5 132h-360z" />
    <glyph glyph-name="eight.taboldstyle" unicode="&#xf64b;" 
d="M278 662q-67 0 -105 -33t-38 -88q0 -42 29 -76t114 -76q85 42 114 76t29 76q0 55 -38 88t-105 33zM278 36q77 0 121.5 35.5t44.5 89.5q0 51 -35 90.5t-131 85.5q-96 -46 -131 -85.5t-35 -90.5q0 -54 44.5 -89.5t121.5 -35.5zM83 532q0 69 48 121.5t147 52.5
q103 0 149 -45t46 -110q0 -55 -33 -99t-115 -87q99 -47 135 -90t36 -106q0 -71 -55 -126t-163 -55q-60 0 -104.5 16.5t-68 43t-34.5 55t-11 57.5q0 57 39 104t129 95q-145 70 -145 173z" />
    <glyph glyph-name="nine.taboldstyle" unicode="&#xf64c;" 
d="M116 307q0 -80 40.5 -121.5t111.5 -41.5q110 0 168 117q-2 42 -10.5 77.5t-26.5 68t-51 51t-78 18.5q-74 0 -114 -51.5t-40 -117.5zM78 -190l3 51q23 -5 55 -5q72 0 129 27t92.5 75t56 108t26.5 132l-2 2q-29 -48 -79 -76t-105 -28q-89 0 -139.5 60t-50.5 144
q0 95 56 159.5t150 64.5q100 0 161 -73t61 -228q0 -183 -95 -299t-262 -116q-27 0 -57 2z" />
    <glyph glyph-name="dollar.taboldstyle" unicode="&#xf653;" 
d="M45 156h48l-2 -98q69 -20 161 -20l2 292l-38 9q-174 41 -174 178q0 52 22.5 92t57 60.5t69 30.5t65.5 10l2 127h44l-2 -127q92 0 176 -28l-2 -128h-48l2 88q-11 6 -52 13t-76 7l-2 -284l48 -12q168 -42 168 -177q0 -92 -63 -143.5t-155 -55.5l-2 -134h-44l2 134
q-52 0 -117 9t-92 17zM254 386l2 276q-33 0 -66.5 -11.5t-62.5 -44.5t-29 -82q0 -54 31 -83t88 -45zM298 322l-2 -284q66 2 114 40t48 106q0 100 -117 128z" />
    <glyph glyph-name="cent.taboldstyle" unicode="&#xf654;" 
d="M290 39l2 436q-80 -9 -121 -67.5t-41 -150.5q0 -91 40.5 -149.5t119.5 -68.5zM289 -134l1 125q-105 10 -160.5 84t-55.5 182t56 182.5t162 83.5l1 111h44l-1 -109q79 -1 146 -26v-125h-48v88q-43 15 -98 15l-2 -440q86 0 146 29v-51q-59 -26 -146 -26l-1 -123h-44z" />
    <glyph glyph-name="breve.sc" unicode="&#xf6f4;" horiz-adv-x="278" 
d="M-9 764l46 16l6 -20q26 -86 96 -86q72 0 96 86l6 20l46 -16l-6 -23q-33 -111 -142 -111q-110 0 -141 111z" />
    <glyph glyph-name="caron.sc" unicode="&#xf6f5;" horiz-adv-x="278" 
d="M113 608l-122 138l35 30l111 -128l117 128l33 -30l-126 -138h-48z" />
    <glyph glyph-name="circumflex.sc" unicode="&#xf6f6;" horiz-adv-x="278" 
d="M252 608l-111 128l-117 -128l-33 30l126 138h48l122 -138z" />
    <glyph glyph-name="dotaccent.sc" unicode="&#xf6f7;" horiz-adv-x="278" 
d="M95 688q0 20 12.5 34t31.5 14t31.5 -14t12.5 -34t-12.5 -34t-31.5 -14t-31.5 14t-12.5 34z" />
    <glyph glyph-name="hungarumlaut.sc" unicode="&#xf6f8;" horiz-adv-x="278" 
d="M-7 606l-35 27l174 153l34 -31zM193 606l-35 27l174 153l34 -31z" />
    <glyph glyph-name="lslash.sc" unicode="&#xf6f9;" horiz-adv-x="481" 
d="M50 0v44h80l2 174l-82 -59v52l82 59l1 230h-83v44h215v-44h-80l-1 -193l127 91v-52l-127 -91l-2 -211h216l3 87h44l-3 -131h-392z" />
    <glyph glyph-name="oe.sc" unicode="&#xf6fa;" horiz-adv-x="833" 
d="M757 132l-8 -132h-289q-20 0 -62 -4q-33 -5 -62 -5q-144 0 -216.5 79t-72.5 202q0 124 80 202.5t209 78.5q30 0 70 -4q33 -5 43 -5h293v-127h-44v83h-206l-2 -204h194v-44h-194l-1 -208h216l8 88h44zM437 44l3 454q-56 7 -93 7q-60 0 -106.5 -17.5t-71.5 -42.5t-41 -59
t-20.5 -60.5t-4.5 -53.5q0 -110 60 -171.5t174 -61.5q8 0 100 5z" />
    <glyph glyph-name="ogonek.sc" unicode="&#xf6fb;" horiz-adv-x="278" 
d="M187 0h40q-74 -57 -74 -124q0 -27 15.5 -40t38.5 -13q22 0 44 5l10 -34q-31 -7 -64 -7q-46 0 -71 22t-25 59q0 36 27 73t59 59z" />
    <glyph glyph-name="ring.sc" unicode="&#xf6fc;" horiz-adv-x="278" 
d="M48 696q0 38 27 64.5t64 26.5t64 -26.5t27 -64.5t-27 -64.5t-64 -26.5t-64 26.5t-27 64.5zM88 696q0 -23 14 -39t37 -16t37 16t14 39t-14 39t-37 16t-37 -16t-14 -39z" />
    <glyph glyph-name="scaron.sc" unicode="&#xf6fd;" horiz-adv-x="500" 
d="M72 25v119h45l-2 -83q47 -26 127 -26q75 0 106 33t31 76q0 26 -10 45.5t-29.5 30.5t-33 16t-36.5 11l-71 18q-27 7 -45.5 15t-40 23t-33 40.5t-11.5 59.5q0 60 45 105t130 45q95 0 158 -30v-113h-43l-2 80q-36 19 -103 19q-133 0 -133 -96q0 -46 28 -68t79 -36l63 -17
q38 -11 58 -18.5t42 -23.5t31 -41t9 -62q0 -66 -48.5 -111t-145.5 -45t-165 34zM224 578l-122 138l35 30l111 -128l117 128l33 -30l-126 -138h-48z" />
    <glyph glyph-name="tilde.sc" unicode="&#xf6fe;" horiz-adv-x="278" 
d="M270 737l35 -26l-9 -15q-38 -52 -92 -52q-29 0 -70.5 26t-60.5 26q-28 0 -54 -38l-7 -10l-39 26l8 13q38 57 91 57q33 0 77 -25q3 -2 12 -7.5t12.5 -7.5t10.5 -5.5t12.5 -5t11.5 -1.5q25 0 54 34z" />
    <glyph glyph-name="zcaron.sc" unicode="&#xf6ff;" horiz-adv-x="519" 
d="M50 0v44l317 410q22 30 40 46h-294l-6 -83h-45l8 127h393v-44l-313 -408q-10 -14 -44 -48h311l8 87h44l-8 -131h-411zM234 578l-122 138l35 30l111 -128l117 128l33 -30l-126 -138h-48z" />
    <glyph glyph-name="exclam.sc" unicode="&#xf721;" horiz-adv-x="316" 
d="M188 769l-8 -529h-44l-8 529h60zM112 36q0 20 13.5 34t32.5 14t32.5 -14t13.5 -34t-13.5 -34t-32.5 -14t-32.5 14t-13.5 34z" />
    <glyph glyph-name="ampersand.sc" unicode="&#xf726;" horiz-adv-x="630" 
d="M572 320v-44h-63q0 -99 -54 -175l15 -15q26 -26 41.5 -34t36.5 -8q6 0 24 2v-44q-22 -2 -36 -2q-41 0 -73 28l-38 34q-72 -71 -179 -71q-88 0 -138 45t-50 105q0 47 26.5 85.5t88.5 78.5q-39 40 -54 67.5t-15 58.5q0 58 37 90t97 32q54 0 84.5 -28t30.5 -71
q0 -40 -21 -71.5t-88 -77.5l178 -174q39 57 39 145h-73v44h184zM152 438q0 -24 13 -46.5t49 -57.5q54 35 72.5 61.5t18.5 54.5q0 23 -19.5 41t-55.5 18q-35 0 -56.5 -20.5t-21.5 -50.5zM393 94l-190 182q-55 -37 -74 -65t-19 -62q0 -53 41 -83.5t103 -30.5q78 0 139 59z" />
    <glyph glyph-name="question.sc" unicode="&#xf73f;" horiz-adv-x="500" 
d="M229 259l-38 -34q-49 39 -49 90q0 30 13 50t45 46l96 76q64 52 64 117q0 47 -34 86t-103 39q-55 0 -100 -19l-7 49q46 18 109 18q87 0 139 -47.5t52 -116.5q0 -89 -74 -149l-90 -73q-20 -16 -28.5 -23.5t-17 -21.5t-8.5 -29q0 -9 2 -17t6.5 -14.5t7.5 -10.5t8.5 -9.5z
M150 36q0 20 13 34t33 14t33 -14t13 -34t-13 -34t-33 -14t-33 14t-13 34z" />
    <glyph glyph-name="grave.sc" unicode="&#xf760;" horiz-adv-x="278" 
d="M185 606l-173 149l34 31l174 -153z" />
    <glyph glyph-name="a.sc" unicode="&#xf761;" horiz-adv-x="593" 
d="M209 266h170l-66 190q-11 32 -14 52h-2q-3 -16 -16 -52zM11 0v44h62l199 500h60l181 -500h69v-44h-203v44h78l-62 178h-203l-67 -178h78v-44h-192z" />
    <glyph glyph-name="b.sc" unicode="&#xf762;" horiz-adv-x="500" 
d="M50 0v44h80l3 456h-83v44h216q77 0 118 -35t41 -96q0 -43 -24.5 -77.5t-75.5 -47.5v-2q66 -4 102 -39t36 -95q0 -71 -46.5 -111.5t-146.5 -40.5h-220zM185 500l-2 -198h59q54 0 92.5 27.5t38.5 79.5q0 91 -100 91h-88zM183 258l-1 -214h89q73 0 106.5 29.5t33.5 76.5
q0 48 -36.5 78t-112.5 30h-79z" />
    <glyph glyph-name="c.sc" unicode="&#xf763;" 
d="M498 149l-3 -139q-69 -19 -152 -19q-131 0 -213.5 76.5t-82.5 204.5t82.5 204.5t213.5 76.5q99 0 155 -30v-122h-44v91q-55 17 -111 17q-118 0 -179 -64.5t-61 -172.5t61 -172.5t179 -64.5q56 -3 108 10l3 104h44z" />
    <glyph glyph-name="d.sc" unicode="&#xf764;" horiz-adv-x="630" 
d="M50 0v44h80l3 456h-83v44h255q142 0 210 -73t68 -192q0 -120 -72.5 -199.5t-219.5 -79.5h-241zM185 500l-3 -456h112q109 0 173 60.5t64 173.5q0 102 -56 162t-161 60h-129z" />
    <glyph glyph-name="e.sc" unicode="&#xf765;" horiz-adv-x="519" 
d="M50 0v44h80l3 456h-83v44h385v-127h-44v83h-206l-2 -204h194v-44h-194l-1 -208h216l8 88h44l-8 -132h-392z" />
    <glyph glyph-name="f.sc" unicode="&#xf766;" horiz-adv-x="481" 
d="M50 0v44h80l3 456h-83v44h381v-131h-48v87h-198l-3 -214h210v-44h-210v-198h83v-44h-215z" />
    <glyph glyph-name="g.sc" unicode="&#xf767;" horiz-adv-x="611" 
d="M496 185v-175q-71 -19 -153 -19q-131 0 -213.5 76.5t-82.5 204.5t82.5 204.5t213.5 76.5q98 0 166 -29v-123h-44v91q-44 17 -122 17q-118 0 -179 -64.5t-61 -172.5t61 -172.5t179 -64.5q59 -3 105 10v140h-85v44h205v-44h-72z" />
    <glyph glyph-name="h.sc" unicode="&#xf768;" horiz-adv-x="667" 
d="M47 0v44h80l3 456h-83v44h215v-44h-80l-2 -204h306l2 204h-83v44h215v-44h-80l-3 -456h83v-44h-215v44h80l1 208h-306l-1 -208h83v-44h-215z" />
    <glyph glyph-name="i.sc" unicode="&#xf769;" horiz-adv-x="315" 
d="M50 0v44h80l3 456h-83v44h215v-44h-80l-3 -456h83v-44h-215z" />
    <glyph glyph-name="j.sc" unicode="&#xf76a;" horiz-adv-x="296" 
d="M-21 -135l-15 37q33 14 58.5 30.5t43 33t29 40t18.5 43.5t10.5 52.5t4.5 58t2 68.5l3 272h-83v44h215v-44h-80l-3 -273q-1 -64 -4 -102.5t-14.5 -81.5t-33 -71.5t-59 -56t-92.5 -50.5z" />
    <glyph glyph-name="k.sc" unicode="&#xf76b;" horiz-adv-x="593" 
d="M50 0v44h80l3 456h-83v44h215v-44h-80l-2 -212l248 212h-80v44h197v-44h-53l-257 -224l265 -232h60v-44h-208v44h75l-247 220l-1 -220h83v-44h-215z" />
    <glyph glyph-name="l.sc" unicode="&#xf76c;" horiz-adv-x="481" 
d="M50 0v44h80l3 456h-83v44h215v-44h-80l-3 -456h216l3 87h44l-3 -131h-392z" />
    <glyph glyph-name="m.sc" unicode="&#xf76d;" horiz-adv-x="778" 
d="M50 0v44h80l3 456h-83v44h150l174 -433q12 -30 17 -55h2q5 25 17 55l168 433h150v-44h-83l3 -456h80v-44h-211v44h83l-3 420h-2q-5 -17 -21 -58l-160 -406h-48l-162 406q-16 41 -21 58h-2l-3 -420h83v-44h-211z" />
    <glyph glyph-name="n.sc" unicode="&#xf76e;" horiz-adv-x="685" 
d="M47 0v44h80l3 456h-83v44h131l306 -413q20 -28 31 -51h2l3 420h-83v44h201v-44h-70l-3 -500h-48l-297 404q-28 38 -37 60h-2l-2 -420h83v-44h-215z" />
    <glyph glyph-name="o.sc" unicode="&#xf76f;" horiz-adv-x="611" 
d="M103 272q0 -106 55.5 -169.5t146.5 -63.5q92 0 147.5 63.5t55.5 169.5t-55.5 169.5t-147.5 63.5q-91 0 -146.5 -63.5t-55.5 -169.5zM47 272q0 121 67.5 201t190.5 80q124 0 191.5 -80t67.5 -201t-67.5 -201t-191.5 -80q-123 0 -190.5 80t-67.5 201z" />
    <glyph glyph-name="p.sc" unicode="&#xf770;" horiz-adv-x="481" 
d="M185 500l-2 -234h68q135 0 135 124q0 52 -28.5 81t-85.5 29h-87zM50 0v44h80l3 456h-83v44h215q177 0 177 -154q0 -74 -49.5 -121t-134.5 -47h-75l-1 -178h83v-44h-215z" />
    <glyph glyph-name="q.sc" unicode="&#xf771;" horiz-adv-x="611" 
d="M103 272q0 -106 55.5 -169.5t146.5 -63.5q92 0 147.5 63.5t55.5 169.5t-55.5 169.5t-146.5 63.5q-92 0 -147.5 -63.5t-55.5 -169.5zM667 -85v-44q-14 -6 -46 -6q-49 0 -101.5 18.5t-90.5 41.5t-84.5 43.5t-84.5 23.5q-81 6 -147.5 78t-65.5 202q0 122 75.5 201.5
t183.5 79.5q123 0 190.5 -80t67.5 -201q0 -98 -50 -175.5t-137 -97.5v-2q33 -5 72 -26.5t82.5 -39.5t96.5 -18q7 0 20 1t19 1z" />
    <glyph glyph-name="r.sc" unicode="&#xf772;" horiz-adv-x="537" 
d="M185 500l-2 -214h64q69 0 101.5 33t32.5 84q0 97 -101 97h-95zM50 0v44h80l3 456h-83v44h231q72 0 112 -38t40 -100t-36.5 -99.5t-89.5 -43.5v-2q20 -9 33 -21t29 -40l62 -107q19 -33 30.5 -41t39.5 -8q13 0 21 3v-44q-16 -3 -34 -3q-32 0 -52 10.5t-39 43.5l-76 126
q-23 38 -40 50t-45 12h-53l-1 -198h83v-44h-215z" />
    <glyph glyph-name="s.sc" unicode="&#xf773;" horiz-adv-x="500" 
d="M72 25v119h45l-2 -83q47 -26 127 -26q75 0 106 33t31 76q0 26 -10 45.5t-29.5 30.5t-33 16t-36.5 11l-71 18q-27 7 -45.5 15t-40 23t-33 40.5t-11.5 59.5q0 60 45 105t130 45q95 0 158 -30v-113h-43l-2 80q-36 19 -103 19q-133 0 -133 -96q0 -46 28 -68t79 -36l63 -17
q38 -11 58 -18.5t42 -23.5t31 -41t9 -62q0 -66 -48.5 -111t-145.5 -45t-165 34z" />
    <glyph glyph-name="t.sc" unicode="&#xf774;" 
d="M38 412l5 132h470l5 -132h-44l-5 88h-165l-3 -456h83v-44h-215v44h80l3 456h-165l-5 -88h-44z" />
    <glyph glyph-name="u.sc" unicode="&#xf775;" horiz-adv-x="648" 
d="M606 544v-44h-71l-3 -284q-2 -119 -48 -172t-154 -53q-107 0 -157.5 43.5t-50.5 141.5q0 52 0.5 105.5t1.5 116.5t1 102h-83v44h206v-44h-71q0 -15 -1.5 -128.5t-1.5 -176.5q0 -89 37 -124.5t119 -35.5q86 0 119.5 44t34.5 131l3 290h-83v44h202z" />
    <glyph glyph-name="v.sc" unicode="&#xf776;" horiz-adv-x="593" 
d="M9 500v44h203v-44h-75l146 -394q9 -25 18 -58h2q4 22 16 55l148 397h-86v44h203v-44h-61l-197 -500h-56l-193 500h-68z" />
    <glyph glyph-name="w.sc" unicode="&#xf777;" horiz-adv-x="870" 
d="M19 500v44h203v-44h-79l130 -392q12 -34 17 -60h2q5 26 19 59l111 289l-34 104h-63v44h203v-44h-84l126 -397q10 -36 14 -55h2q7 33 15 55l136 397h-89v44h203v-44h-62l-176 -500h-60l-108 332h-2l-126 -332h-56l-174 500h-68z" />
    <glyph glyph-name="x.sc" unicode="&#xf778;" horiz-adv-x="593" 
d="M29 0v44h67l172 232l-160 224h-71v44h203v-44h-80q21 -23 47 -57l91 -126l101 134q7 10 41 49h-89v44h203v-44h-62l-164 -224l165 -232h71v-44h-203v44h76q-3 3 -18 19.5t-21 24.5l-104 147l-101 -141q-16 -21 -45 -50h84v-44h-203z" />
    <glyph glyph-name="y.sc" unicode="&#xf779;" horiz-adv-x="611" 
d="M198 0v44h80l1 197l-186 259h-68v44h203v-44h-79q34 -40 43 -53l113 -159l123 165q23 29 40 47h-79v44h197v-44h-68l-187 -255l-1 -201h83v-44h-215z" />
    <glyph glyph-name="z.sc" unicode="&#xf77a;" horiz-adv-x="519" 
d="M50 0v44l317 410q22 30 40 46h-294l-6 -83h-45l8 127h393v-44l-313 -408q-10 -14 -44 -48h311l8 87h44l-8 -131h-411z" />
    <glyph glyph-name="exclamdown.sc" unicode="&#xf7a1;" horiz-adv-x="316" 
d="M128 -243l8 529h44l8 -529h-60zM204 490q0 -20 -13.5 -34t-32.5 -14t-32.5 14t-13.5 34t13.5 34t32.5 14t32.5 -14t13.5 -34z" />
    <glyph glyph-name="dieresis.sc" unicode="&#xf7a8;" horiz-adv-x="278" 
d="M201 688q0 20 12.5 34t31.5 14t31.5 -14t12.5 -34t-12.5 -34t-31.5 -14t-31.5 14t-12.5 34zM-11 688q0 20 12.5 34t31.5 14t31.5 -14t12.5 -34t-12.5 -34t-31.5 -14t-31.5 14t-12.5 34z" />
    <glyph glyph-name="macron.sc" unicode="&#xf7af;" horiz-adv-x="278" 
d="M8 675v44h262v-44h-262z" />
    <glyph glyph-name="acute.sc" unicode="&#xf7b4;" horiz-adv-x="278" 
d="M93 606l-35 27l174 153l34 -31z" />
    <glyph glyph-name="cedilla.sc" unicode="&#xf7b8;" horiz-adv-x="278" 
d="M127 8h40v-72h13q29 0 51 -19t22 -49q0 -37 -25 -59t-71 -22q-55 0 -100 18l7 36q43 -18 79 -18q58 0 58 40q0 37 -54 37h-20v108z" />
    <glyph glyph-name="questiondown.sc" unicode="&#xf7bf;" horiz-adv-x="500" 
d="M271 267l38 34q49 -39 49 -90q0 -30 -13 -50t-45 -46l-96 -76q-64 -52 -64 -117q0 -47 34 -86t103 -39q55 0 100 19l7 -49q-46 -18 -109 -18q-87 0 -139 47.5t-52 116.5q0 89 74 149l90 73q20 16 28.5 23.5t17 21.5t8.5 29q0 9 -2 17t-6.5 14.5t-7.5 10.5t-8.5 9.5z
M350 490q0 -20 -13 -34t-33 -14t-33 14t-13 34t13 34t33 14t33 -14t13 -34z" />
    <glyph glyph-name="agrave.sc" unicode="&#xf7e0;" horiz-adv-x="593" 
d="M209 266h170l-66 190q-11 32 -14 52h-2q-3 -16 -16 -52zM11 0v44h62l199 500h60l181 -500h69v-44h-203v44h78l-62 178h-203l-67 -178h78v-44h-192zM343 576l-173 149l34 31l174 -153z" />
    <glyph glyph-name="aacute.sc" unicode="&#xf7e1;" horiz-adv-x="593" 
d="M209 266h170l-66 190q-11 32 -14 52h-2q-3 -16 -16 -52zM11 0v44h62l199 500h60l181 -500h69v-44h-203v44h78l-62 178h-203l-67 -178h78v-44h-192zM251 576l-35 27l174 153l34 -31z" />
    <glyph glyph-name="acircumflex.sc" unicode="&#xf7e2;" horiz-adv-x="593" 
d="M209 266h170l-66 190q-11 32 -14 52h-2q-3 -16 -16 -52zM11 0v44h62l199 500h60l181 -500h69v-44h-203v44h78l-62 178h-203l-67 -178h78v-44h-192zM410 578l-111 128l-117 -128l-33 30l126 138h48l122 -138z" />
    <glyph glyph-name="atilde.sc" unicode="&#xf7e3;" horiz-adv-x="593" 
d="M209 266h170l-66 190q-11 32 -14 52h-2q-3 -16 -16 -52zM11 0v44h62l199 500h60l181 -500h69v-44h-203v44h78l-62 178h-203l-67 -178h78v-44h-192zM428 707l35 -26l-9 -15q-38 -52 -92 -52q-29 0 -70.5 26t-60.5 26q-28 0 -54 -38l-7 -10l-39 26l8 13q38 57 91 57
q33 0 77 -25q3 -2 12 -7.5t12.5 -7.5t10.5 -5.5t12.5 -5t11.5 -1.5q25 0 54 34z" />
    <glyph glyph-name="adieresis.sc" unicode="&#xf7e4;" horiz-adv-x="593" 
d="M209 266h170l-66 190q-11 32 -14 52h-2q-3 -16 -16 -52zM11 0v44h62l199 500h60l181 -500h69v-44h-203v44h78l-62 178h-203l-67 -178h78v-44h-192zM359 658q0 20 12.5 34t31.5 14t31.5 -14t12.5 -34t-12.5 -34t-31.5 -14t-31.5 14t-12.5 34zM147 658q0 20 12.5 34
t31.5 14t31.5 -14t12.5 -34t-12.5 -34t-31.5 -14t-31.5 14t-12.5 34z" />
    <glyph glyph-name="aring.sc" unicode="&#xf7e5;" horiz-adv-x="593" 
d="M209 266h170l-66 190q-11 32 -14 52h-2q-3 -16 -16 -52zM11 0v44h62l199 500h60l181 -500h69v-44h-203v44h78l-62 178h-203l-67 -178h78v-44h-192zM206 661q0 37 27 64t64 27t64 -27t27 -64t-27 -64t-64 -27t-64 27t-27 64zM246 661q0 -23 14 -39t37 -16t37 16t14 39
t-14 39t-37 16t-37 -16t-14 -39z" />
    <glyph glyph-name="ae.sc" unicode="&#xf7e6;" horiz-adv-x="815" 
d="M71 44l277 500h369l3 -126h-44l-3 82h-192l-3 -214h196v-44h-196v-198h216l8 88h44l-8 -132h-392v44h80v198h-195l-108 -198h78v-44h-197v44h67zM426 286l3 214h-57l-116 -214h170z" />
    <glyph glyph-name="ccedilla.sc" unicode="&#xf7e7;" 
d="M498 149l-3 -139q-67 -18 -144 -19v-55h13q29 0 51 -19t22 -49q0 -37 -25 -59t-71 -22q-55 0 -100 18l7 36q43 -18 79 -18q58 0 58 40q0 37 -54 37h-20v91q-118 11 -191 86t-73 195q0 128 82.5 204.5t213.5 76.5q99 0 155 -30v-122h-44v91q-55 17 -111 17
q-118 0 -179 -64.5t-61 -172.5t61 -172.5t179 -64.5q56 -3 108 10l3 104h44z" />
    <glyph glyph-name="egrave.sc" unicode="&#xf7e8;" horiz-adv-x="519" 
d="M50 0v44h80l3 456h-83v44h385v-127h-44v83h-206l-2 -204h194v-44h-194l-1 -208h216l8 88h44l-8 -132h-392zM318 576l-173 149l34 31l174 -153z" />
    <glyph glyph-name="eacute.sc" unicode="&#xf7e9;" horiz-adv-x="519" 
d="M50 0v44h80l3 456h-83v44h385v-127h-44v83h-206l-2 -204h194v-44h-194l-1 -208h216l8 88h44l-8 -132h-392zM234 576l-35 27l174 153l34 -31z" />
    <glyph glyph-name="ecircumflex.sc" unicode="&#xf7ea;" horiz-adv-x="519" 
d="M50 0v44h80l3 456h-83v44h385v-127h-44v83h-206l-2 -204h194v-44h-194l-1 -208h216l8 88h44l-8 -132h-392zM373 578l-111 128l-117 -128l-33 30l126 138h48l122 -138z" />
    <glyph glyph-name="edieresis.sc" unicode="&#xf7eb;" horiz-adv-x="519" 
d="M50 0v44h80l3 456h-83v44h385v-127h-44v83h-206l-2 -204h194v-44h-194l-1 -208h216l8 88h44l-8 -132h-392zM322 658q0 20 12.5 34t31.5 14t31.5 -14t12.5 -34t-12.5 -34t-31.5 -14t-31.5 14t-12.5 34zM110 658q0 20 12.5 34t31.5 14t31.5 -14t12.5 -34t-12.5 -34
t-31.5 -14t-31.5 14t-12.5 34z" />
    <glyph glyph-name="igrave.sc" unicode="&#xf7ec;" horiz-adv-x="315" 
d="M50 0v44h80l3 456h-83v44h215v-44h-80l-3 -456h83v-44h-215zM204 576l-173 149l34 31l174 -153z" />
    <glyph glyph-name="iacute.sc" unicode="&#xf7ed;" horiz-adv-x="315" 
d="M50 0v44h80l3 456h-83v44h215v-44h-80l-3 -456h83v-44h-215zM112 576l-35 27l174 153l34 -31z" />
    <glyph glyph-name="icircumflex.sc" unicode="&#xf7ee;" horiz-adv-x="315" 
d="M50 0v44h80l3 456h-83v44h215v-44h-80l-3 -456h83v-44h-215zM271 578l-111 128l-117 -128l-33 30l126 138h48l122 -138z" />
    <glyph glyph-name="idieresis.sc" unicode="&#xf7ef;" horiz-adv-x="315" 
d="M50 0v44h80l3 456h-83v44h215v-44h-80l-3 -456h83v-44h-215zM215 658q0 20 12.5 34t31.5 14t31.5 -14t12.5 -34t-12.5 -34t-31.5 -14t-31.5 14t-12.5 34zM3 658q0 20 12.5 34t31.5 14t31.5 -14t12.5 -34t-12.5 -34t-31.5 -14t-31.5 14t-12.5 34z" />
    <glyph glyph-name="eth.sc" unicode="&#xf7f0;" horiz-adv-x="630" 
d="M50 258v44h81l2 198h-83v44h255q142 0 210 -73t68 -192q0 -120 -72.5 -199.5t-219.5 -79.5h-241v44h80l1 214h-81zM344 302v-44h-161l-1 -214h112q109 0 173 60.5t64 173.5q0 102 -56 162t-161 60h-129l-2 -198h161z" />
    <glyph glyph-name="ntilde.sc" unicode="&#xf7f1;" horiz-adv-x="685" 
d="M47 0v44h80l3 456h-83v44h131l306 -413q20 -28 31 -51h2l3 420h-83v44h201v-44h-70l-3 -500h-48l-297 404q-28 38 -37 60h-2l-2 -420h83v-44h-215zM474 707l35 -26l-9 -15q-38 -52 -92 -52q-29 0 -70.5 26t-60.5 26q-28 0 -54 -38l-7 -10l-39 26l8 13q38 57 91 57
q33 0 77 -25q3 -2 12 -7.5t12.5 -7.5t10.5 -5.5t12.5 -5t11.5 -1.5q25 0 54 34z" />
    <glyph glyph-name="ograve.sc" unicode="&#xf7f2;" horiz-adv-x="611" 
d="M103 272q0 -106 55.5 -169.5t146.5 -63.5q92 0 147.5 63.5t55.5 169.5t-55.5 169.5t-147.5 63.5q-91 0 -146.5 -63.5t-55.5 -169.5zM47 272q0 121 67.5 201t190.5 80q124 0 191.5 -80t67.5 -201t-67.5 -201t-191.5 -80q-123 0 -190.5 80t-67.5 201zM352 576l-173 149
l34 31l174 -153z" />
    <glyph glyph-name="oacute.sc" unicode="&#xf7f3;" horiz-adv-x="611" 
d="M103 272q0 -106 55.5 -169.5t146.5 -63.5q92 0 147.5 63.5t55.5 169.5t-55.5 169.5t-147.5 63.5q-91 0 -146.5 -63.5t-55.5 -169.5zM47 272q0 121 67.5 201t190.5 80q124 0 191.5 -80t67.5 -201t-67.5 -201t-191.5 -80q-123 0 -190.5 80t-67.5 201zM260 576l-35 27
l174 153l34 -31z" />
    <glyph glyph-name="ocircumflex.sc" unicode="&#xf7f4;" horiz-adv-x="611" 
d="M103 272q0 -106 55.5 -169.5t146.5 -63.5q92 0 147.5 63.5t55.5 169.5t-55.5 169.5t-147.5 63.5q-91 0 -146.5 -63.5t-55.5 -169.5zM47 272q0 121 67.5 201t190.5 80q124 0 191.5 -80t67.5 -201t-67.5 -201t-191.5 -80q-123 0 -190.5 80t-67.5 201zM419 578l-111 128
l-117 -128l-33 30l126 138h48l122 -138z" />
    <glyph glyph-name="otilde.sc" unicode="&#xf7f5;" horiz-adv-x="611" 
d="M103 272q0 -106 55.5 -169.5t146.5 -63.5q92 0 147.5 63.5t55.5 169.5t-55.5 169.5t-147.5 63.5q-91 0 -146.5 -63.5t-55.5 -169.5zM47 272q0 121 67.5 201t190.5 80q124 0 191.5 -80t67.5 -201t-67.5 -201t-191.5 -80q-123 0 -190.5 80t-67.5 201zM437 707l35 -26
l-9 -15q-38 -52 -92 -52q-29 0 -70.5 26t-60.5 26q-28 0 -54 -38l-7 -10l-39 26l8 13q38 57 91 57q33 0 77 -25q3 -2 12 -7.5t12.5 -7.5t10.5 -5.5t12.5 -5t11.5 -1.5q25 0 54 34z" />
    <glyph glyph-name="odieresis.sc" unicode="&#xf7f6;" horiz-adv-x="611" 
d="M103 272q0 -106 55.5 -169.5t146.5 -63.5q92 0 147.5 63.5t55.5 169.5t-55.5 169.5t-147.5 63.5q-91 0 -146.5 -63.5t-55.5 -169.5zM47 272q0 121 67.5 201t190.5 80q124 0 191.5 -80t67.5 -201t-67.5 -201t-191.5 -80q-123 0 -190.5 80t-67.5 201zM368 658q0 20 12.5 34
t31.5 14t31.5 -14t12.5 -34t-12.5 -34t-31.5 -14t-31.5 14t-12.5 34zM156 658q0 20 12.5 34t31.5 14t31.5 -14t12.5 -34t-12.5 -34t-31.5 -14t-31.5 14t-12.5 34z" />
    <glyph glyph-name="oslash.sc" unicode="&#xf7f8;" horiz-adv-x="611" 
d="M170 90l234 391q-43 24 -98 24q-92 0 -147.5 -63.5t-55.5 -169.5q0 -117 67 -182zM80 -60l63 104q-96 78 -96 228q0 122 75.5 201.5t183.5 79.5q70 0 124 -28l62 103l39 -24l-63 -104q96 -78 96 -228q0 -122 -75.5 -201.5t-183.5 -79.5q-71 0 -124 29l-62 -104zM441 454
l-234 -390q42 -25 98 -25q92 0 147.5 63.5t55.5 169.5q0 117 -67 182z" />
    <glyph glyph-name="ugrave.sc" unicode="&#xf7f9;" horiz-adv-x="648" 
d="M606 544v-44h-71l-3 -284q-2 -119 -48 -172t-154 -53q-107 0 -157.5 43.5t-50.5 141.5q0 52 0.5 105.5t1.5 116.5t1 102h-83v44h206v-44h-71q0 -15 -1.5 -128.5t-1.5 -176.5q0 -89 37 -124.5t119 -35.5q86 0 119.5 44t34.5 131l3 290h-83v44h202zM370 576l-173 149l34 31
l174 -153z" />
    <glyph glyph-name="uacute.sc" unicode="&#xf7fa;" horiz-adv-x="648" 
d="M606 544v-44h-71l-3 -284q-2 -119 -48 -172t-154 -53q-107 0 -157.5 43.5t-50.5 141.5q0 52 0.5 105.5t1.5 116.5t1 102h-83v44h206v-44h-71q0 -15 -1.5 -128.5t-1.5 -176.5q0 -89 37 -124.5t119 -35.5q86 0 119.5 44t34.5 131l3 290h-83v44h202zM278 576l-35 27l174 153
l34 -31z" />
    <glyph glyph-name="ucircumflex.sc" unicode="&#xf7fb;" horiz-adv-x="648" 
d="M606 544v-44h-71l-3 -284q-2 -119 -48 -172t-154 -53q-107 0 -157.5 43.5t-50.5 141.5q0 52 0.5 105.5t1.5 116.5t1 102h-83v44h206v-44h-71q0 -15 -1.5 -128.5t-1.5 -176.5q0 -89 37 -124.5t119 -35.5q86 0 119.5 44t34.5 131l3 290h-83v44h202zM437 578l-111 128
l-117 -128l-33 30l126 138h48l122 -138z" />
    <glyph glyph-name="udieresis.sc" unicode="&#xf7fc;" horiz-adv-x="648" 
d="M606 544v-44h-71l-3 -284q-2 -119 -48 -172t-154 -53q-107 0 -157.5 43.5t-50.5 141.5q0 52 0.5 105.5t1.5 116.5t1 102h-83v44h206v-44h-71q0 -15 -1.5 -128.5t-1.5 -176.5q0 -89 37 -124.5t119 -35.5q86 0 119.5 44t34.5 131l3 290h-83v44h202zM386 658q0 20 12.5 34
t31.5 14t31.5 -14t12.5 -34t-12.5 -34t-31.5 -14t-31.5 14t-12.5 34zM174 658q0 20 12.5 34t31.5 14t31.5 -14t12.5 -34t-12.5 -34t-31.5 -14t-31.5 14t-12.5 34z" />
    <glyph glyph-name="yacute.sc" unicode="&#xf7fd;" horiz-adv-x="611" 
d="M198 0v44h80l1 197l-186 259h-68v44h203v-44h-79q34 -40 43 -53l113 -159l123 165q23 29 40 47h-79v44h197v-44h-68l-187 -255l-1 -201h83v-44h-215zM260 576l-35 27l174 153l34 -31z" />
    <glyph glyph-name="thorn.sc" unicode="&#xf7fe;" horiz-adv-x="481" 
d="M50 0v44h80l3 456h-83v44h215v-44h-80l-1 -48h81q177 0 177 -154q0 -74 -49.5 -121t-134.5 -47h-75l-1 -86h83v-44h-215zM184 408l-1 -234h68q135 0 135 124q0 52 -28.5 81t-85.5 29h-88z" />
    <glyph glyph-name="ydieresis.sc" unicode="&#xf7ff;" horiz-adv-x="611" 
d="M198 0v44h80l1 197l-186 259h-68v44h203v-44h-79q34 -40 43 -53l113 -159l123 165q23 29 40 47h-79v44h197v-44h-68l-187 -255l-1 -201h83v-44h-215zM368 658q0 20 12.5 34t31.5 14t31.5 -14t12.5 -34t-12.5 -34t-31.5 -14t-31.5 14t-12.5 34zM156 658q0 20 12.5 34
t31.5 14t31.5 -14t12.5 -34t-12.5 -34t-31.5 -14t-31.5 14t-12.5 34z" />
    </font>
</defs>
</svg>
