<?xml version="1.0" encoding="UTF-8" standalone="no"?>
<svg width="121px" height="50px" viewBox="0 0 121 50" version="1.1" xmlns="http://www.w3.org/2000/svg" xmlns:xlink="http://www.w3.org/1999/xlink">
    <!-- Generator: Sketch 3.8.2 (29753) - http://www.bohemiancoding.com/sketch -->
    <title>Page 1</title>
    <desc>Created with Sketch.</desc>
    <defs>
        <path d="M7.41249472,0.13670467 C5.20920542,0.18059647 3.83076098,1.21251098 3.87936295,3.59821322 L2.96703454,17.179525 C3.00082448,18.8533571 3.3924175,19.3480542 4.74864389,19.3210791 C5.67995021,19.303248 6.09422414,18.7925486 6.56635757,17.0126447 L10.9155396,3.61375823 C12.0352364,1.55541568 10.6910447,0.134875845 7.61523436,0.134875845 C7.54811736,0.134875845 7.48100035,0.135790257 7.41249472,0.13670467 L7.41249472,0.13670467 Z M3.73911155,21.8114815 C2.21347257,21.8416572 1.62562017,22.1040935 1.08544399,22.6591419 C0.296703454,23.4702258 0.0273096783,24.8153266 0.0495277217,25.9030203 C0.0791517795,27.3679091 1.06692896,28.0185136 2.9735148,27.9805655 C4.54127549,27.9494755 5.08746905,27.7300165 5.62718236,27.1749681 C6.45897036,26.3629698 6.68624243,25.0187834 6.66402438,23.9310897 C6.63532608,22.5046062 5.73642107,21.8101099 3.89000909,21.8101099 C3.84048137,21.8101099 3.7900279,21.8105671 3.73911155,21.8114815 L3.73911155,21.8114815 Z" id="path-1"></path>
        <path d="M0.297281761,0.0341819673 L0.18977912,1.63451236 C0.223569061,3.30834445 0.615162076,3.80304162 1.97138847,3.77606645 C2.90269479,3.75823541 3.31696872,3.24753602 3.78910215,1.46763207 L4.25438972,0.0341819673 L0.297281761,0.0341819673 L0.297281761,0.0341819673 Z" id="path-3"></path>
        <polygon id="path-5" points="0.607746608 0.273077167 0.07057507 6.5770034 0.886862981 6.5770034 0.886862981 0.273077167 0.607746608 0.273077167"></polygon>
    </defs>
    <g id="Desktop" stroke="none" stroke-width="1" fill="none" fill-rule="evenodd">
        <g id="OnePager_Desktop" transform="translate(-138.000000, -5229.000000)">
            <g id="Group-24" transform="translate(-19.000000, 2193.000000)">
                <g id="Footer" transform="translate(19.000000, 2975.000000)">
                    <g id="Page-1" transform="translate(138.000000, 61.000000)">
                        <g id="Group-25" transform="translate(0.000000, 0.173281)">
                            <path d="M2.57812621,47.4597008 L4.779564,44.8623121 C6.185781,45.9696656 7.75539319,46.5539752 9.40647153,46.5539752 C10.4664574,46.5539752 11.0371833,46.1914107 11.0371833,45.5874412 L11.0371833,45.5467498 C11.0371833,44.9633547 10.5682901,44.6410242 8.63208015,44.1979914 C5.59468847,43.5135536 3.25068489,42.6681793 3.25068489,39.7685772 L3.25068489,39.728343 C3.25068489,37.1108372 5.35028999,35.2184606 8.77464593,35.2184606 C11.2001157,35.2184606 13.0960554,35.8626642 14.645301,37.0907202 L12.6678952,39.8490455 C11.363048,38.9433199 9.93646444,38.4595957 8.67281323,38.4595957 C7.71466011,38.4595957 7.24576682,38.8623944 7.24576682,39.3662357 L7.24576682,39.4064698 C7.24576682,40.0506735 7.73502665,40.3323125 9.71243251,40.7753454 C12.9942227,41.4799002 15.0322653,42.5269025 15.0322653,45.1645254 L15.0322653,45.2047596 C15.0322653,48.0837873 12.7289948,49.7951103 9.26390576,49.7951103 C6.73614045,49.7951103 4.33103725,49.0100872 2.57812621,47.4597008" id="Fill-1" fill="#2BA3DC"></path>
                            <path d="M16.4607929,42.5469739 L16.4607929,42.5067397 C16.4607929,38.399656 19.6611169,35.1781807 23.9825263,35.1781807 C26.8972559,35.1781807 28.7723662,36.3861196 30.0364802,38.1175597 L27.0601882,40.392618 C26.2450637,39.386307 25.3072771,38.7421034 23.9417932,38.7421034 C21.9440208,38.7421034 20.5378038,40.4127351 20.5378038,42.4665056 L20.5378038,42.5067397 C20.5378038,44.6208614 21.9440208,46.2718332 23.9417932,46.2718332 C25.4294764,46.2718332 26.3061633,45.5873955 27.1624838,44.5605102 L30.1383129,46.6545149 C28.7931956,48.4865403 26.978722,49.8352988 23.8191311,49.8352988 C19.742583,49.8352988 16.4607929,46.7551002 16.4607929,42.5469739" id="Fill-3" fill="#2BA3DC"></path>
                            <polygon id="Fill-5" fill="#2BA3DC" points="31.8317444 35.4598197 35.7860933 35.4598197 35.7860933 40.7350655 40.8615276 40.7350655 40.8615276 35.4598197 44.8158764 35.4598197 44.8158764 49.5536597 40.8615276 49.5536597 40.8615276 44.1979457 35.7860933 44.1979457 35.7860933 49.5536597 31.8317444 49.5536597"></polygon>
                            <path d="M58.1892407,42.5469739 L58.1892407,42.5067397 C58.1892407,40.4735435 56.7015576,38.7014121 54.5204863,38.7014121 C52.3597816,38.7014121 50.9123686,40.4333094 50.9123686,42.4665056 L50.9123686,42.5067397 C50.9123686,44.5403931 52.4005147,46.3120674 54.5612194,46.3120674 C56.7422906,46.3120674 58.1892407,44.5806273 58.1892407,42.5469739 M46.8561871,42.5469739 L46.8561871,42.5067397 C46.8561871,38.4600072 50.1578809,35.1781807 54.5612194,35.1781807 C58.964095,35.1781807 62.2255186,38.419773 62.2255186,42.4665056 L62.2255186,42.5067397 C62.2255186,46.5539295 58.922899,49.8352988 54.5204863,49.8352988 C50.1176107,49.8352988 46.8561871,46.5941636 46.8561871,42.5469739" id="Fill-7" fill="#2BA3DC"></path>
                            <path d="M75.1298508,42.5469739 L75.1298508,42.5067397 C75.1298508,40.4735435 73.6421676,38.7014121 71.4610964,38.7014121 C69.3003916,38.7014121 67.8529787,40.4333094 67.8529787,42.4665056 L67.8529787,42.5067397 C67.8529787,44.5403931 69.3411247,46.3120674 71.5018294,46.3120674 C73.6829007,46.3120674 75.1298508,44.5806273 75.1298508,42.5469739 M63.7967971,42.5469739 L63.7967971,42.5067397 C63.7967971,38.4600072 67.098491,35.1781807 71.5018294,35.1781807 C75.904705,35.1781807 79.1661286,38.419773 79.1661286,42.4665056 L79.1661286,42.5067397 C79.1661286,46.5539295 75.8635091,49.8352988 71.4610964,49.8352988 C67.0582208,49.8352988 63.7967971,46.5941636 63.7967971,42.5469739" id="Fill-9" fill="#2BA3DC"></path>
                            <polygon id="Fill-11" fill="#2BA3DC" points="81.2265744 35.4598197 85.1809233 35.4598197 85.1809233 46.1310137 92.0911976 46.1310137 92.0911976 49.5536597 81.2265744 49.5536597"></polygon>
                            <path d="M92.7039991,47.4597008 L94.9054368,44.8623121 C96.3116538,45.9696656 97.881266,46.5539752 99.5323444,46.5539752 C100.59233,46.5539752 101.163056,46.1914107 101.163056,45.5874412 L101.163056,45.5467498 C101.163056,44.9633547 100.694163,44.6410242 98.757953,44.1979914 C95.7205613,43.5135536 93.3765577,42.6681793 93.3765577,39.7685772 L93.3765577,39.728343 C93.3765577,37.1108372 95.4761628,35.2184606 98.9005188,35.2184606 C101.325989,35.2184606 103.221928,35.8626642 104.771174,37.0907202 L102.793768,39.8490455 C101.489384,38.9433199 100.062337,38.4595957 98.7986861,38.4595957 C97.840533,38.4595957 97.3716397,38.8623944 97.3716397,39.3662357 L97.3716397,39.4064698 C97.3716397,40.0506735 97.8608995,40.3323125 99.8383054,40.7753454 C103.119633,41.4799002 105.158138,42.5269025 105.158138,45.1645254 L105.158138,45.2047596 C105.158138,48.0837873 102.854868,49.7951103 99.3897786,49.7951103 C96.8620133,49.7951103 94.4569101,49.0100872 92.7039991,47.4597008" id="Fill-13" fill="#2BA3DC"></path>
                            <path d="M0,14.9621204 L0,14.8802805 C0,6.75435371 6.40759113,0.0988022714 15.1716835,0.0988022714 C20.380426,0.0988022714 23.5219648,1.48733766 26.5399157,4.01888869 L22.5300217,8.79623684 C20.2975712,6.9587249 18.3132222,5.89709198 14.964778,5.89709198 C10.3350932,5.89709198 6.65569262,9.93970968 6.65569262,14.7988977 L6.65569262,14.8802805 C6.65569262,20.1070623 10.2934343,23.9453088 15.419785,23.9453088 C17.7346274,23.9453088 19.8013683,23.3733438 21.413565,22.2303282 L21.413565,18.1470191 L15.0059739,18.1470191 L15.0059739,12.7163233 L27.5735176,12.7163233 L27.5735176,25.129473 C24.5967626,27.6203327 20.5044768,29.6617586 15.2128794,29.6617586 C6.2006856,29.6617586 0,23.4144924 0,14.9621204" id="Fill-15" fill="#FFFFFF"></path>
                            <path d="M31.374099,7.28539877 L37.6576394,7.28539877 L37.6576394,11.6956103 C38.9388799,8.67393416 41.0060837,6.71389095 44.7266802,6.87711359 L44.7266802,13.3694424 L44.395724,13.3694424 C40.2205833,13.3694424 37.6576394,15.8603021 37.6576394,21.087084 L37.6576394,29.1718621 L31.374099,29.1718621 L31.374099,7.28539877 Z" id="Fill-17" fill="#FFFFFF"></path>
                            <path d="M61.5505067,16.5136955 C61.1783544,13.7370819 59.5249617,11.8588786 56.8791631,11.8588786 C54.2745603,11.8588786 52.5799717,13.6963906 52.0837687,16.5136955 L61.5505067,16.5136955 Z M45.924279,18.3512074 L45.924279,18.2693675 C45.924279,12.0221013 50.430376,6.87715931 56.8791631,6.87715931 C64.2786972,6.87715931 67.6688004,12.5529177 67.6688004,18.7594926 C67.6688004,19.2496177 67.6271415,19.8211256 67.5859456,20.3926334 L52.1666235,20.3926334 C52.7864143,23.2103955 54.7707633,24.6803136 57.5818087,24.6803136 C59.6902084,24.6803136 61.2195504,24.0269659 62.9557979,22.4345165 L66.5523437,25.5787239 C64.4856028,28.1102749 61.5093107,29.662033 57.4994168,29.662033 C50.8437241,29.662033 45.924279,25.0479074 45.924279,18.3512074 L45.924279,18.3512074 Z" id="Fill-19" fill="#FFFFFF"></path>
                            <path d="M83.7889166,21.4545406 L83.7889166,20.3517591 C82.7141187,19.8620912 81.3088275,19.5351888 79.7790226,19.5351888 C77.092028,19.5351888 75.4381724,20.5972789 75.4381724,22.5568649 L75.4381724,22.6387048 C75.4381724,24.3125369 76.8439265,25.2927871 78.8694715,25.2927871 C81.8045676,25.2927871 83.7889166,23.7003377 83.7889166,21.4545406 M69.3615375,22.8833102 L69.3615375,22.8019274 C69.3615375,18.0245793 73.0404752,15.8194735 78.2908766,15.8194735 C80.5228642,15.8194735 82.1355238,16.1870674 83.7060618,16.7178838 L83.7060618,16.35029 C83.7060618,13.7775904 82.093865,12.3488209 78.9523263,12.3488209 C76.5546291,12.3488209 74.8595775,12.7977974 72.8340326,13.5329851 L71.2630318,8.79632828 C73.7019249,7.73469536 76.0996221,7.04065626 79.8618774,7.04065626 C83.2927136,7.04065626 85.7732656,7.93860935 87.3442664,9.49036737 C88.9976591,11.1235081 89.7415007,13.5329851 89.7415007,16.4728213 L89.7415007,29.171725 L83.6648658,29.171725 L83.6648658,26.8033966 C82.1355238,28.4776859 80.0271241,29.5800102 76.9679773,29.5800102 C72.7928366,29.5800102 69.3615375,27.212139 69.3615375,22.8833102" id="Fill-21" fill="#FFFFFF"></path>
                            <path d="M94.5351824,22.9652415 L94.5351824,12.5935177 L91.8893837,12.5935177 L91.8893837,7.28535305 L94.5351824,7.28535305 L94.5351824,1.69143454 L100.818723,1.69143454 L100.818723,7.28535305 L106.027465,7.28535305 L106.027465,12.5935177 L100.818723,12.5935177 L100.818723,21.9447572 C100.818723,23.3735267 101.438977,24.068023 102.844268,24.068023 C104.00192,24.068023 105.035522,23.7818119 105.944611,23.2916868 L105.944611,28.2734061 C104.622174,29.0492851 103.092369,29.5394102 100.984432,29.5394102 C97.1393222,29.5394102 94.5351824,28.0288008 94.5351824,22.9652415" id="Fill-23" fill="#FFFFFF"></path>
                        </g>
                        <g id="Group-44" transform="translate(109.238713, 1.544900)">
                            <g id="Group-28">
                                <mask id="mask-2" fill="white">
                                    <use xlink:href="#path-1"></use>
                                </mask>
                                <g id="Clip-27"></g>
                                <polygon id="Fill-26" fill="#38B0E4" mask="url(#mask-2)" points="31.9229773 27.5431563 -17.0298525 28.5083187 -17.6218708 -0.778942294 31.330959 -1.7445619"></polygon>
                            </g>
                            <g id="Group-34" transform="translate(2.777255, 15.545013)">
                                <mask id="mask-4" fill="white">
                                    <use xlink:href="#path-3"></use>
                                </mask>
                                <g id="Clip-33"></g>
                                <path d="M12.2077965,0.0411028422 C11.4968191,-0.140865247 9.58606738,3.32704419 8.86212947,3.19262555 C4.53701703,2.38794254 -0.358358524,-0.576582807 -4.53951656,0.70770956 C-5.59163349,1.03095438 -5.10283653,0.903851043 -6.09524247,1.37523069 C-2.29086542,1.95954028 1.42649096,3.11307166 5.12625806,4.2053374 C5.34890136,4.2711751 5.57154467,4.3365556 5.79465086,4.40193609 C8.27149982,3.62194222 10.8117628,3.08929694 13.4052565,3.03306057 C13.6547466,3.02757409 13.9033109,3.02711689 14.1514124,3.03031733 C15.3248028,2.59368536 16.5268916,2.23386404 17.7479582,1.95176778 C15.9510739,1.17451715 14.1032733,0.526655884 12.2077965,0.0411028422" id="Fill-32" fill="#39B1E1" mask="url(#mask-4)"></path>
                            </g>
                            <g id="Group-40" transform="translate(3.240131, 5.486475)">
                                <mask id="mask-6" fill="white">
                                    <use xlink:href="#path-5"></use>
                                </mask>
                                <g id="Clip-39"></g>
                                <path d="M-8.43142344,0.479700801 C-12.357074,0.0215801352 -16.4215873,0.294989475 -20.1329263,1.60488539 C-20.3227054,1.6716375 -20.5110959,1.74250447 -20.6985606,1.81474306 L-20.6022824,6.5770034 C-19.2335584,5.82992838 -17.7745736,5.24378997 -16.2665239,4.83230434 C-14.475657,4.34355085 -12.6162845,4.10031712 -10.7578377,4.12272023 C-9.09333599,4.14329451 -7.43253724,4.37784132 -5.82589498,4.80944402 C-5.02234242,4.59272826 -4.21323534,4.39521516 -3.39996237,4.21644751 C-2.02892395,3.71534946 -0.65695977,3.2142514 0.714078656,2.71361056 C-2.25249301,1.6565497 -5.30423384,0.845008598 -8.43142344,0.479700801" id="Fill-38" fill="#F8941F" mask="url(#mask-6)"></path>
                            </g>
                        </g>
                    </g>
                </g>
            </g>
        </g>
    </g>
</svg>