<?xml version="1.0" encoding="UTF-8" standalone="no"?>
<svg width="103px" height="43px" viewBox="0 0 103 43" version="1.1" xmlns="http://www.w3.org/2000/svg" xmlns:xlink="http://www.w3.org/1999/xlink">
    <!-- Generator: Sketch 3.8.2 (29753) - http://www.bohemiancoding.com/sketch -->
    <title>Page 1</title>
    <desc>Created with Sketch.</desc>
    <defs>
        <path d="M6.31884796,0.115673182 C4.44063413,0.152812398 3.26556673,1.02597083 3.30699792,3.04464195 L2.52927535,14.5365211 C2.55807989,15.9528406 2.89189688,16.3714305 4.0480243,16.3486054 C4.84192477,16.3335176 5.19507632,15.9013873 5.59755071,14.3953147 L9.30505011,3.05779542 C10.2595458,1.31612096 9.11367748,0.114125715 6.49167519,0.114125715 C6.4344607,0.114125715 6.3772462,0.114899449 6.31884796,0.115673182 L6.31884796,0.115673182 Z M3.18743935,18.455869 C1.88689465,18.4814022 1.38577457,18.7034638 0.925296519,19.1731201 C0.252927535,19.8594219 0.0232803815,20.9975841 0.0422203529,21.9179403 C0.0674736481,23.1574616 0.90951321,23.7079731 2.5347995,23.6758631 C3.87125124,23.6495562 4.33685887,23.4638601 4.79694234,22.9942038 C5.50600752,22.3071283 5.69974764,21.1697398 5.68080767,20.2493836 C5.65634354,19.0423591 4.89006386,18.4547084 3.31607332,18.4547084 C3.27385297,18.4547084 3.23084345,18.4550953 3.18743935,18.455869 L3.18743935,18.455869 Z" id="path-1"></path>
        <path d="M0.253420517,0.0289232031 L0.161778922,1.38304892 C0.190583462,2.79936838 0.524400458,3.21795829 1.68052788,3.19513315 C2.47442835,3.18004534 2.8275799,2.74791509 3.23005429,1.24184252 L3.62669288,0.0289232031 L0.253420517,0.0289232031 L0.253420517,0.0289232031 Z" id="path-3"></path>
        <polygon id="path-5" points="0.518079076 0.231065295 0.0601623547 5.56515672 0.756014344 5.56515672 0.756014344 0.231065295 0.518079076 0.231065295"></polygon>
    </defs>
    <g id="Desktop" stroke="none" stroke-width="1" fill="none" fill-rule="evenodd">
        <g id="OnePager_Desktop" transform="translate(-135.000000, -24.000000)">
            <g id="Group-31" transform="translate(0.000000, -1.000000)">
                <g id="Page-1" transform="translate(135.000000, 25.000000)">
                    <g id="Group-25" transform="translate(0.000000, 0.146623)">
                        <path d="M2.19774693,40.1582084 L4.07438243,37.9604179 C5.27312479,38.8974094 6.61115485,39.3918252 8.01863147,39.3918252 C8.92222594,39.3918252 9.40874646,39.0850398 9.40874646,38.5739887 L9.40874646,38.5395576 C9.40874646,38.0459155 9.00903414,37.7731744 7.35849455,37.3983004 C4.76924263,36.8191608 2.77107565,36.103844 2.77107565,33.6503346 L2.77107565,33.6162903 C2.77107565,31.4014777 4.56090294,29.8002359 7.48002604,29.8002359 C9.54763958,29.8002359 11.1638505,30.3453312 12.4845189,31.3844555 L10.7988614,33.7184231 C9.6865327,32.9520399 8.47042871,32.5427348 7.39321783,32.5427348 C6.57643157,32.5427348 6.17671925,32.8835645 6.17671925,33.3098917 L6.17671925,33.343936 C6.17671925,33.8890314 6.59379321,34.1273414 8.27945066,34.5022153 C11.0770423,35.0983771 12.8143901,35.9843021 12.8143901,38.2161369 L12.8143901,38.2501812 C12.8143901,40.6862816 10.8509464,42.1343241 7.89709999,42.1343241 C5.74228366,42.1343241 3.69203176,41.4700738 2.19774693,40.1582084" id="Fill-1" fill="#2BA3DC"></path>
                        <path d="M14.0321513,36.0012856 L14.0321513,35.9672413 C14.0321513,32.4920166 16.7602964,29.7661529 20.4441208,29.7661529 C22.9288083,29.7661529 24.527263,30.7882551 25.6048684,32.2533197 L23.0677014,34.1783691 C22.3728412,33.3268752 21.5734166,32.7817798 20.4093975,32.7817798 C18.7063784,32.7817798 17.5076361,34.1953912 17.5076361,35.933197 L17.5076361,35.9672413 C17.5076361,37.7561135 18.7063784,39.1530897 20.4093975,39.1530897 C21.6775864,39.1530897 22.4249261,38.57395 23.1549042,37.7050471 L25.6916766,39.4768972 C24.5450192,41.0270726 22.9982548,42.1683297 20.3048331,42.1683297 C16.8297429,42.1683297 14.0321513,39.5620079 14.0321513,36.0012856" id="Fill-3" fill="#2BA3DC"></path>
                        <polygon id="Fill-5" fill="#2BA3DC" points="27.1352576 30.0044629 30.5061779 30.0044629 30.5061779 34.4681323 34.8327776 34.4681323 34.8327776 30.0044629 38.2036979 30.0044629 38.2036979 41.9300198 34.8327776 41.9300198 34.8327776 37.3982617 30.5061779 37.3982617 30.5061779 41.9300198 27.1352576 41.9300198"></polygon>
                        <path d="M49.6039429,36.0012856 L49.6039429,35.9672413 C49.6039429,34.2468445 48.335754,32.7473487 46.4764801,32.7473487 C44.6345679,32.7473487 43.4007077,34.2128002 43.4007077,35.933197 L43.4007077,35.9672413 C43.4007077,37.688025 44.6692912,39.1871339 46.5112034,39.1871339 C48.3704773,39.1871339 49.6039429,37.7220693 49.6039429,36.0012856 M39.9429792,36.0012856 L39.9429792,35.9672413 C39.9429792,32.543083 42.7575378,29.7661529 46.5112034,29.7661529 C50.2644744,29.7661529 53.0447044,32.5090387 53.0447044,35.933197 L53.0447044,35.9672413 C53.0447044,39.3917865 50.2293566,42.1683297 46.4764801,42.1683297 C42.7232091,42.1683297 39.9429792,39.4258308 39.9429792,36.0012856" id="Fill-7" fill="#2BA3DC"></path>
                        <path d="M64.0451187,36.0012856 L64.0451187,35.9672413 C64.0451187,34.2468445 62.7769298,32.7473487 60.9176559,32.7473487 C59.0757437,32.7473487 57.8418835,34.2128002 57.8418835,35.933197 L57.8418835,35.9672413 C57.8418835,37.688025 59.110467,39.1871339 60.9523792,39.1871339 C62.811653,39.1871339 64.0451187,37.7220693 64.0451187,36.0012856 M54.3841549,36.0012856 L54.3841549,35.9672413 C54.3841549,32.543083 57.1987136,29.7661529 60.9523792,29.7661529 C64.7056502,29.7661529 67.4858802,32.5090387 67.4858802,35.933197 L67.4858802,35.9672413 C67.4858802,39.3917865 64.6705323,42.1683297 60.9176559,42.1683297 C57.1643849,42.1683297 54.3841549,39.4258308 54.3841549,36.0012856" id="Fill-9" fill="#2BA3DC"></path>
                        <polygon id="Fill-11" fill="#2BA3DC" points="69.2423257 30.0044629 72.6132461 30.0044629 72.6132461 39.0339347 78.5039718 39.0339347 78.5039718 41.9300198 69.2423257 41.9300198"></polygon>
                        <path d="M79.0263598,40.1582084 L80.9029953,37.9604179 C82.1017377,38.8974094 83.4397678,39.3918252 84.8472444,39.3918252 C85.7508389,39.3918252 86.2373594,39.0850398 86.2373594,38.5739887 L86.2373594,38.5395576 C86.2373594,38.0459155 85.8376471,37.7731744 84.1871075,37.3983004 C81.5978555,36.8191608 79.5996886,36.103844 79.5996886,33.6503346 L79.5996886,33.6162903 C79.5996886,31.4014777 81.3895159,29.8002359 84.308639,29.8002359 C86.3762525,29.8002359 87.9924634,30.3453312 89.3131318,31.3844555 L87.6274744,33.7184231 C86.5155402,32.9520399 85.2990416,32.5427348 84.2218307,32.5427348 C83.4050445,32.5427348 83.0053322,32.8835645 83.0053322,33.3098917 L83.0053322,33.343936 C83.0053322,33.8890314 83.4224061,34.1273414 85.1080636,34.5022153 C87.9052606,35.0983771 89.643003,35.9843021 89.643003,38.2161369 L89.643003,38.2501812 C89.643003,40.6862816 87.6795593,42.1343241 84.7257129,42.1343241 C82.5708966,42.1343241 80.5206447,41.4700738 79.0263598,40.1582084" id="Fill-13" fill="#2BA3DC"></path>
                        <path d="M0,12.6602557 L0,12.5910065 C0,5.71522237 5.46220883,0.083601922 12.9332384,0.083601922 C17.3734779,0.083601922 20.051511,1.25851648 22.6241904,3.40059812 L19.2059202,7.44296963 C17.3028476,5.88815184 15.6112714,4.98984706 12.7568599,4.98984706 C8.81024336,4.98984706 5.67370518,8.41052357 5.67370518,12.5221442 L5.67370518,12.5910065 C5.67370518,17.0136681 8.77473091,20.2614152 13.1447347,20.2614152 C15.118043,20.2614152 16.8798549,19.7774448 18.2541866,18.8102777 L18.2541866,15.35517 L12.7919778,15.35517 L12.7919778,10.7599658 L23.5052937,10.7599658 L23.5052937,21.2634003 C20.9677321,23.3710508 17.4792261,25.0984112 12.9683562,25.0984112 C5.28583035,25.0984112 0,19.8122628 0,12.6602557" id="Fill-15" fill="#4E575E"></path>
                        <path d="M26.7451336,6.16456819 L32.1015943,6.16456819 L32.1015943,9.89628563 C33.1937993,7.33948275 34.9560058,5.68098465 38.1276618,5.81909611 L38.1276618,11.3126051 L37.8455352,11.3126051 C34.2863989,11.3126051 32.1015943,13.4202556 32.1015943,17.8429172 L32.1015943,24.6838833 L26.7451336,24.6838833 L26.7451336,6.16456819 Z" id="Fill-17" fill="#4E575E"></path>
                        <path d="M52.4692844,13.973127 C52.1520399,11.6236847 50.7425903,10.0344358 48.4871554,10.0344358 C46.2668383,10.0344358 44.8222709,11.5892536 44.3992782,13.973127 L52.4692844,13.973127 Z M39.1485657,15.5279448 L39.1485657,15.4586956 C39.1485657,10.1725472 42.9898287,5.8191348 48.4871554,5.8191348 C54.794955,5.8191348 57.684879,10.6216996 57.684879,15.8734168 C57.684879,16.2881381 57.6493666,16.7717216 57.6142487,17.2553052 L44.4699085,17.2553052 C44.9982548,19.6395654 46.689831,20.8833423 49.086132,20.8833423 C50.8834564,20.8833423 52.1871577,20.3305096 53.6672376,18.9830524 L56.7331454,21.6435356 C54.9713335,23.7856173 52.4341665,25.0986433 49.0158963,25.0986433 C43.3421911,25.0986433 39.1485657,21.1943832 39.1485657,15.5279448 L39.1485657,15.5279448 Z" id="Fill-19" fill="#4E575E"></path>
                        <path d="M71.4266174,18.1538421 L71.4266174,17.2207193 C70.5103963,16.8063849 69.3124431,16.5297751 68.0083472,16.5297751 C65.7177944,16.5297751 64.3079502,17.4284668 64.3079502,19.086578 L64.3079502,19.1558272 C64.3079502,20.5721466 65.506298,21.4015891 67.2329921,21.4015891 C69.7350412,21.4015891 71.4266174,20.0541319 71.4266174,18.1538421 M59.1278681,19.3628009 L59.1278681,19.2939386 C59.1278681,15.2515671 62.2640117,13.3857084 66.7397637,13.3857084 C68.6424416,13.3857084 70.0171679,13.6967493 71.3559871,14.1459017 L71.3559871,13.8348608 C71.3559871,11.6579611 69.9816554,10.4490023 67.3036224,10.4490023 C65.2596838,10.4490023 63.8147218,10.8289055 62.0880278,11.4509874 L60.748814,7.443047 C62.8278704,6.54474222 64.871809,5.95747838 68.0789775,5.95747838 C71.0036247,5.95747838 73.1181936,6.71728483 74.4574074,8.03031085 C75.866857,9.41219917 76.5009514,11.4509874 76.5009514,13.9385411 L76.5009514,24.6837673 L71.3208692,24.6837673 L71.3208692,22.6797971 C70.0171679,24.0965034 68.2198435,25.0292394 65.6120462,25.0292394 C62.0529099,25.0292394 59.1278681,23.0256561 59.1278681,19.3628009" id="Fill-21" fill="#4E575E"></path>
                        <path d="M80.5873686,19.4321274 L80.5873686,10.6560534 L78.3319337,10.6560534 L78.3319337,6.1645295 L80.5873686,6.1645295 L80.5873686,1.43121384 L85.9438293,1.43121384 L85.9438293,6.1645295 L90.3840688,6.1645295 L90.3840688,10.6560534 L85.9438293,10.6560534 L85.9438293,18.5686407 C85.9438293,19.7775995 86.4725701,20.3652502 87.6705233,20.3652502 C88.6573748,20.3652502 89.538478,20.1230716 90.3134385,19.7083504 L90.3134385,23.9236513 C89.1861156,24.5801643 87.8820197,24.9948856 86.0850899,24.9948856 C82.8072911,24.9948856 80.5873686,23.7166776 80.5873686,19.4321274" id="Fill-23" fill="#4E575E"></path>
                    </g>
                    <g id="Group-44" transform="translate(93.121526, 1.307223)">
                        <g id="Group-28">
                            <mask id="mask-2" fill="white">
                                <use xlink:href="#path-1"></use>
                            </mask>
                            <g id="Clip-27"></g>
                            <polygon id="Fill-26" fill="#38B0E4" mask="url(#mask-2)" points="27.2130298 23.3057476 -14.5172513 24.1224235 -15.0219226 -0.659105018 26.7083585 -1.47616776"></polygon>
                        </g>
                        <g id="Group-34" transform="translate(2.367496, 13.153472)">
                            <mask id="mask-4" fill="white">
                                <use xlink:href="#path-3"></use>
                            </mask>
                            <g id="Clip-33"></g>
                            <path d="M10.4066462,0.034779328 C9.80056711,-0.11919367 8.17172957,2.81519124 7.55460217,2.70145239 C3.86762108,2.02056677 -0.305485955,-0.487877759 -3.86975182,0.598831166 C-4.76663838,0.872346015 -4.34995901,0.764797036 -5.1959444,1.16365674 C-1.95286888,1.65807255 1.21602508,2.63413756 4.3699249,3.55836242 C4.5597192,3.61407124 4.74951349,3.6693932 4.93970237,3.72471515 C7.0511146,3.06472034 9.21658466,2.61402048 11.4274317,2.56643586 C11.6401118,2.56179346 11.8520028,2.5614066 12.0634991,2.56411466 C13.0637664,2.19465684 14.0884977,1.89019265 15.129407,1.65149581 C13.5976368,0.9938222 12.0224625,0.445631902 10.4066462,0.034779328" id="Fill-32" fill="#39B1E1" mask="url(#mask-4)"></path>
                        </g>
                        <g id="Group-40" transform="translate(2.762079, 4.642402)">
                            <mask id="mask-6" fill="white">
                                <use xlink:href="#path-5"></use>
                            </mask>
                            <g id="Clip-39"></g>
                            <path d="M-7.18744294,0.405900678 C-10.5338991,0.0182601144 -13.9987301,0.249606479 -17.1624945,1.35797995 C-17.3242735,1.4144625 -17.4848686,1.47442686 -17.6446746,1.53555182 L-17.5626014,5.56515672 C-16.3958203,4.93301632 -15.1520955,4.43705305 -13.8665449,4.0888729 C-12.3399043,3.67531226 -10.7548655,3.46949911 -9.17061577,3.48845558 C-7.75169625,3.50586459 -6.33593339,3.70432727 -4.96633671,4.06952956 C-4.28134108,3.88615468 -3.59161045,3.71902821 -2.89832858,3.56776328 C-1.72957451,3.14375723 -0.560031279,2.71975119 0.608722789,2.29613201 C-1.92015797,1.4016959 -4.52164196,0.715007275 -7.18744294,0.405900678" id="Fill-38" fill="#F8941F" mask="url(#mask-6)"></path>
                        </g>
                    </g>
                </g>
            </g>
        </g>
    </g>
</svg>